{"glyphs":{"0":{"ha":856,"x_min":85,"x_max":769,"o":"m 428 893 q 681 774 592 893 q 769 438 769 654 q 746 252 769 336 q 678 108 722 168 q 570 15 633 49 q 428 -18 507 -18 q 174 101 264 -18 q 85 438 85 221 q 108 622 85 539 q 177 766 132 706 q 285 860 222 826 q 428 893 349 893 m 299 710 q 256 588 269 658 q 242 438 242 518 q 290 194 242 272 q 431 115 339 115 q 500 128 468 115 q 556 164 532 140 q 599 286 585 215 q 613 438 613 357 q 565 681 613 601 q 424 760 517 760 q 299 710 349 760 z "},"1":{"ha":492,"x_min":29,"x_max":379,"o":"m 379 868 l 368 689 l 368 0 l 215 0 l 215 621 l 99 535 l 29 632 l 172 758 l 264 882 l 379 868 z "},"2":{"ha":733,"x_min":76,"x_max":657,"o":"m 85 111 l 368 353 q 428 408 403 382 q 474 461 454 435 q 492 530 486 493 q 497 608 497 567 q 459 724 497 683 q 350 764 421 764 q 289 753 319 764 q 233 710 260 733 q 178 654 206 686 l 76 776 q 203 864 135 835 q 363 893 272 893 q 483 874 429 893 q 574 818 536 854 q 632 731 611 782 q 653 614 653 679 q 605 417 653 501 q 458 258 557 333 l 288 128 l 365 128 l 643 150 l 657 135 l 643 -7 l 383 0 l 101 0 l 85 111 z "},"3":{"ha":753,"x_min":56,"x_max":679,"o":"m 361 522 l 386 522 q 444 531 417 522 q 483 639 483 571 q 453 733 483 701 q 357 764 424 764 q 306 758 326 764 q 188 676 244 731 l 92 796 q 363 893 211 893 q 567 827 496 893 q 639 650 639 761 q 619 552 639 597 q 561 479 599 507 l 561 469 q 649 393 618 444 q 679 271 679 342 q 656 147 679 201 q 589 56 632 93 q 485 1 546 19 q 350 -18 424 -18 q 189 13 263 -18 q 56 110 115 43 l 153 226 q 224 164 189 190 q 293 118 258 138 q 322 114 307 115 q 351 113 338 113 q 482 140 426 113 q 512 195 501 163 q 522 264 522 228 q 393 394 522 394 l 365 394 l 272 382 l 249 515 l 263 529 l 361 522 z "},"4":{"ha":801,"x_min":72,"x_max":753,"o":"m 519 868 l 531 850 q 459 633 507 736 q 347 438 411 531 l 238 278 l 492 278 l 492 386 l 511 510 l 643 524 l 643 274 l 753 283 l 738 149 l 643 149 l 643 0 l 492 0 l 492 149 l 88 149 l 72 263 l 229 508 q 315 683 282 590 q 363 881 349 775 l 519 868 z "},"5":{"ha":747,"x_min":51,"x_max":671,"o":"m 153 224 q 224 159 190 183 q 290 117 257 135 q 313 113 301 114 q 336 113 325 113 q 410 120 376 113 q 468 142 443 128 q 501 204 490 168 q 513 282 513 240 q 364 446 513 446 q 221 389 272 446 l 129 419 l 160 875 l 358 875 l 629 888 l 643 872 l 622 728 l 400 743 l 292 743 l 272 547 q 392 571 328 571 q 597 494 524 571 q 671 285 671 417 q 646 160 671 215 q 577 65 621 104 q 475 3 533 25 q 349 -18 417 -18 q 186 8 256 -18 q 51 99 117 35 l 153 224 z "},"6":{"ha":757,"x_min":83,"x_max":683,"o":"m 622 742 q 491 724 556 736 q 365 692 426 711 q 288 606 317 654 q 250 490 260 557 q 307 522 278 508 q 368 543 336 535 q 392 546 379 546 q 418 546 404 546 q 530 526 481 546 q 613 469 579 506 q 665 383 647 433 q 683 269 683 332 q 663 160 683 213 q 603 69 642 108 q 508 6 564 29 q 381 -18 451 -18 q 159 78 235 -18 q 83 353 83 175 q 117 556 83 463 q 214 721 150 650 q 372 837 278 792 q 588 893 465 882 l 622 742 m 243 367 q 239 296 239 331 q 277 158 239 207 q 379 110 315 110 q 444 118 414 110 q 496 142 475 126 q 521 201 513 168 q 529 271 529 235 q 494 386 529 350 q 394 422 460 422 q 312 408 349 422 q 243 367 275 393 z "},"7":{"ha":689,"x_min":63,"x_max":626,"o":"m 279 875 l 618 875 l 626 765 l 515 572 q 428 380 463 481 q 378 179 393 279 l 378 0 l 208 0 q 260 321 208 168 q 392 617 311 474 l 464 746 l 357 746 l 75 731 l 63 747 l 83 881 l 279 875 z "},"8":{"ha":786,"x_min":79,"x_max":707,"o":"m 394 893 q 503 876 454 893 q 587 828 551 860 q 642 753 622 797 q 661 654 661 708 q 583 471 661 544 q 674 380 642 435 q 707 254 707 325 q 684 143 707 193 q 619 58 661 93 q 520 2 578 22 q 394 -18 463 -18 q 263 2 321 -18 q 164 58 204 22 q 101 143 124 93 q 79 251 79 193 q 108 382 79 322 q 189 486 136 442 q 140 559 157 518 q 124 650 124 600 q 143 744 124 700 q 198 822 163 789 q 283 874 233 854 q 394 893 333 893 m 383 397 q 338 406 360 400 q 297 419 317 413 q 247 348 263 388 q 232 261 232 308 q 275 153 232 194 q 394 113 318 113 q 514 140 467 113 q 543 192 533 163 q 553 253 553 221 q 514 347 553 311 q 383 397 475 382 m 419 529 q 444 524 432 526 q 467 519 456 522 q 501 577 492 546 q 511 653 511 608 q 479 739 511 711 q 394 767 447 767 q 342 760 368 767 q 297 742 315 754 q 281 703 286 725 q 275 657 275 681 q 306 573 275 604 q 419 529 338 542 z "},"9":{"ha":757,"x_min":72,"x_max":674,"o":"m 139 132 q 390 179 288 144 q 467 267 439 218 q 507 383 496 317 q 449 354 479 367 q 388 331 419 342 q 364 328 376 329 q 338 328 351 328 q 142 403 211 328 q 72 606 72 479 q 93 715 72 663 q 153 806 114 767 q 247 869 192 846 q 374 893 303 893 q 595 795 517 893 q 674 521 674 697 q 551 148 674 288 q 175 -18 429 8 l 139 132 m 513 507 q 516 544 515 525 q 517 578 517 563 q 478 716 517 665 q 374 767 439 767 q 260 733 304 767 q 226 604 226 681 q 261 490 226 526 q 363 453 296 453 q 513 507 451 453 z "}," ":{"ha":347,"x_min":0,"x_max":0,"o":""},"!":{"ha":354,"x_min":86,"x_max":263,"o":"m 258 964 l 242 276 l 111 276 l 101 775 l 86 947 l 258 964 m 256 167 l 263 0 l 92 0 l 93 158 l 256 167 z "},"\"":{"ha":464,"x_min":36,"x_max":439,"o":"m 439 944 l 363 638 l 236 646 l 268 806 l 285 964 l 439 944 m 218 943 l 158 665 l 36 672 l 61 826 l 71 965 l 218 943 z "},"#":{"ha":815,"x_min":72,"x_max":743,"o":"m 606 642 l 743 647 l 726 515 l 589 515 l 574 393 l 722 399 l 707 267 l 560 267 l 558 129 l 415 129 l 433 267 l 311 267 l 310 129 l 165 129 l 183 267 l 72 267 l 72 378 l 200 388 l 217 515 l 92 515 l 92 626 l 229 638 l 233 783 l 375 783 l 357 640 l 478 640 l 482 783 l 625 783 l 606 642 m 325 392 l 450 392 l 467 515 l 340 515 l 325 392 z "},"$":{"ha":758,"x_min":71,"x_max":682,"o":"m 560 644 q 506 692 535 671 q 440 732 478 713 q 414 736 429 735 q 386 738 399 738 q 323 731 350 738 q 272 711 296 725 q 247 632 247 678 q 285 547 247 578 q 410 501 322 515 q 616 415 550 481 q 682 238 682 350 q 619 74 682 139 q 449 -8 556 10 l 454 -171 l 303 -186 l 311 -12 q 184 14 242 -7 q 71 76 126 35 l 157 213 q 236 156 197 178 q 315 118 275 133 q 374 114 344 114 q 444 119 414 114 q 497 140 475 125 q 533 235 533 181 q 499 322 533 293 q 374 363 464 351 q 169 445 239 379 q 99 619 99 511 q 156 777 99 714 q 311 858 214 840 l 306 1014 l 458 1029 l 450 860 q 660 771 574 843 l 560 644 z "},"%":{"ha":1075,"x_min":65,"x_max":1008,"o":"m 274 861 q 363 845 324 861 q 428 801 401 829 q 468 734 454 772 q 482 650 482 696 q 467 569 482 607 q 424 501 451 531 q 358 456 397 472 q 274 439 319 439 q 185 455 224 439 q 119 499 146 471 q 79 567 93 528 q 65 650 65 606 q 81 732 65 693 q 123 799 96 771 q 189 844 150 828 q 274 861 228 861 m 274 744 q 213 725 239 744 q 199 692 203 711 q 194 650 194 672 q 274 557 194 557 q 335 575 307 557 q 353 650 353 601 q 333 719 353 694 q 274 744 313 744 m 901 785 l 581 385 l 276 -40 l 150 24 l 479 438 l 785 867 l 901 785 m 800 404 q 889 388 850 404 q 954 344 928 372 q 994 277 981 315 q 1008 193 1008 239 q 993 112 1008 150 q 951 45 978 74 q 885 0 924 17 q 800 -17 846 -17 q 711 -1 750 -17 q 646 43 672 15 q 606 110 619 71 q 592 193 592 149 q 607 275 592 236 q 649 342 622 314 q 715 388 676 371 q 800 404 754 404 m 800 288 q 739 268 765 288 q 725 235 729 254 q 721 193 721 215 q 741 124 721 149 q 800 100 761 100 q 861 119 835 100 q 879 193 879 146 q 859 263 879 238 q 800 288 839 288 z "},"&":{"ha":835,"x_min":63,"x_max":764,"o":"m 743 531 q 764 367 764 456 q 741 224 764 289 q 676 110 718 160 l 764 -19 l 764 -40 l 603 -75 l 556 18 q 385 -18 476 -18 q 247 5 307 -18 q 147 69 188 28 q 84 167 106 110 q 63 292 63 224 q 97 438 63 371 q 190 549 132 504 q 169 665 169 600 q 186 751 169 710 q 235 824 203 793 q 316 874 268 856 q 426 893 364 893 q 575 871 510 893 q 694 803 640 849 l 588 675 q 540 719 567 697 q 481 758 513 740 q 453 763 468 761 q 421 764 438 764 q 379 759 401 764 q 342 743 357 754 q 319 657 319 708 q 357 539 319 589 l 599 218 q 612 277 607 246 q 617 343 617 308 q 597 415 608 378 q 571 489 585 453 l 743 531 m 397 113 q 446 115 422 113 q 492 122 469 117 l 261 436 q 227 373 238 408 q 217 296 217 338 q 228 224 217 257 q 262 165 239 190 q 318 126 285 140 q 397 113 351 113 z "},"'":{"ha":276,"x_min":43,"x_max":244,"o":"m 244 943 l 164 644 l 43 654 l 75 829 l 88 965 l 244 943 z "},"(":{"ha":408,"x_min":69,"x_max":399,"o":"m 399 786 q 260 581 304 692 q 217 325 217 471 q 262 79 217 192 q 399 -136 307 -33 l 275 -207 q 119 31 168 -103 q 69 325 69 164 q 126 617 69 485 q 292 847 183 749 l 399 786 z "},")":{"ha":408,"x_min":10,"x_max":339,"o":"m 10 -146 q 148 59 104 -51 q 192 315 192 169 q 147 561 192 449 q 10 776 101 674 l 133 847 q 290 610 240 743 q 339 315 339 476 q 282 24 339 156 q 117 -207 225 -108 l 10 -146 z "},"*":{"ha":549,"x_min":51,"x_max":494,"o":"m 400 907 l 357 813 l 324 767 l 378 779 l 494 786 l 483 654 l 378 664 l 324 678 l 356 626 l 404 519 l 267 500 l 246 590 l 244 647 l 206 606 l 111 533 l 51 646 l 140 696 l 192 717 l 143 738 l 53 794 l 119 910 l 210 832 l 242 793 l 247 847 l 278 964 l 400 907 z "},"+":{"ha":690,"x_min":76,"x_max":614,"o":"m 411 511 l 614 515 l 597 378 l 408 378 l 404 174 l 275 157 l 275 378 l 76 378 l 93 506 l 275 508 l 275 704 l 417 721 l 411 511 z "},",":{"ha":331,"x_min":63,"x_max":253,"o":"m 244 167 l 253 140 l 172 -142 l 63 -118 l 85 40 l 85 160 l 244 167 z "},"-":{"ha":613,"x_min":100,"x_max":513,"o":"m 513 378 l 496 243 l 100 243 l 117 368 l 513 378 z "},".":{"ha":331,"x_min":81,"x_max":251,"o":"m 251 167 l 251 0 l 81 0 l 88 160 l 251 167 z "},"/":{"ha":542,"x_min":-17,"x_max":556,"o":"m 556 878 l 107 -179 l -17 -125 l 425 942 l 556 878 z "},":":{"ha":331,"x_min":81,"x_max":251,"o":"m 251 167 l 251 0 l 81 0 l 88 160 l 251 167 m 251 603 l 251 436 l 81 436 l 88 596 l 251 603 z "},";":{"ha":331,"x_min":63,"x_max":253,"o":"m 244 167 l 253 140 l 172 -142 l 63 -118 l 85 40 l 85 160 l 244 167 m 251 603 l 251 436 l 81 436 l 88 596 l 251 603 z "},"<":{"ha":479,"x_min":56,"x_max":415,"o":"m 415 676 l 221 460 l 414 239 l 300 157 l 56 433 l 56 472 l 317 756 l 415 676 z "},"=":{"ha":650,"x_min":79,"x_max":572,"o":"m 572 646 l 563 500 l 92 504 l 100 629 l 572 646 m 557 383 l 550 239 l 79 254 l 88 379 l 557 383 z "},">":{"ha":479,"x_min":64,"x_max":424,"o":"m 178 756 l 424 479 l 424 439 l 163 157 l 64 235 l 257 454 l 64 674 l 178 756 z "},"?":{"ha":653,"x_min":15,"x_max":594,"o":"m 385 167 l 392 0 l 221 0 l 222 158 l 385 167 m 15 858 q 153 944 79 917 q 310 972 226 972 q 425 956 372 972 q 515 908 478 940 q 574 827 553 875 q 594 717 594 779 q 570 600 594 644 q 510 524 546 556 q 435 463 475 492 q 361 393 394 435 l 361 263 l 249 256 q 203 375 203 299 q 233 472 203 433 q 314 538 264 510 q 419 615 369 567 q 430 654 426 632 q 433 701 433 676 q 401 805 433 771 q 299 839 369 839 q 280 838 289 839 q 263 836 271 838 q 142 733 199 803 l 15 858 z "},"@":{"ha":1156,"x_min":76,"x_max":1079,"o":"m 790 533 l 790 207 q 820 181 806 188 q 850 175 835 175 q 901 190 879 175 q 929 363 929 249 q 908 490 929 433 q 844 588 886 547 q 742 651 803 629 q 604 674 682 674 q 455 652 525 674 q 331 590 385 631 q 251 461 279 538 q 224 288 224 385 q 322 13 224 106 q 593 -81 419 -81 q 743 -67 672 -81 q 879 -29 814 -54 l 918 -153 q 768 -198 853 -181 q 593 -215 683 -215 q 378 -181 474 -215 q 215 -83 282 -147 q 113 75 149 -18 q 76 288 76 168 q 117 497 76 401 q 228 663 157 593 q 395 770 299 732 q 604 808 492 808 q 800 775 713 808 q 949 683 888 742 q 1045 542 1011 624 q 1079 364 1079 461 q 1062 228 1079 288 q 1013 128 1044 168 q 939 66 982 88 q 844 44 896 44 q 764 63 797 44 q 703 115 731 81 q 630 56 671 76 q 538 35 589 35 q 457 51 494 35 q 391 99 419 67 q 347 180 363 132 q 331 290 331 228 q 349 399 331 350 q 398 483 367 447 q 472 538 429 518 q 565 557 515 557 q 644 547 608 557 q 701 518 679 536 l 778 544 l 790 533 m 654 401 q 578 431 625 431 q 497 403 529 431 q 477 351 483 381 q 471 290 471 321 q 496 192 471 224 q 561 161 521 161 q 654 229 619 161 l 654 401 z "},"[":{"ha":367,"x_min":69,"x_max":349,"o":"m 349 863 l 349 744 l 214 736 l 214 -96 l 349 -103 l 349 -222 l 69 -222 l 69 863 l 349 863 z "},"\\":{"ha":540,"x_min":-17,"x_max":556,"o":"m 113 942 l 556 -121 l 431 -179 l -17 882 l 113 942 z "},"]":{"ha":367,"x_min":17,"x_max":297,"o":"m 297 863 l 297 -222 l 17 -222 l 17 -103 l 153 -96 l 153 736 l 17 744 l 17 863 l 297 863 z "},"^":{"ha":531,"x_min":46,"x_max":525,"o":"m 304 935 l 525 679 l 422 599 l 275 756 l 139 599 l 46 679 l 267 935 l 304 935 z "},"_":{"ha":560,"x_min":11,"x_max":558,"o":"m 558 -107 l 542 -244 l 11 -244 l 28 -117 l 558 -107 z "},"`":{"ha":338,"x_min":28,"x_max":311,"o":"m 154 1018 l 225 894 l 311 771 l 217 724 l 28 924 l 135 1018 l 154 1018 z "},"{":{"ha":432,"x_min":63,"x_max":371,"o":"m 371 767 q 299 729 322 760 q 275 650 275 699 q 278 598 275 621 q 284 553 281 575 q 290 508 288 531 q 293 460 293 486 q 276 383 293 415 q 232 331 260 350 q 276 275 260 311 q 293 193 293 239 q 284 94 293 139 q 275 1 275 50 q 303 -69 275 -40 q 371 -110 332 -99 l 326 -225 q 181 -159 232 -214 q 129 -19 129 -104 q 139 75 129 32 q 149 172 149 118 q 129 238 149 208 q 69 278 110 267 l 63 371 q 149 461 149 383 q 139 564 149 515 q 129 672 129 613 q 145 751 129 715 q 189 814 161 788 q 255 856 217 840 q 339 876 293 872 l 371 767 z "},"|":{"ha":381,"x_min":103,"x_max":263,"o":"m 263 840 l 263 -211 l 118 -211 l 118 682 l 103 828 l 263 840 z "},"}":{"ha":432,"x_min":60,"x_max":369,"o":"m 104 876 q 251 811 200 867 q 301 671 301 756 q 292 574 301 618 q 283 479 283 531 q 302 414 283 443 q 361 374 321 385 l 369 281 q 283 190 283 268 q 292 88 283 136 q 301 -19 301 40 q 286 -100 301 -64 q 243 -162 271 -136 q 177 -205 215 -189 q 93 -225 139 -221 l 60 -115 q 133 -78 108 -108 q 157 1 157 -47 q 154 53 157 31 q 148 99 151 76 q 142 143 144 121 q 139 192 139 165 q 156 269 139 236 q 200 321 172 301 q 156 377 172 342 q 139 458 139 413 q 148 557 139 513 q 157 650 157 601 q 128 721 157 692 q 60 761 100 750 l 104 876 z "},"~":{"ha":642,"x_min":63,"x_max":579,"o":"m 63 463 q 128 509 93 486 q 194 546 163 532 q 210 549 201 547 q 231 550 219 550 q 298 535 272 550 q 343 502 324 519 q 382 469 363 485 q 431 454 401 454 q 515 501 475 469 l 579 404 q 517 357 551 379 q 447 319 482 335 q 431 317 440 318 q 411 317 421 317 q 345 332 371 317 q 299 365 319 347 q 260 397 279 382 q 211 413 240 413 q 126 365 171 399 l 63 463 z "},"¡":{"ha":354,"x_min":92,"x_max":268,"o":"m 96 -255 l 113 432 l 243 432 l 253 -67 l 268 -239 l 96 -255 m 99 542 l 92 708 l 263 708 l 261 550 l 99 542 z "},"¤":{"ha":629,"x_min":56,"x_max":574,"o":"m 217 628 q 315 650 260 650 q 414 631 371 650 l 483 697 l 574 607 l 508 540 q 538 433 538 499 q 510 328 538 371 l 574 258 l 485 168 l 414 238 q 314 215 371 215 q 217 235 257 215 l 146 168 l 56 258 l 121 325 q 93 433 93 368 q 119 536 93 496 l 56 606 l 146 699 l 217 628 m 315 532 q 238 510 268 532 q 218 433 218 481 q 244 360 218 388 q 314 333 269 333 q 392 356 364 333 q 408 390 403 371 q 413 433 413 410 q 387 506 413 479 q 315 532 361 532 z "},"¥":{"ha":774,"x_min":43,"x_max":731,"o":"m 249 454 l 43 821 l 43 840 l 228 853 l 275 701 l 399 457 l 413 457 l 510 671 l 554 847 l 731 847 l 731 826 l 663 661 l 549 457 l 675 465 l 658 335 l 129 335 l 146 458 l 249 454 m 671 257 l 654 126 l 478 136 l 478 0 l 324 0 l 324 138 l 131 132 l 142 257 l 671 257 z "},"¦":{"ha":381,"x_min":103,"x_max":263,"o":"m 263 264 l 263 -211 l 118 -211 l 118 96 l 103 251 l 263 264 m 118 365 l 118 682 l 103 828 l 263 840 l 263 365 l 118 365 z "},"§":{"ha":686,"x_min":67,"x_max":622,"o":"m 158 138 q 217 88 190 108 q 271 56 243 68 q 294 51 282 53 q 321 50 307 50 q 418 69 382 50 q 432 94 428 78 q 436 131 436 111 q 411 192 436 169 q 314 225 386 214 q 130 306 193 244 q 67 456 67 367 q 89 553 67 508 q 151 635 111 599 q 113 750 113 685 q 129 835 113 796 q 177 902 146 874 q 253 946 208 931 q 354 961 297 961 q 484 942 425 961 q 589 886 543 922 l 500 768 q 456 806 479 789 q 406 833 432 822 q 357 838 385 838 q 310 833 332 838 q 269 818 288 829 q 256 763 256 794 q 283 700 256 724 q 374 665 310 676 q 556 586 489 646 q 622 435 622 526 q 600 334 622 379 q 540 257 578 289 q 581 135 581 206 q 563 53 581 90 q 511 -13 544 15 q 431 -58 478 -42 q 325 -74 383 -74 q 67 17 176 -74 l 158 138 m 340 538 q 291 549 314 542 q 247 564 268 556 q 214 475 214 535 q 244 397 214 431 q 347 353 274 364 q 443 328 401 344 q 475 415 475 360 q 444 494 475 464 q 340 538 414 525 z "},"¨":{"ha":469,"x_min":21,"x_max":449,"o":"m 449 906 l 449 744 l 286 750 l 292 896 l 449 906 m 183 907 l 183 744 l 21 751 l 26 893 l 183 907 z "},"©":{"ha":1143,"x_min":72,"x_max":1069,"o":"m 571 947 q 771 913 679 947 q 929 813 863 878 q 1033 654 996 749 q 1069 442 1069 560 q 1031 238 1069 331 q 926 77 993 144 q 769 -28 860 10 q 572 -65 678 -65 q 372 -31 464 -65 q 214 68 281 3 q 110 228 147 133 q 72 442 72 322 q 110 646 72 553 q 216 806 149 739 q 374 910 283 872 q 571 947 465 947 m 571 819 q 424 794 492 819 q 303 726 356 769 q 238 601 261 671 q 215 442 215 531 q 241 281 215 351 q 314 163 267 211 q 427 89 361 114 q 572 64 493 64 q 719 89 651 64 q 840 157 788 114 q 904 281 882 211 q 926 442 926 351 q 901 601 926 531 q 828 720 875 672 q 717 794 782 768 q 571 819 651 819 m 692 514 q 654 549 672 533 q 615 579 636 565 q 571 583 596 583 q 522 578 544 583 q 483 561 500 574 q 463 506 469 538 q 457 442 457 474 q 488 340 457 376 q 574 303 518 303 q 708 361 653 303 l 774 268 q 569 185 690 185 q 394 252 460 185 q 328 442 328 319 q 346 544 328 497 q 397 626 364 592 q 474 681 429 661 q 572 700 518 700 q 684 681 635 700 q 769 626 733 663 l 692 514 z "},"«":{"ha":663,"x_min":71,"x_max":593,"o":"m 347 489 l 225 325 l 344 164 l 244 86 l 71 289 l 71 333 l 236 539 l 347 489 m 593 497 l 479 325 l 593 163 l 492 85 l 328 293 l 328 336 l 478 542 l 593 497 z "},"¬":{"ha":631,"x_min":65,"x_max":565,"o":"m 417 617 l 565 628 l 550 283 l 421 283 l 421 489 l 65 489 l 83 617 l 417 617 z "},"­":{"ha":613,"x_min":100,"x_max":513,"o":"m 513 378 l 496 243 l 100 243 l 117 368 l 513 378 z "},"®":{"ha":822,"x_min":65,"x_max":757,"o":"m 410 1028 q 553 1001 489 1028 q 662 927 617 974 q 732 817 707 881 q 757 678 757 753 q 731 540 757 604 q 659 429 706 476 q 549 355 613 382 q 411 328 486 328 q 269 355 333 328 q 160 428 206 382 q 90 539 115 475 q 65 678 65 603 q 91 815 65 751 q 163 926 117 879 q 272 1001 208 974 q 410 1028 335 1028 m 378 519 l 282 519 l 282 764 l 275 843 l 421 843 q 519 813 485 843 q 554 731 554 782 q 537 674 554 699 q 494 639 519 650 l 568 561 l 499 500 l 397 622 l 378 622 l 378 519 m 419 692 q 453 699 442 692 q 460 729 460 708 q 419 763 460 763 l 378 763 l 378 692 l 419 692 m 410 925 q 319 911 361 925 q 242 872 278 897 q 199 785 214 836 q 185 678 185 733 q 246 497 185 563 q 411 431 307 431 q 581 481 507 431 q 623 567 608 515 q 638 678 638 619 q 576 858 638 790 q 410 925 515 925 z "},"¯":{"ha":458,"x_min":24,"x_max":433,"o":"m 249 885 l 422 904 l 433 893 l 418 763 l 36 751 l 24 763 l 47 875 l 249 885 z "},"°":{"ha":535,"x_min":53,"x_max":481,"o":"m 267 947 q 423 888 365 947 q 481 729 481 828 q 464 641 481 681 q 419 573 447 601 q 351 528 390 544 q 268 513 313 513 q 111 572 169 513 q 53 729 53 632 q 69 818 53 778 q 115 887 86 858 q 183 931 144 915 q 267 947 222 947 m 267 831 q 229 825 246 831 q 199 811 213 819 q 181 729 181 781 q 203 657 181 685 q 268 629 226 629 q 304 634 286 629 q 335 649 322 639 q 354 729 354 678 q 331 803 354 776 q 267 831 307 831 z "},"±":{"ha":690,"x_min":76,"x_max":615,"o":"m 411 636 l 615 640 l 599 504 l 408 504 l 404 313 l 275 296 l 275 504 l 76 504 l 92 631 l 275 633 l 275 831 l 415 847 l 411 636 m 583 222 l 568 83 l 92 83 l 110 214 l 583 222 z "},"´":{"ha":329,"x_min":28,"x_max":301,"o":"m 85 846 l 182 1018 l 200 1018 l 301 924 l 124 724 l 28 771 l 85 846 z "},"¶":{"ha":558,"x_min":43,"x_max":503,"o":"m 278 499 q 207 483 233 499 q 194 429 194 460 q 213 379 194 399 q 271 360 232 360 q 314 366 293 360 q 354 383 335 372 l 408 375 l 424 25 q 363 -192 419 -111 q 201 -272 306 -272 q 116 -262 157 -272 q 43 -229 75 -251 l 96 -96 l 110 -90 l 217 -143 q 271 -124 251 -143 q 284 -74 279 -104 q 289 4 289 -43 l 272 247 q 248 242 261 244 q 222 240 235 240 q 101 289 146 240 q 57 415 57 338 q 72 492 57 456 q 116 554 88 528 q 183 596 144 581 q 271 611 222 611 l 492 611 l 503 593 l 447 467 l 278 499 z "},"·":{"ha":331,"x_min":81,"x_max":251,"o":"m 251 415 l 251 249 l 81 249 l 88 408 l 251 415 z "},"¸":{"ha":317,"x_min":24,"x_max":292,"o":"m 192 -60 q 266 -112 240 -75 q 292 -207 292 -149 q 229 -344 292 -285 q 35 -419 167 -403 l 24 -408 l 43 -287 q 113 -278 83 -285 q 165 -261 142 -272 q 176 -214 176 -242 q 162 -171 176 -186 q 117 -156 147 -156 q 93 -158 106 -156 q 71 -164 81 -161 l 56 -143 l 90 0 l 192 0 l 192 -60 z "},"»":{"ha":663,"x_min":69,"x_max":590,"o":"m 417 540 l 590 338 l 590 293 l 425 88 l 315 138 l 436 300 l 317 463 l 417 540 m 169 540 l 333 333 l 333 290 l 183 85 l 69 129 l 182 300 l 69 464 l 169 540 z "},"¿":{"ha":653,"x_min":58,"x_max":638,"o":"m 268 542 l 261 708 l 432 708 l 431 550 l 268 542 m 638 -150 q 500 -236 574 -208 q 343 -264 426 -264 q 228 -248 281 -264 q 138 -199 175 -232 q 79 -119 100 -167 q 58 -8 58 -71 q 83 108 58 64 q 142 185 107 153 q 218 245 178 217 q 292 315 258 274 l 292 446 l 404 453 q 450 333 450 410 q 419 237 450 275 q 339 171 389 199 q 233 93 283 142 q 223 54 226 76 q 219 7 219 32 q 251 -96 219 -62 q 354 -131 283 -131 q 373 -130 364 -131 q 390 -128 382 -129 q 511 -25 454 -94 l 638 -150 z "},"×":{"ha":689,"x_min":92,"x_max":597,"o":"m 208 679 l 350 525 l 499 681 l 592 586 l 438 429 l 597 256 l 504 168 l 344 333 l 183 169 l 92 256 l 256 426 l 99 589 l 208 679 z "},"ð":{"ha":736,"x_min":71,"x_max":654,"o":"m 222 776 q 172 788 199 783 q 118 799 146 793 l 110 815 l 175 938 q 283 904 233 922 l 324 988 l 457 949 l 463 933 l 403 849 q 592 651 529 774 q 654 338 654 528 q 633 190 654 256 q 572 79 611 125 q 479 9 533 33 q 358 -15 425 -15 q 235 7 289 -15 q 145 70 182 29 q 90 167 108 111 q 71 292 71 224 q 91 413 71 358 q 145 505 111 467 q 226 564 179 543 q 326 585 272 585 q 349 584 338 585 q 372 582 361 583 q 486 533 440 564 l 499 533 q 445 642 483 592 q 335 732 407 693 l 285 638 l 168 664 l 222 776 m 360 110 q 412 117 389 110 q 458 143 435 125 q 504 303 504 208 q 501 351 504 328 q 492 400 499 374 q 433 444 468 428 q 360 460 397 460 q 260 431 301 460 q 224 292 224 372 q 235 208 224 243 q 265 152 246 174 q 308 120 283 131 q 360 110 332 110 z "},"÷":{"ha":672,"x_min":76,"x_max":596,"o":"m 596 515 l 579 379 l 76 379 l 93 507 l 596 515 m 419 257 l 419 86 l 249 86 l 256 250 l 419 257 m 419 807 l 419 636 l 249 636 l 256 800 l 419 807 z "},"ˆ":{"ha":482,"x_min":24,"x_max":465,"o":"m 265 979 l 364 892 l 465 821 l 465 801 l 364 713 l 242 833 l 113 718 l 24 790 l 24 810 l 129 889 l 229 979 l 265 979 z "},"ˇ":{"ha":489,"x_min":24,"x_max":465,"o":"m 251 861 l 375 976 l 465 904 l 465 885 l 360 804 l 264 715 l 229 715 l 136 796 l 24 872 l 24 893 l 124 981 l 251 861 z "},"˘":{"ha":454,"x_min":24,"x_max":431,"o":"m 154 944 q 232 838 164 838 q 286 853 264 838 q 301 935 301 886 l 431 951 q 415 851 431 893 q 373 781 400 808 q 308 740 346 753 q 225 726 269 726 q 89 778 143 726 q 24 921 35 829 l 154 944 z "},"˙":{"ha":243,"x_min":36,"x_max":207,"o":"m 207 910 l 207 744 l 36 751 l 42 896 l 207 910 z "},"˚":{"ha":386,"x_min":22,"x_max":363,"o":"m 193 1035 q 266 1021 235 1035 q 319 984 297 1007 q 351 931 340 961 q 363 869 363 901 q 351 808 363 838 q 317 756 339 779 q 263 719 294 733 q 193 706 232 706 q 115 719 147 706 q 63 756 83 733 q 32 808 42 779 q 22 869 22 838 q 34 931 22 901 q 68 984 46 961 q 122 1021 90 1007 q 193 1035 153 1035 m 193 928 q 144 915 163 928 q 137 894 139 907 q 135 869 135 882 q 150 826 135 843 q 193 810 165 810 q 238 821 218 810 q 249 869 249 840 q 233 912 249 896 q 193 928 218 928 z "},"˛":{"ha":340,"x_min":49,"x_max":279,"o":"m 272 4 q 226 -10 247 -1 q 186 -32 206 -19 q 171 -96 171 -57 q 195 -156 171 -135 q 272 -178 219 -178 l 279 -190 l 235 -300 q 98 -253 147 -300 q 49 -136 49 -206 q 192 54 49 -14 l 233 38 l 272 4 z "},"˜":{"ha":490,"x_min":22,"x_max":468,"o":"m 22 850 q 70 892 46 874 q 121 925 94 911 q 151 929 135 929 q 203 921 181 929 q 247 901 226 913 q 290 877 268 889 q 339 860 311 865 q 413 901 376 872 l 468 807 q 367 732 424 760 q 352 729 360 731 q 336 728 344 728 q 284 737 307 728 q 240 757 261 746 q 198 780 219 768 q 149 797 176 792 q 78 756 110 783 l 22 850 z "},"˝":{"ha":528,"x_min":24,"x_max":492,"o":"m 72 875 l 108 1007 l 126 1007 l 243 926 l 118 728 l 24 763 l 72 875 m 375 985 l 393 985 l 492 885 l 378 793 l 303 721 l 219 768 l 375 985 z "},"–":{"ha":863,"x_min":107,"x_max":756,"o":"m 756 378 l 739 243 l 107 243 l 124 368 l 756 378 z "},"—":{"ha":1249,"x_min":181,"x_max":1068,"o":"m 1068 378 l 1051 243 l 181 243 l 196 368 l 1068 378 z "},"‘":{"ha":317,"x_min":67,"x_max":251,"o":"m 75 656 l 67 682 l 133 956 l 251 933 l 235 786 l 235 664 l 75 656 z "},"’":{"ha":317,"x_min":65,"x_max":250,"o":"m 242 956 l 250 929 l 183 656 l 65 678 l 82 825 l 82 947 l 242 956 z "},"‚":{"ha":317,"x_min":65,"x_max":250,"o":"m 242 150 l 250 124 l 183 -150 l 65 -128 l 82 19 l 82 142 l 242 150 z "},"“":{"ha":525,"x_min":65,"x_max":460,"o":"m 293 656 l 285 682 l 346 946 l 460 924 l 443 786 l 443 664 l 293 656 m 74 656 l 65 682 l 138 972 l 263 949 l 233 786 l 233 664 l 74 656 z "},"”":{"ha":525,"x_min":65,"x_max":460,"o":"m 232 956 l 240 929 l 179 665 l 65 688 l 82 825 l 82 947 l 232 956 m 451 956 l 460 929 l 388 639 l 263 663 l 292 825 l 292 947 l 451 956 z "},"„":{"ha":525,"x_min":65,"x_max":460,"o":"m 232 150 l 240 124 l 179 -140 l 65 -118 l 82 19 l 82 142 l 232 150 m 451 150 l 460 124 l 388 -167 l 263 -143 l 292 19 l 292 142 l 451 150 z "},"†":{"ha":583,"x_min":56,"x_max":528,"o":"m 349 864 l 365 853 l 351 642 l 351 611 l 383 611 l 528 617 l 515 474 l 389 485 l 351 485 l 351 447 l 364 93 l 364 -108 l 231 -306 l 207 -299 l 219 446 l 219 485 l 185 485 l 56 475 l 68 615 l 190 611 l 219 611 l 219 640 l 204 826 l 349 864 z "},"‡":{"ha":583,"x_min":56,"x_max":528,"o":"m 349 864 l 365 853 l 351 642 l 351 611 l 386 611 l 528 617 l 515 474 l 392 485 l 351 485 l 351 446 l 354 321 l 386 321 l 503 328 l 490 186 l 392 197 l 358 197 l 363 3 l 363 -108 l 231 -306 l 207 -299 l 219 158 l 219 197 l 185 197 l 79 186 l 93 325 l 190 321 l 219 321 l 219 485 l 185 485 l 56 475 l 68 615 l 190 611 l 219 611 l 219 640 l 204 826 l 349 864 z "},"•":{"ha":485,"x_min":92,"x_max":392,"o":"m 240 590 l 392 451 l 231 303 l 92 453 l 240 590 z "},"…":{"ha":894,"x_min":81,"x_max":815,"o":"m 251 167 l 251 0 l 81 0 l 88 160 l 251 167 m 815 167 l 815 0 l 644 0 l 651 160 l 815 167 m 536 167 l 536 0 l 365 0 l 372 160 l 536 167 z "},"‹":{"ha":413,"x_min":60,"x_max":349,"o":"m 349 486 l 215 321 l 349 153 l 239 81 l 60 297 l 60 332 l 254 563 l 349 486 z "},"›":{"ha":413,"x_min":64,"x_max":351,"o":"m 172 551 l 351 335 l 351 300 l 157 69 l 64 146 l 196 311 l 64 479 l 172 551 z "},"€":{"ha":819,"x_min":36,"x_max":764,"o":"m 519 382 l 506 251 l 321 265 l 299 265 q 369 153 321 190 q 485 115 418 115 q 589 139 540 115 q 676 215 638 163 l 764 114 q 633 13 706 43 q 476 -18 560 -18 q 251 58 333 -18 q 139 265 168 135 l 36 265 l 53 382 l 519 382 m 142 575 q 264 789 175 713 q 485 865 353 865 q 631 841 565 865 q 743 772 696 817 l 643 640 q 585 690 617 668 q 521 729 553 713 q 497 733 510 732 q 469 735 483 735 q 403 724 438 735 q 342 692 369 713 q 294 575 310 639 l 321 575 l 542 589 l 528 458 l 54 458 l 71 575 l 142 575 z "},"№":{"ha":1336,"x_min":108,"x_max":1279,"o":"m 268 881 l 621 247 l 633 247 l 622 531 l 622 704 l 604 868 l 771 881 l 771 4 l 625 -8 l 272 619 l 260 619 l 271 276 l 271 0 l 122 0 l 122 715 l 108 868 l 268 881 m 1083 738 q 1167 722 1131 738 q 1229 680 1204 707 q 1267 617 1254 653 q 1279 540 1279 581 q 1265 464 1279 500 q 1224 401 1250 428 q 1163 358 1199 374 q 1085 343 1128 343 q 1000 358 1036 343 q 939 401 964 374 q 901 464 914 428 q 889 540 889 500 q 903 617 889 581 q 944 680 918 653 q 1005 722 969 707 q 1083 738 1040 738 m 1272 260 l 1260 136 l 896 143 l 913 253 l 1272 260 m 1083 626 q 1031 613 1053 626 q 1013 540 1013 586 q 1032 477 1013 500 q 1085 454 1051 454 q 1138 468 1115 454 q 1156 540 1156 494 q 1136 603 1156 581 q 1083 626 1117 626 z "},"™":{"ha":1040,"x_min":51,"x_max":969,"o":"m 851 446 l 828 722 l 725 446 l 640 446 l 540 721 l 526 446 l 408 446 l 442 763 l 307 772 l 307 446 l 189 446 l 189 772 l 51 758 l 61 875 l 590 875 l 690 619 l 776 875 l 924 875 l 969 446 l 851 446 z "},"−":{"ha":651,"x_min":79,"x_max":572,"o":"m 572 515 l 556 378 l 79 378 l 97 507 l 572 515 z "},"≈":{"ha":651,"x_min":67,"x_max":583,"o":"m 67 339 q 128 385 94 363 q 192 422 161 407 q 213 426 203 425 q 235 428 224 428 q 301 413 276 428 q 347 379 326 397 q 385 346 367 361 q 432 331 404 331 q 517 381 475 350 l 582 283 q 522 235 554 258 q 456 197 490 213 q 413 193 436 193 q 347 208 372 193 q 301 242 321 224 q 263 276 282 261 q 215 292 243 292 q 174 269 196 282 q 131 240 151 256 l 67 339 m 78 601 q 138 646 106 625 q 200 682 169 667 q 222 686 211 685 q 243 688 232 688 q 308 672 283 688 q 351 639 332 657 q 388 606 369 621 q 433 590 406 590 q 518 640 476 610 l 583 543 q 524 495 556 517 q 457 458 492 474 q 436 454 447 456 q 414 453 425 453 q 349 468 374 453 q 306 502 325 483 q 269 536 288 521 q 224 551 251 551 q 183 530 204 542 q 142 503 163 518 l 78 601 z "},"≠":{"ha":657,"x_min":79,"x_max":578,"o":"m 297 635 l 329 779 l 465 751 l 438 640 l 578 644 l 571 500 l 404 501 l 375 382 l 564 385 l 557 240 l 342 246 l 310 114 l 189 133 l 214 250 l 79 254 l 88 379 l 243 381 l 269 503 l 93 504 l 100 629 l 297 635 z "},"≤":{"ha":492,"x_min":53,"x_max":440,"o":"m 438 774 l 236 565 l 440 389 l 331 300 l 61 531 l 61 569 l 340 851 l 438 774 m 403 126 l 290 42 l 53 275 l 117 383 l 403 126 z "},"≥":{"ha":492,"x_min":51,"x_max":439,"o":"m 154 851 l 431 569 l 431 531 l 140 289 l 51 383 l 253 557 l 54 765 l 154 851 m 375 383 l 439 275 l 186 44 l 89 126 l 375 383 z "},"£":{"ha":738,"x_min":75,"x_max":696,"o":"m 696 47 q 597 -2 651 14 q 482 -18 543 -18 q 421 -11 447 -18 q 371 3 394 -4 q 323 18 347 11 q 269 25 299 25 q 201 15 233 25 q 140 -15 168 4 l 79 86 q 128 120 107 104 q 164 154 149 136 q 179 215 174 182 q 185 282 185 247 q 184 288 185 285 q 183 294 183 292 l 97 278 l 75 392 l 157 410 q 131 485 143 446 q 118 576 118 524 q 140 687 118 635 q 207 778 163 739 q 318 842 251 818 q 472 865 385 865 l 494 719 q 385 710 438 717 q 296 689 332 703 q 268 576 268 640 q 278 506 268 536 q 300 446 288 476 l 468 494 l 497 358 l 336 325 q 337 312 336 318 q 338 299 338 306 q 328 219 338 254 q 301 156 319 185 q 351 149 328 156 q 395 135 374 142 q 439 122 417 128 q 486 115 461 115 q 635 197 571 144 l 649 194 l 696 47 z "},"₽":{"ha":800,"x_min":46,"x_max":738,"o":"m 424 847 q 549 831 492 847 q 649 783 607 815 q 714 699 690 750 q 738 576 738 647 q 715 460 738 510 q 651 378 693 411 q 551 329 610 346 q 422 313 493 313 q 363 315 393 313 q 303 322 332 317 l 303 232 l 519 232 l 503 100 l 303 110 l 303 0 l 146 0 l 146 110 l 46 106 l 58 232 l 146 232 l 146 328 l 56 328 l 65 461 l 146 457 l 146 683 l 131 847 l 424 847 m 303 446 q 353 441 326 443 q 410 439 381 439 q 546 465 501 439 q 578 575 578 507 q 538 685 578 653 q 418 717 497 717 l 303 717 l 303 446 z "},"‰":{"ha":1550,"x_min":65,"x_max":1483,"o":"m 274 861 q 363 845 324 861 q 428 801 401 829 q 468 734 454 772 q 482 650 482 696 q 467 569 482 607 q 424 501 451 531 q 358 456 397 472 q 274 439 319 439 q 185 455 224 439 q 119 499 146 471 q 79 567 93 528 q 65 650 65 606 q 81 732 65 693 q 123 799 96 771 q 189 844 150 828 q 274 861 228 861 m 274 744 q 213 725 239 744 q 199 692 203 711 q 194 650 194 672 q 274 557 194 557 q 335 575 307 557 q 353 650 353 601 q 333 719 353 694 q 274 744 313 744 m 800 404 q 889 388 850 404 q 954 344 928 372 q 994 277 981 315 q 1008 193 1008 239 q 993 112 1008 150 q 951 45 978 74 q 885 0 924 17 q 800 -17 846 -17 q 711 -1 750 -17 q 646 43 672 15 q 606 110 619 71 q 592 193 592 149 q 607 275 592 236 q 649 342 622 314 q 715 388 676 371 q 800 404 754 404 m 800 288 q 739 268 765 288 q 725 235 729 254 q 721 193 721 215 q 741 124 721 149 q 800 100 761 100 q 861 119 835 100 q 879 193 879 146 q 859 263 879 238 q 800 288 839 288 m 1275 404 q 1364 388 1325 404 q 1429 344 1403 372 q 1469 277 1456 315 q 1483 193 1483 239 q 1468 112 1483 150 q 1426 45 1453 74 q 1360 0 1399 17 q 1275 -17 1321 -17 q 1186 -1 1225 -17 q 1121 43 1147 15 q 1081 110 1094 71 q 1067 193 1067 149 q 1082 275 1067 236 q 1124 342 1097 314 q 1190 388 1151 371 q 1275 404 1229 404 m 1275 288 q 1214 268 1240 288 q 1200 235 1204 254 q 1196 193 1196 215 q 1216 124 1196 149 q 1275 100 1236 100 q 1336 119 1310 100 q 1354 193 1354 146 q 1334 263 1354 238 q 1275 288 1314 288 m 900 785 l 581 385 l 275 -40 l 149 24 l 479 438 l 785 867 l 900 785 z "},"µ":{"ha":728,"x_min":78,"x_max":675,"o":"m 244 604 l 244 231 q 269 142 244 171 q 336 114 293 114 q 469 203 414 114 l 469 461 l 457 592 l 624 604 l 624 168 l 675 46 l 531 -15 l 490 72 q 382 -11 442 22 q 329 -15 358 -15 q 240 15 275 -15 l 240 -139 l 260 -307 l 90 -307 l 90 461 l 78 592 l 244 604 z "},"¹":{"ha":388,"x_min":44,"x_max":286,"o":"m 286 1000 l 279 890 l 279 556 l 154 556 l 154 818 l 85 790 l 44 874 l 133 933 l 194 1008 l 286 1000 z "},"²":{"ha":465,"x_min":44,"x_max":408,"o":"m 51 639 l 221 756 q 254 781 240 768 q 276 804 268 793 q 285 856 285 826 q 224 908 285 908 q 183 901 201 908 q 147 879 167 893 q 110 849 126 865 l 44 950 q 232 1013 125 1013 q 360 972 313 1013 q 408 864 408 931 q 293 690 408 754 l 225 653 l 285 653 l 408 664 l 397 547 l 247 556 l 68 556 l 51 639 z "},"³":{"ha":482,"x_min":43,"x_max":429,"o":"m 222 825 l 239 825 q 256 827 247 825 q 271 832 265 829 q 282 869 282 846 q 225 914 282 914 q 210 913 218 914 q 196 911 203 913 q 119 869 156 896 l 61 958 q 235 1013 138 1013 q 362 978 318 1013 q 406 885 406 943 q 371 799 406 826 q 429 700 429 771 q 375 588 429 628 q 226 549 321 549 q 131 563 175 549 q 43 613 86 576 l 106 700 q 147 673 126 685 q 188 653 167 661 q 231 649 206 649 q 289 658 263 649 q 303 699 303 674 q 256 743 303 743 l 240 743 l 169 736 l 156 828 l 222 825 z "},"⁴":{"ha":510,"x_min":44,"x_max":468,"o":"m 335 992 q 290 877 315 928 q 228 779 264 826 l 183 721 l 290 721 l 319 833 l 407 842 l 407 722 l 468 728 l 463 624 l 407 624 l 407 556 l 285 556 l 285 624 l 56 624 l 44 704 l 131 822 q 176 909 158 860 q 208 1013 194 958 l 335 992 z "},"⁄":{"ha":181,"x_min":-290,"x_max":453,"o":"m 453 828 l 135 397 l -178 -54 l -290 26 l 39 469 l 342 910 l 453 828 z "},"A":{"ha":853,"x_min":46,"x_max":806,"o":"m 521 883 l 806 21 l 806 0 l 626 0 l 604 133 l 579 214 l 269 219 l 246 139 l 235 0 l 46 0 l 46 21 l 297 743 l 308 868 l 521 883 m 306 340 l 540 350 l 433 711 l 415 711 l 306 340 z "},"B":{"ha":814,"x_min":108,"x_max":739,"o":"m 401 875 q 624 810 553 875 q 696 642 696 746 q 674 551 696 590 q 613 486 653 511 l 613 476 q 706 395 674 446 q 739 271 739 344 q 714 153 739 204 q 645 69 689 103 q 542 17 601 35 q 413 0 482 0 l 122 0 l 122 719 l 108 875 l 401 875 m 279 126 l 418 126 q 536 150 490 126 q 581 264 581 192 q 422 397 581 397 l 279 397 l 279 126 m 279 515 l 404 515 q 501 528 460 515 q 539 631 539 561 q 505 717 539 686 q 393 749 471 749 l 279 749 l 279 515 z "},"C":{"ha":815,"x_min":85,"x_max":744,"o":"m 619 658 q 558 710 592 686 q 486 754 524 735 q 440 758 469 758 q 373 747 408 758 q 310 713 338 735 q 261 594 278 660 q 244 438 244 528 q 260 294 244 354 q 304 194 276 233 q 370 135 332 154 q 454 117 408 117 q 565 142 513 117 q 657 214 617 167 l 744 107 q 610 13 686 43 q 446 -18 533 -18 q 288 15 356 -18 q 174 106 219 47 q 107 249 129 165 q 85 438 85 333 q 111 628 85 543 q 186 772 138 713 q 303 862 235 831 q 453 893 371 893 q 603 868 535 893 q 721 797 672 843 l 619 658 z "},"D":{"ha":860,"x_min":108,"x_max":779,"o":"m 399 875 q 678 765 576 875 q 779 438 779 654 q 753 255 779 336 q 677 117 726 174 q 558 31 628 61 q 399 0 488 0 l 122 0 l 122 724 l 108 875 l 399 875 m 396 131 q 483 142 442 131 q 553 176 525 153 q 601 285 585 221 q 618 438 618 350 q 601 578 618 519 q 555 673 585 636 q 484 727 525 710 q 394 744 443 744 l 281 744 l 281 131 l 396 131 z "},"E":{"ha":771,"x_min":108,"x_max":689,"o":"m 678 875 l 661 735 l 396 747 l 281 747 l 281 511 l 375 511 l 604 524 l 590 383 l 281 390 l 281 128 l 399 128 l 689 143 l 682 0 l 122 0 l 122 719 l 108 875 l 678 875 z "},"F":{"ha":757,"x_min":108,"x_max":668,"o":"m 668 875 l 651 735 l 392 747 l 281 747 l 281 497 l 372 497 l 596 510 l 583 371 l 281 378 l 281 0 l 122 0 l 122 722 l 108 875 l 668 875 z "},"G":{"ha":829,"x_min":85,"x_max":754,"o":"m 629 661 q 565 713 599 690 q 496 756 532 736 q 474 760 486 758 q 447 761 463 761 q 374 749 411 761 q 310 715 338 738 q 261 594 278 661 q 244 438 244 528 q 302 192 244 269 q 451 115 360 115 q 518 124 485 115 q 583 150 551 132 l 583 364 l 418 356 l 433 488 l 750 488 l 754 465 l 733 335 l 733 0 l 704 -7 l 617 29 q 438 -18 539 -18 q 281 15 347 -18 q 172 106 215 47 q 106 249 128 165 q 85 438 85 333 q 112 627 85 543 q 189 770 139 711 q 308 861 239 829 q 460 893 376 893 q 729 801 622 893 l 629 661 z "},"H":{"ha":897,"x_min":108,"x_max":775,"o":"m 281 881 l 281 507 l 617 518 l 617 719 l 601 868 l 775 881 l 775 0 l 617 0 l 617 374 l 281 381 l 281 0 l 122 0 l 122 719 l 108 868 l 281 881 z "},"I":{"ha":404,"x_min":108,"x_max":281,"o":"m 281 881 l 281 0 l 122 0 l 122 715 l 108 868 l 281 881 z "},"J":{"ha":404,"x_min":-58,"x_max":281,"o":"m 281 881 l 281 89 q 208 -159 281 -67 q -8 -290 135 -251 l -58 -149 q 22 -127 -18 -140 q 82 -103 61 -114 q 116 -37 104 -78 q 128 64 128 3 l 128 96 l 122 217 l 122 719 l 107 868 l 281 881 z "},"K":{"ha":868,"x_min":108,"x_max":806,"o":"m 281 881 l 281 472 l 388 532 q 474 642 438 585 q 535 765 511 699 l 572 876 l 747 869 l 747 849 q 679 693 719 767 q 585 557 639 619 l 507 471 q 638 238 567 344 q 806 21 708 131 l 806 0 l 617 -8 q 492 181 547 85 q 393 385 438 276 l 281 315 l 281 0 l 122 0 l 122 719 l 108 868 l 281 881 z "},"L":{"ha":736,"x_min":108,"x_max":678,"o":"m 281 881 l 281 126 l 369 126 l 663 146 l 678 131 l 664 0 l 122 0 l 122 724 l 108 868 l 281 881 z "},"M":{"ha":1074,"x_min":69,"x_max":999,"o":"m 350 881 l 529 210 l 546 210 l 726 875 l 939 875 l 999 0 l 829 0 l 829 175 l 808 651 l 790 651 l 749 471 l 608 0 l 450 0 l 308 478 l 272 651 l 256 651 l 240 231 l 240 0 l 69 0 l 129 704 l 129 868 l 350 881 z "},"N":{"ha":893,"x_min":108,"x_max":771,"o":"m 268 881 l 621 247 l 633 247 l 622 531 l 622 704 l 604 868 l 771 881 l 771 4 l 625 -8 l 272 619 l 260 619 l 271 276 l 271 0 l 122 0 l 122 715 l 108 868 l 268 881 z "},"O":{"ha":897,"x_min":85,"x_max":813,"o":"m 449 893 q 599 863 532 893 q 714 776 667 833 q 787 633 761 718 q 813 438 813 547 q 787 244 813 329 q 713 101 761 160 q 598 13 665 43 q 449 -18 531 -18 q 298 12 365 -18 q 183 99 231 42 q 110 242 136 157 q 85 438 85 326 q 111 626 85 542 q 185 769 138 710 q 300 860 233 828 q 449 893 367 893 m 313 713 q 263 591 281 660 q 244 438 244 522 q 260 290 244 351 q 303 190 275 229 q 368 133 331 151 q 451 115 406 115 q 522 126 488 115 q 583 160 557 138 q 635 281 617 213 q 653 438 653 350 q 638 585 653 524 q 594 685 622 646 q 529 742 567 724 q 446 760 492 760 q 374 748 408 760 q 313 713 340 736 z "},"P":{"ha":793,"x_min":108,"x_max":728,"o":"m 410 875 q 534 857 476 875 q 635 802 592 839 q 703 711 678 765 q 728 585 728 657 q 706 461 728 517 q 646 367 685 406 q 553 306 607 328 q 436 285 500 285 q 352 292 392 285 q 281 313 313 299 l 281 0 l 122 0 l 122 711 l 108 875 l 410 875 m 281 433 q 345 420 313 425 q 414 415 378 415 q 481 424 450 415 q 533 447 513 432 q 568 583 568 500 q 524 705 568 665 q 400 744 481 744 l 281 744 l 281 433 z "},"Q":{"ha":897,"x_min":85,"x_max":813,"o":"m 449 893 q 599 863 532 893 q 714 776 667 833 q 787 633 761 718 q 813 438 813 547 q 738 135 813 250 q 533 -8 663 19 q 672 -95 607 -61 q 811 -157 736 -129 l 811 -174 l 692 -278 q 535 -178 606 -233 q 401 -53 465 -122 q 322 10 357 -7 q 251 28 286 28 q 200 17 221 28 q 168 -8 179 7 l 125 1 q 133 74 126 39 q 150 143 139 110 q 85 438 85 254 q 111 626 85 542 q 185 769 138 710 q 300 860 233 828 q 449 893 367 893 m 313 713 q 263 591 281 660 q 244 438 244 522 q 260 290 244 351 q 303 190 275 229 q 368 133 331 151 q 451 115 406 115 q 522 126 488 115 q 583 160 557 138 q 635 281 617 213 q 653 438 653 350 q 638 585 653 524 q 594 685 622 646 q 529 742 567 724 q 446 760 492 760 q 374 748 408 760 q 313 713 340 736 z "},"R":{"ha":811,"x_min":108,"x_max":754,"o":"m 411 875 q 539 857 481 875 q 640 803 597 839 q 706 713 682 767 q 729 589 729 660 q 681 419 729 488 q 554 321 633 350 q 642 172 594 244 q 754 21 690 99 l 754 0 l 578 -8 q 484 144 525 68 q 413 301 443 221 q 341 310 375 304 q 281 328 307 317 l 281 0 l 122 0 l 122 715 l 108 875 l 411 875 m 281 449 q 415 429 346 429 q 483 438 453 429 q 535 461 513 446 q 562 518 554 488 q 569 589 569 549 q 527 706 569 668 q 403 744 485 744 l 281 744 l 281 449 z "},"S":{"ha":774,"x_min":71,"x_max":697,"o":"m 575 669 q 517 717 550 696 q 444 757 483 738 q 419 761 433 760 q 393 763 406 763 q 276 736 325 763 q 258 699 264 721 q 251 653 251 676 q 289 565 251 597 q 414 519 326 532 q 697 246 697 478 q 674 136 697 185 q 608 53 650 88 q 506 0 565 18 q 374 -18 446 -18 q 210 4 282 -18 q 71 78 139 26 l 157 214 q 238 157 199 179 q 318 119 278 135 q 348 115 333 117 q 378 114 363 114 q 508 142 460 114 q 537 187 528 161 q 546 240 546 213 q 508 331 546 297 q 378 376 471 365 q 172 461 243 393 q 101 640 101 529 q 122 742 101 696 q 181 822 143 789 q 270 874 218 856 q 386 893 322 893 q 545 869 472 893 q 676 799 618 844 l 575 669 z "},"T":{"ha":736,"x_min":39,"x_max":696,"o":"m 275 875 l 461 875 l 696 883 l 689 731 l 493 743 l 444 743 l 444 0 l 286 0 l 286 743 l 239 743 l 39 732 l 50 882 l 275 875 z "},"U":{"ha":896,"x_min":108,"x_max":772,"o":"m 281 881 l 281 354 q 325 169 281 228 q 447 111 369 111 q 571 147 522 111 q 615 344 615 213 l 615 718 l 601 868 l 772 881 l 772 353 q 690 82 772 182 q 447 -18 607 -18 q 207 74 292 -18 q 122 347 122 167 l 122 714 l 108 868 l 281 881 z "},"V":{"ha":808,"x_min":43,"x_max":765,"o":"m 231 881 l 257 707 l 407 172 l 424 172 l 567 683 l 579 875 l 765 875 l 765 854 l 721 669 l 536 125 l 513 0 l 313 -11 l 43 849 l 43 868 l 231 881 z "},"W":{"ha":1160,"x_min":43,"x_max":1117,"o":"m 231 881 l 250 689 l 319 371 l 351 168 l 368 168 l 471 681 l 497 867 l 671 875 l 785 371 l 819 168 l 835 168 l 931 681 l 940 875 l 1117 875 l 1117 853 l 1075 624 l 953 149 l 929 3 l 714 -6 l 593 597 l 578 597 l 501 188 l 482 4 l 247 -7 l 43 847 l 43 868 l 231 881 z "},"X":{"ha":801,"x_min":44,"x_max":756,"o":"m 253 881 l 296 756 l 406 543 l 415 543 l 511 735 l 550 875 l 733 875 l 733 853 l 650 686 l 504 450 l 756 22 l 756 0 l 557 0 l 514 124 l 396 360 l 385 360 l 278 136 l 233 0 l 44 0 l 44 21 l 111 151 l 297 450 l 65 847 l 65 868 l 253 881 z "},"Y":{"ha":799,"x_min":43,"x_max":754,"o":"m 229 881 l 279 710 l 411 390 l 426 390 l 539 681 l 578 875 l 754 875 l 754 854 l 689 669 l 490 243 l 490 0 l 333 0 l 333 244 l 43 849 l 43 868 l 229 881 z "},"Z":{"ha":718,"x_min":58,"x_max":660,"o":"m 640 875 l 649 772 l 244 126 l 328 126 l 644 147 l 660 132 l 644 0 l 67 0 l 58 97 l 464 747 l 381 747 l 79 726 l 67 742 l 83 875 l 640 875 z "},"a":{"ha":700,"x_min":69,"x_max":651,"o":"m 81 528 q 357 613 200 613 q 528 551 471 613 q 586 376 586 489 l 586 158 l 651 56 l 532 -21 l 469 67 q 407 22 440 42 q 338 -11 374 3 q 276 -15 313 -15 q 124 31 179 -15 q 69 161 69 78 q 120 284 69 236 q 265 344 171 332 l 435 368 l 439 382 l 439 403 q 412 467 439 444 q 340 489 385 489 q 303 488 321 489 q 272 483 286 486 q 217 453 244 469 q 165 414 190 436 l 81 528 m 435 257 l 306 249 q 238 231 267 246 q 222 176 222 207 q 243 124 222 143 q 306 106 264 106 q 435 171 388 106 l 435 257 z "},"b":{"ha":736,"x_min":82,"x_max":665,"o":"m 251 544 q 310 583 281 567 q 371 608 339 599 q 417 613 392 613 q 517 593 471 613 q 595 535 563 574 q 647 438 628 496 q 665 303 665 379 q 643 171 665 229 q 581 71 621 113 q 484 7 540 29 q 361 -15 428 -15 q 281 -9 317 -15 q 210 13 246 -3 l 103 -11 l 82 3 l 99 146 l 99 768 l 86 904 l 251 917 l 251 544 m 251 143 q 358 110 303 110 q 472 143 431 110 q 511 303 511 204 q 477 446 511 403 q 388 489 443 489 q 251 407 301 489 l 251 143 z "},"c":{"ha":657,"x_min":71,"x_max":600,"o":"m 489 422 q 445 457 468 442 q 394 485 422 472 q 376 487 386 486 q 357 488 367 488 q 261 454 303 488 q 233 385 242 422 q 225 301 225 349 q 267 159 225 207 q 378 111 310 111 q 533 172 460 111 l 600 61 q 490 3 549 21 q 365 -15 432 -15 q 241 7 296 -15 q 149 69 186 29 q 91 167 111 110 q 71 296 71 225 q 94 430 71 371 q 157 530 117 489 q 253 592 197 571 q 374 613 308 613 q 593 540 506 613 l 489 422 z "},"d":{"ha":735,"x_min":71,"x_max":690,"o":"m 638 917 l 638 163 l 690 47 l 554 -17 l 514 58 q 456 19 488 39 q 392 -11 425 0 q 331 -15 363 -15 q 139 66 207 -15 q 71 294 71 147 q 91 430 71 371 q 148 529 111 489 q 235 591 185 569 q 347 613 286 613 q 426 603 392 613 q 485 579 461 594 l 485 768 l 474 904 l 638 917 m 485 447 q 361 489 432 489 q 260 453 303 489 q 233 383 242 424 q 225 293 225 342 q 350 110 225 110 q 424 128 389 110 q 485 186 458 147 l 485 447 z "},"e":{"ha":694,"x_min":71,"x_max":624,"o":"m 343 250 l 225 254 q 267 146 226 183 q 374 108 307 108 q 468 122 424 108 q 557 167 513 136 l 617 57 q 369 -15 510 -15 q 149 68 226 -15 q 71 299 71 151 q 92 427 71 369 q 153 526 114 485 q 247 590 193 568 q 365 613 300 613 q 474 592 426 613 q 556 533 522 571 q 606 441 589 494 q 624 321 624 388 l 624 264 l 343 250 m 471 371 q 440 458 471 425 q 356 490 408 490 q 254 457 293 490 q 225 356 225 415 l 471 371 z "},"f":{"ha":440,"x_min":42,"x_max":417,"o":"m 125 599 l 125 688 q 143 783 125 738 q 196 863 161 828 q 281 919 231 899 q 396 940 331 940 l 417 797 q 288 774 338 797 q 277 747 281 761 q 274 717 274 732 l 274 676 l 278 597 l 413 597 l 403 465 l 272 474 l 282 11 l 251 -251 l 125 -244 l 125 464 l 42 485 l 42 586 l 125 599 z "},"g":{"ha":697,"x_min":49,"x_max":663,"o":"m 335 613 q 418 600 381 613 l 653 619 l 663 606 l 643 494 l 547 501 q 582 393 582 447 q 565 308 582 347 q 515 238 547 268 q 436 191 482 208 q 335 174 390 174 q 257 182 292 174 q 247 158 250 171 q 244 135 244 146 q 258 93 244 108 q 301 78 271 78 l 408 78 q 578 28 521 78 q 635 -107 635 -21 q 612 -203 635 -158 q 546 -283 589 -249 q 442 -336 503 -317 q 306 -356 381 -356 q 116 -298 183 -356 q 49 -146 49 -240 q 57 -83 49 -115 q 132 18 88 -26 q 106 106 106 56 q 110 151 106 128 q 164 225 129 190 q 89 393 89 285 q 106 478 89 439 q 156 548 124 518 q 234 595 189 578 q 335 613 279 613 m 225 -33 q 190 -128 190 -67 q 225 -203 190 -176 q 319 -231 260 -231 q 460 -203 401 -231 q 484 -167 476 -187 q 492 -124 492 -146 q 394 -43 492 -43 l 267 -43 l 225 -33 m 254 474 q 229 393 229 442 q 256 321 229 349 q 335 293 283 293 q 417 313 382 293 q 442 393 442 342 q 415 465 442 438 q 335 493 388 493 q 292 488 314 493 q 254 474 271 483 z "},"h":{"ha":729,"x_min":86,"x_max":639,"o":"m 251 915 l 251 536 q 301 574 275 556 q 356 606 328 592 q 414 613 386 613 q 517 596 474 613 q 587 549 560 579 q 626 475 614 518 q 639 381 639 432 l 639 0 l 485 0 l 485 376 q 393 482 485 482 q 317 460 356 482 q 251 394 279 438 l 251 0 l 99 0 l 99 769 l 86 904 l 251 915 z "},"i":{"ha":333,"x_min":78,"x_max":250,"o":"m 243 604 l 243 0 l 90 0 l 90 461 l 78 592 l 243 604 m 250 910 l 250 744 l 79 751 l 86 896 l 250 910 z "},"j":{"ha":338,"x_min":-67,"x_max":254,"o":"m 247 604 l 247 31 q 186 -180 247 -99 q -6 -303 125 -261 l -67 -165 q 1 -149 -26 -158 q 53 -128 29 -139 q 86 -74 74 -104 q 99 -11 99 -43 l 99 19 l 94 93 l 94 461 l 82 592 l 247 604 m 254 910 l 254 744 l 83 751 l 90 896 l 254 910 z "},"k":{"ha":707,"x_min":86,"x_max":669,"o":"m 251 915 l 251 363 q 290 381 271 369 q 329 407 310 392 q 395 494 365 450 q 449 601 425 539 l 625 594 l 628 581 q 535 447 582 506 q 429 333 488 388 q 478 254 453 293 q 532 177 503 215 q 595 99 561 139 q 669 15 629 58 l 665 0 l 490 -7 q 397 120 438 57 q 318 261 356 183 q 283 245 300 253 q 251 232 267 238 l 251 0 l 99 0 l 99 769 l 86 904 l 251 915 z "},"l":{"ha":389,"x_min":92,"x_max":361,"o":"m 257 325 l 253 243 l 253 192 q 310 125 253 125 q 346 131 329 125 l 361 6 q 265 -10 319 -10 q 142 42 181 -10 q 104 194 104 94 l 104 769 l 92 904 l 257 915 l 257 325 z "},"m":{"ha":1093,"x_min":53,"x_max":1003,"o":"m 199 613 l 239 525 q 356 606 292 575 q 414 613 386 613 q 517 591 475 613 q 592 526 560 569 q 729 607 653 579 q 756 611 742 610 q 785 613 769 613 q 950 551 897 613 q 1003 381 1003 490 l 1003 0 l 850 0 l 850 383 q 832 457 850 432 q 767 482 814 482 q 629 411 692 482 q 633 380 632 396 q 633 349 633 364 l 633 0 l 481 0 l 481 371 q 396 483 481 483 q 323 460 360 483 q 258 394 286 438 l 258 0 l 106 0 l 106 429 l 53 549 l 199 613 z "},"n":{"ha":740,"x_min":53,"x_max":650,"o":"m 199 613 l 239 525 q 364 607 294 575 q 393 611 378 610 q 424 613 408 613 q 593 549 536 613 q 650 381 650 485 l 650 0 l 494 0 l 494 376 q 470 455 494 428 q 403 482 446 482 q 325 460 363 482 q 260 394 288 438 l 260 0 l 106 0 l 106 429 l 53 549 l 199 613 z "},"o":{"ha":733,"x_min":71,"x_max":663,"o":"m 367 613 q 488 590 433 613 q 581 527 543 568 q 641 428 619 486 q 663 299 663 371 q 640 172 663 229 q 579 72 618 114 q 485 8 540 31 q 367 -15 431 -15 q 245 7 300 -15 q 151 69 190 29 q 92 168 113 110 q 71 299 71 226 q 93 424 71 367 q 154 524 115 482 q 247 589 193 565 q 367 613 301 613 m 367 110 q 420 117 394 110 q 469 142 446 124 q 499 214 490 175 q 508 299 508 253 q 497 385 508 350 q 465 443 485 421 q 419 476 444 465 q 367 486 393 486 q 312 479 338 486 q 263 454 286 472 q 233 382 242 421 q 225 299 225 343 q 237 211 225 247 q 269 153 249 175 q 314 120 289 131 q 367 110 339 110 z "},"p":{"ha":743,"x_min":53,"x_max":672,"o":"m 239 526 q 306 574 272 554 q 378 608 339 593 q 435 613 407 613 q 608 533 544 613 q 672 304 672 453 q 651 169 672 228 q 592 69 629 110 q 503 6 554 28 q 393 -15 451 -15 q 258 14 321 -15 l 258 -153 l 272 -307 l 106 -307 l 106 429 l 53 549 l 199 613 l 239 526 m 258 147 q 317 117 286 128 q 385 107 349 107 q 434 115 411 107 q 476 133 457 122 q 518 303 518 197 q 488 443 518 399 q 399 488 457 488 q 319 463 354 488 q 258 399 283 439 l 258 147 z "},"q":{"ha":732,"x_min":74,"x_max":647,"o":"m 632 614 l 632 -121 l 647 -307 l 479 -307 l 479 44 q 371 -11 431 11 q 315 -15 346 -15 q 140 63 206 -15 q 74 294 74 142 q 96 424 74 365 q 158 525 118 483 q 251 590 197 567 q 371 613 306 613 q 445 607 411 613 q 507 590 479 601 l 610 626 l 632 614 m 479 463 q 430 481 457 474 q 372 488 403 488 q 261 450 308 488 q 228 294 228 393 q 351 108 228 108 q 421 128 388 108 q 479 189 454 147 l 479 463 z "},"r":{"ha":558,"x_min":56,"x_max":522,"o":"m 200 613 l 239 524 q 361 608 294 572 q 413 613 383 613 q 469 606 440 613 q 522 585 497 600 l 471 433 q 423 458 447 449 q 369 467 399 467 q 308 447 335 467 q 260 390 282 426 l 260 0 l 106 0 l 106 432 l 56 551 l 200 613 z "},"s":{"ha":642,"x_min":60,"x_max":572,"o":"m 132 176 q 196 134 163 151 q 261 106 229 117 q 284 103 272 104 q 308 103 296 103 q 371 108 344 103 q 417 122 397 113 q 433 169 433 140 q 429 194 433 183 q 411 215 425 206 q 373 230 397 224 q 310 240 349 236 q 83 425 83 265 q 145 560 83 507 q 329 613 207 613 q 457 596 399 613 q 565 550 515 579 l 492 433 q 381 490 440 469 q 329 494 357 494 q 238 478 275 494 q 227 459 231 469 q 224 438 224 449 q 247 389 224 406 q 333 365 271 372 q 510 307 449 351 q 572 176 572 263 q 506 36 572 88 q 315 -15 440 -15 q 178 0 239 -15 q 60 51 117 15 l 132 176 z "},"t":{"ha":508,"x_min":49,"x_max":469,"o":"m 279 597 l 436 597 l 428 468 l 282 478 l 282 208 q 299 136 282 158 q 347 114 315 114 q 433 144 394 114 l 469 32 q 400 -4 438 7 q 318 -15 363 -15 q 174 44 218 -15 q 129 200 129 104 l 129 467 l 49 486 l 49 581 q 92 596 72 588 q 129 614 111 604 q 157 681 144 644 q 176 754 169 718 l 288 747 l 279 597 z "},"u":{"ha":728,"x_min":78,"x_max":675,"o":"m 244 604 l 244 219 q 269 141 244 168 q 336 114 293 114 q 469 203 414 114 l 469 461 l 457 592 l 624 604 l 624 168 l 675 46 l 531 -15 l 490 72 q 376 -11 438 21 q 317 -15 347 -15 q 147 48 204 -15 q 90 215 90 111 l 90 461 l 78 592 l 244 604 z "},"v":{"ha":661,"x_min":36,"x_max":625,"o":"m 199 604 l 336 131 l 343 131 l 399 290 q 439 440 425 365 q 458 597 453 515 l 625 597 l 625 581 q 585 424 610 501 q 526 271 560 347 l 411 3 l 254 -4 l 36 576 l 36 592 l 199 604 z "},"w":{"ha":950,"x_min":36,"x_max":914,"o":"m 194 604 l 301 156 l 310 156 l 357 313 q 386 444 375 374 q 404 592 397 515 l 547 599 l 661 156 l 669 156 l 717 339 q 744 475 736 411 q 754 597 751 539 l 914 597 l 914 581 q 877 428 899 506 q 829 274 856 350 l 736 1 l 576 -6 l 486 351 l 478 351 l 382 1 l 214 -6 l 36 576 l 36 592 l 194 604 z "},"x":{"ha":686,"x_min":42,"x_max":644,"o":"m 346 385 l 354 385 l 394 447 q 428 517 414 478 q 449 597 442 557 l 619 597 l 619 581 q 568 475 601 528 q 493 372 535 422 l 435 304 l 644 15 l 644 0 l 465 0 l 339 228 l 331 228 l 274 135 q 242 69 254 104 q 222 0 229 35 l 42 0 l 42 15 q 93 107 64 64 q 158 194 122 150 l 250 308 l 58 576 l 58 592 l 231 604 l 346 385 z "},"y":{"ha":672,"x_min":36,"x_max":636,"o":"m 200 604 l 349 121 l 358 121 l 418 307 q 452 452 440 378 q 469 597 464 526 l 636 597 l 636 582 q 601 436 624 510 q 547 289 578 363 l 367 -149 l 356 -333 l 207 -326 l 197 -314 q 222 -172 203 -242 q 272 -36 240 -103 l 36 576 l 36 592 l 200 604 z "},"z":{"ha":619,"x_min":60,"x_max":558,"o":"m 543 597 l 549 514 l 246 115 l 299 115 l 547 133 l 558 122 l 542 0 l 65 0 l 60 81 l 363 482 l 306 482 l 79 465 l 68 476 l 83 597 l 543 597 z "},"А":{"ha":853,"x_min":46,"x_max":806,"o":"m 521 883 l 806 21 l 806 0 l 626 0 l 604 133 l 579 214 l 269 219 l 246 139 l 235 0 l 46 0 l 46 21 l 297 743 l 308 868 l 521 883 m 306 340 l 540 350 l 433 711 l 415 711 l 306 340 z "},"Б":{"ha":801,"x_min":108,"x_max":732,"o":"m 382 875 l 675 882 l 656 731 l 399 743 l 279 743 l 279 518 q 338 542 307 531 q 396 560 368 553 q 446 564 421 564 q 561 547 508 564 q 651 497 614 531 q 710 413 689 464 q 732 294 732 363 q 708 169 732 224 q 643 76 685 114 q 544 19 601 39 q 418 0 486 0 l 122 0 l 122 722 l 108 875 l 382 875 m 410 131 q 476 136 444 131 q 532 156 507 142 q 566 214 556 179 q 576 292 576 249 q 537 400 576 364 q 428 436 497 436 q 351 427 388 436 q 279 397 314 418 l 279 131 l 410 131 z "},"В":{"ha":814,"x_min":108,"x_max":739,"o":"m 401 875 q 624 810 553 875 q 696 642 696 746 q 674 551 696 590 q 613 486 653 511 l 613 476 q 706 395 674 446 q 739 271 739 344 q 714 153 739 204 q 645 69 689 103 q 542 17 601 35 q 413 0 482 0 l 122 0 l 122 719 l 108 875 l 401 875 m 279 126 l 418 126 q 536 150 490 126 q 581 264 581 192 q 422 397 581 397 l 279 397 l 279 126 m 279 515 l 404 515 q 501 528 460 515 q 539 631 539 561 q 505 717 539 686 q 393 749 471 749 l 279 749 l 279 515 z "},"Г":{"ha":738,"x_min":108,"x_max":675,"o":"m 371 875 l 675 881 l 654 731 l 401 746 l 281 746 l 281 0 l 122 0 l 122 719 l 108 875 l 371 875 z "},"Д":{"ha":929,"x_min":38,"x_max":885,"o":"m 778 875 l 778 131 l 869 139 l 885 122 l 871 -207 l 739 -207 l 728 0 l 196 0 l 196 -207 l 63 -207 l 38 60 l 38 129 l 72 129 q 133 163 107 129 q 178 259 160 197 q 208 409 197 321 q 225 606 219 497 l 231 719 l 215 875 l 778 875 m 381 744 l 374 610 q 360 423 368 503 q 341 285 351 343 q 317 188 331 226 q 286 129 303 150 l 621 129 l 621 744 l 381 744 z "},"Е":{"ha":771,"x_min":108,"x_max":689,"o":"m 678 875 l 661 735 l 396 747 l 281 747 l 281 511 l 375 511 l 604 524 l 590 383 l 281 390 l 281 128 l 399 128 l 689 143 l 682 0 l 122 0 l 122 719 l 108 875 l 678 875 z "},"З":{"ha":771,"x_min":50,"x_max":696,"o":"m 350 518 l 378 518 q 416 521 399 518 q 453 531 433 524 q 493 636 493 568 q 460 727 493 692 q 353 763 428 763 q 326 762 340 763 q 300 758 311 761 q 238 724 267 743 q 178 681 208 706 l 83 799 q 215 870 146 847 q 360 893 285 893 q 488 874 433 893 q 579 822 543 856 q 633 744 615 789 q 650 646 650 699 q 629 555 650 597 q 571 485 608 513 l 571 475 q 663 394 631 446 q 696 271 696 342 q 671 147 696 201 q 601 56 646 93 q 494 1 556 19 q 358 -18 432 -18 q 192 9 267 -18 q 50 97 117 36 l 135 207 q 236 136 183 161 q 349 111 289 111 q 430 119 393 111 q 494 140 467 126 q 526 192 515 161 q 536 257 536 222 q 501 363 536 326 q 386 399 465 399 l 358 399 l 260 386 l 236 515 l 246 525 l 350 518 z "},"И":{"ha":903,"x_min":108,"x_max":779,"o":"m 278 881 l 278 517 l 269 265 l 283 265 l 622 875 l 779 875 l 779 0 l 624 0 l 624 368 l 632 603 l 618 603 l 278 -4 l 122 1 l 122 715 l 108 868 l 278 881 z "},"Й":{"ha":903,"x_min":108,"x_max":779,"o":"m 278 881 l 278 517 l 269 265 l 283 265 l 622 875 l 779 875 l 779 0 l 624 0 l 624 368 l 632 603 l 618 603 l 278 -4 l 122 1 l 122 715 l 108 868 l 278 881 m 371 1219 q 399 1138 375 1168 q 461 1108 422 1108 q 517 1125 497 1108 q 531 1206 531 1151 l 669 1224 q 608 1048 669 1106 q 451 990 547 990 q 303 1045 364 990 q 232 1193 243 1100 l 371 1219 z "},"К":{"ha":868,"x_min":108,"x_max":800,"o":"m 281 881 l 281 518 l 331 518 q 369 520 350 518 q 410 529 389 522 q 447 584 433 550 q 469 667 461 618 q 542 833 488 782 q 690 885 597 885 q 778 872 740 885 l 763 738 q 705 735 733 738 q 653 726 676 733 q 625 673 638 706 q 604 590 613 640 q 573 502 594 539 q 519 443 551 465 q 577 331 547 385 q 641 226 607 278 q 714 124 675 175 q 800 21 753 74 l 800 0 l 614 -7 q 492 178 544 81 q 397 385 439 276 l 281 389 l 281 0 l 122 0 l 122 719 l 108 868 l 281 881 z "},"Л":{"ha":914,"x_min":14,"x_max":790,"o":"m 790 875 l 790 0 l 633 0 l 633 744 l 403 744 l 396 572 q 370 274 389 390 q 308 85 351 157 q 233 13 279 36 q 121 -11 188 -11 q 14 10 57 -11 l 46 142 q 106 132 75 132 q 153 142 132 132 q 186 178 175 151 q 210 255 200 210 q 226 353 219 300 q 236 463 232 406 q 244 575 240 519 l 253 719 l 243 875 l 790 875 z "},"М":{"ha":1074,"x_min":69,"x_max":999,"o":"m 350 881 l 529 210 l 546 210 l 726 875 l 939 875 l 999 0 l 829 0 l 829 175 l 808 651 l 790 651 l 749 471 l 608 0 l 450 0 l 308 478 l 272 651 l 256 651 l 240 231 l 240 0 l 69 0 l 129 704 l 129 868 l 350 881 z "},"Н":{"ha":897,"x_min":108,"x_max":775,"o":"m 281 881 l 281 507 l 617 518 l 617 719 l 601 868 l 775 881 l 775 0 l 617 0 l 617 374 l 281 381 l 281 0 l 122 0 l 122 719 l 108 868 l 281 881 z "},"О":{"ha":897,"x_min":85,"x_max":813,"o":"m 449 893 q 599 863 532 893 q 714 776 667 833 q 787 633 761 718 q 813 438 813 547 q 787 244 813 329 q 713 101 761 160 q 598 13 665 43 q 449 -18 531 -18 q 298 12 365 -18 q 183 99 231 42 q 110 242 136 157 q 85 438 85 326 q 111 626 85 542 q 185 769 138 710 q 300 860 233 828 q 449 893 367 893 m 313 713 q 263 591 281 660 q 244 438 244 522 q 260 290 244 351 q 303 190 275 229 q 368 133 331 151 q 451 115 406 115 q 522 126 488 115 q 583 160 557 138 q 635 281 617 213 q 653 438 653 350 q 638 585 653 524 q 594 685 622 646 q 529 742 567 724 q 446 760 492 760 q 374 748 408 760 q 313 713 340 736 z "},"П":{"ha":885,"x_min":108,"x_max":761,"o":"m 761 875 l 761 0 l 604 0 l 604 743 l 281 743 l 281 0 l 122 0 l 122 724 l 108 875 l 761 875 z "},"Р":{"ha":793,"x_min":108,"x_max":728,"o":"m 410 875 q 534 857 476 875 q 635 802 592 839 q 703 711 678 765 q 728 585 728 657 q 706 461 728 517 q 646 367 685 406 q 553 306 607 328 q 436 285 500 285 q 352 292 392 285 q 281 313 313 299 l 281 0 l 122 0 l 122 711 l 108 875 l 410 875 m 281 433 q 345 420 313 425 q 414 415 378 415 q 481 424 450 415 q 533 447 513 432 q 568 583 568 500 q 524 705 568 665 q 400 744 481 744 l 281 744 l 281 433 z "},"С":{"ha":815,"x_min":85,"x_max":744,"o":"m 619 658 q 558 710 592 686 q 486 754 524 735 q 440 758 469 758 q 373 747 408 758 q 310 713 338 735 q 261 594 278 660 q 244 438 244 528 q 260 294 244 354 q 304 194 276 233 q 370 135 332 154 q 454 117 408 117 q 565 142 513 117 q 657 214 617 167 l 744 107 q 610 13 686 43 q 446 -18 533 -18 q 288 15 356 -18 q 174 106 219 47 q 107 249 129 165 q 85 438 85 333 q 111 628 85 543 q 186 772 138 713 q 303 862 235 831 q 453 893 371 893 q 603 868 535 893 q 721 797 672 843 l 619 658 z "},"Т":{"ha":736,"x_min":39,"x_max":696,"o":"m 275 875 l 461 875 l 696 883 l 689 731 l 493 743 l 444 743 l 444 0 l 286 0 l 286 743 l 239 743 l 39 732 l 50 882 l 275 875 z "},"У":{"ha":788,"x_min":43,"x_max":744,"o":"m 231 881 l 281 707 l 411 381 l 425 381 l 535 692 l 569 875 l 744 875 l 744 854 l 679 667 l 504 263 l 472 153 q 397 27 449 72 q 263 -18 346 -18 q 206 -12 235 -18 q 156 3 176 -7 l 176 133 q 246 121 214 121 q 310 132 279 121 q 343 215 329 163 l 43 849 l 43 869 l 231 881 z "},"Ф":{"ha":1038,"x_min":68,"x_max":969,"o":"m 599 908 l 599 736 q 646 749 619 744 q 697 754 672 754 q 896 674 822 754 q 969 447 969 594 q 948 314 969 372 q 889 216 926 256 q 801 156 851 176 q 693 136 750 136 q 643 140 668 136 q 599 150 618 143 l 599 0 l 442 0 l 442 154 q 394 140 419 144 q 343 136 368 136 q 142 215 217 136 q 68 440 68 293 q 90 574 68 515 q 149 673 111 633 q 237 733 186 713 q 346 754 288 754 q 442 740 401 754 l 442 763 l 426 896 l 599 908 m 364 261 q 442 278 406 261 l 442 614 q 363 628 404 628 q 310 622 336 628 q 264 603 285 615 q 225 442 225 542 q 259 308 225 354 q 364 261 293 261 m 676 629 q 599 614 633 629 l 599 276 q 676 263 636 263 q 746 277 719 263 q 787 317 772 292 q 806 375 801 342 q 811 447 811 408 q 778 582 811 535 q 676 629 744 629 z "},"Х":{"ha":801,"x_min":44,"x_max":756,"o":"m 253 881 l 296 756 l 406 543 l 415 543 l 511 735 l 550 875 l 733 875 l 733 853 l 650 686 l 504 450 l 756 22 l 756 0 l 557 0 l 514 124 l 396 360 l 385 360 l 278 136 l 233 0 l 44 0 l 44 21 l 111 151 l 297 450 l 65 847 l 65 868 l 253 881 z "},"Ц":{"ha":908,"x_min":108,"x_max":860,"o":"m 281 881 l 281 129 l 589 129 l 589 719 l 575 868 l 747 881 l 747 131 l 843 139 l 860 122 l 844 -207 l 713 -207 l 700 0 l 122 0 l 122 719 l 108 868 l 281 881 z "},"Ч":{"ha":851,"x_min":86,"x_max":728,"o":"m 258 881 l 258 589 q 299 462 258 506 q 418 418 339 418 q 501 432 463 418 q 569 469 540 446 l 569 724 l 556 868 l 728 881 l 728 0 l 569 0 l 569 342 q 435 289 508 308 q 415 287 425 288 q 393 286 404 286 q 174 364 246 286 q 101 576 101 442 l 101 724 l 86 868 l 258 881 z "},"Ш":{"ha":1242,"x_min":108,"x_max":1119,"o":"m 281 881 l 281 129 l 542 129 l 542 719 l 528 868 l 700 881 l 700 129 l 961 129 l 961 719 l 947 868 l 1119 881 l 1119 0 l 122 0 l 122 719 l 108 868 l 281 881 z "},"Щ":{"ha":1279,"x_min":108,"x_max":1231,"o":"m 281 881 l 281 129 l 542 129 l 542 719 l 528 868 l 700 881 l 700 129 l 961 129 l 961 719 l 947 868 l 1119 881 l 1119 131 l 1215 139 l 1231 122 l 1217 -207 l 1085 -207 l 1072 0 l 122 0 l 122 719 l 108 868 l 281 881 z "},"Ъ":{"ha":871,"x_min":25,"x_max":806,"o":"m 229 875 l 357 875 l 357 536 q 414 563 385 551 q 475 583 443 575 q 490 585 482 585 q 507 586 499 586 q 724 514 643 586 q 806 300 806 442 q 781 173 806 229 q 715 78 757 117 q 617 20 674 40 q 493 0 560 0 l 200 0 l 200 744 l 161 746 l 25 738 l 40 881 l 229 875 m 481 128 q 545 133 515 128 q 601 153 575 139 q 633 217 622 179 q 644 294 644 256 q 606 415 644 374 q 493 457 568 457 q 357 417 421 457 l 357 128 l 481 128 z "},"Ы":{"ha":1128,"x_min":108,"x_max":1004,"o":"m 281 881 l 281 536 q 401 583 336 565 q 417 585 408 585 q 433 586 426 586 q 556 568 501 586 q 650 514 611 550 q 710 424 689 478 q 732 300 732 371 q 708 173 732 229 q 642 78 683 117 q 543 20 600 40 q 419 0 486 0 l 122 0 l 122 719 l 108 868 l 281 881 m 407 128 q 528 153 475 128 q 571 294 571 206 q 533 415 571 374 q 419 457 494 457 q 281 417 342 457 l 281 128 l 407 128 m 1004 881 l 1004 0 l 846 0 l 846 724 l 831 868 l 1004 881 z "},"Ь":{"ha":797,"x_min":108,"x_max":732,"o":"m 281 881 l 281 536 q 401 583 336 565 q 417 585 408 585 q 433 586 426 586 q 556 568 501 586 q 650 514 611 550 q 710 424 689 478 q 732 300 732 371 q 708 173 732 229 q 642 78 683 117 q 543 20 600 40 q 419 0 486 0 l 122 0 l 122 719 l 108 868 l 281 881 m 407 128 q 528 153 475 128 q 571 294 571 207 q 533 415 571 374 q 419 457 494 457 q 281 417 342 457 l 281 128 l 407 128 z "},"Э":{"ha":783,"x_min":56,"x_max":699,"o":"m 71 806 q 338 893 183 893 q 492 862 425 893 q 606 772 560 831 q 675 631 651 714 q 699 447 699 549 q 675 258 699 344 q 604 111 651 172 q 485 16 557 50 q 319 -18 414 -18 q 174 6 236 -18 q 56 82 111 29 l 139 194 q 229 132 185 150 q 325 114 274 114 q 471 158 407 114 q 515 258 499 203 q 536 388 531 314 l 479 388 l 271 374 l 254 507 l 265 519 l 482 507 l 536 507 q 474 695 526 629 q 329 761 421 761 q 282 757 303 761 q 217 715 249 739 q 153 664 185 692 l 71 806 z "},"Ю":{"ha":1181,"x_min":107,"x_max":1096,"o":"m 281 881 l 281 501 l 408 513 q 444 670 417 600 q 514 790 471 740 q 616 867 557 840 q 749 893 675 893 q 1004 779 913 893 q 1096 438 1096 665 q 1072 246 1096 331 q 1003 103 1047 161 q 894 13 958 44 q 749 -18 829 -18 q 507 83 593 -18 q 407 371 421 183 l 281 371 l 281 0 l 122 0 l 122 724 l 107 868 l 281 881 m 624 719 q 563 438 563 610 q 612 192 563 274 q 753 111 661 111 q 869 153 817 111 q 938 438 938 265 q 924 587 938 525 q 886 688 911 649 q 826 744 861 726 q 744 763 790 763 q 624 719 672 763 z "},"Я":{"ha":839,"x_min":51,"x_max":715,"o":"m 715 0 l 558 0 l 558 336 q 494 313 528 322 q 422 296 461 303 q 372 165 401 225 q 303 58 343 104 q 147 -11 242 -11 q 94 -6 118 -11 q 51 8 71 -1 l 75 150 q 106 141 90 143 q 136 139 121 139 q 185 146 160 139 q 240 219 215 178 q 283 310 264 260 q 153 403 201 336 q 106 576 106 469 q 129 703 106 647 q 195 797 153 758 q 295 855 238 835 q 419 875 353 875 l 715 875 l 715 0 m 432 746 q 310 719 365 746 q 276 658 286 692 q 265 581 265 624 q 304 464 265 503 q 417 425 343 425 q 558 467 497 425 l 558 746 l 432 746 z "},"а":{"ha":693,"x_min":69,"x_max":651,"o":"m 81 528 q 357 613 200 613 q 528 551 471 613 q 586 376 586 489 l 586 158 l 651 56 l 532 -21 l 469 67 q 407 22 440 42 q 338 -11 374 3 q 276 -15 313 -15 q 124 31 179 -15 q 69 161 69 78 q 120 284 69 236 q 265 344 171 332 l 435 368 l 439 382 l 439 403 q 412 467 439 444 q 340 489 385 489 q 303 488 321 489 q 272 483 286 486 q 217 453 244 469 q 165 414 190 436 l 81 528 m 435 257 l 306 249 q 238 231 267 246 q 222 176 222 207 q 243 124 222 143 q 306 106 264 106 q 435 171 388 106 l 435 257 z "},"б":{"ha":735,"x_min":71,"x_max":672,"o":"m 672 883 l 585 747 l 388 708 q 308 681 340 699 q 254 639 276 664 q 231 572 239 604 q 221 507 222 540 l 231 507 q 284 541 256 526 q 344 567 313 556 q 393 572 365 572 q 592 499 521 572 q 664 283 664 426 q 640 152 664 208 q 576 58 617 96 q 483 3 536 21 q 369 -15 429 -15 q 71 376 71 -15 q 141 689 71 568 q 364 842 211 810 l 478 865 l 544 960 l 672 883 m 224 293 q 262 156 224 206 q 371 107 300 107 q 426 115 403 107 q 474 139 450 122 q 501 203 492 167 q 510 290 510 240 q 476 407 510 364 q 367 450 442 450 q 302 438 335 450 q 246 404 269 425 q 224 293 224 354 z "},"в":{"ha":667,"x_min":83,"x_max":607,"o":"m 519 317 q 607 181 607 282 q 589 101 607 135 q 540 44 571 67 q 469 11 510 22 q 383 0 429 0 l 94 0 l 94 458 l 83 597 l 371 597 q 451 586 414 597 q 517 554 489 575 q 560 503 544 533 q 576 435 576 474 q 519 326 576 360 l 519 317 m 244 357 l 350 357 q 407 364 379 357 q 428 417 428 383 q 406 468 428 453 q 344 483 385 483 l 244 483 l 244 357 m 244 113 l 367 113 q 436 125 407 113 q 451 150 447 136 q 456 179 456 164 q 363 250 456 250 l 244 250 l 244 113 z "},"г":{"ha":569,"x_min":83,"x_max":529,"o":"m 385 597 l 529 603 l 518 465 l 342 479 l 247 479 l 247 0 l 94 0 l 94 457 l 83 597 l 385 597 z "},"д":{"ha":760,"x_min":36,"x_max":718,"o":"m 633 597 l 633 118 l 707 124 l 718 113 l 718 53 l 707 -153 l 583 -153 l 574 0 l 185 0 l 185 -153 l 57 -153 l 36 65 l 36 118 l 72 118 q 117 140 96 118 q 153 201 138 163 q 177 290 168 239 q 186 400 186 342 l 186 472 l 174 597 l 633 597 m 321 478 l 321 399 q 303 240 321 317 q 256 118 286 163 l 485 118 l 485 478 l 321 478 z "},"е":{"ha":694,"x_min":71,"x_max":624,"o":"m 343 250 l 225 254 q 267 146 226 183 q 374 108 307 108 q 468 122 424 108 q 557 167 513 136 l 617 57 q 369 -15 510 -15 q 149 68 226 -15 q 71 299 71 151 q 92 427 71 369 q 153 526 114 485 q 247 590 193 568 q 365 613 300 613 q 474 592 426 613 q 556 533 522 571 q 606 441 589 494 q 624 321 624 388 l 624 264 l 343 250 m 471 371 q 440 458 471 425 q 356 490 408 490 q 254 457 293 490 q 225 356 225 415 l 471 371 z "},"з":{"ha":624,"x_min":39,"x_max":565,"o":"m 315 356 q 369 364 346 356 q 386 419 386 385 q 364 476 386 457 q 301 496 342 496 q 243 489 274 496 q 189 463 215 478 q 135 426 163 447 l 65 553 q 314 613 172 613 q 402 599 361 613 q 473 563 443 586 q 519 508 503 540 q 536 436 536 475 q 521 370 536 399 q 479 326 506 342 l 479 317 q 565 179 565 281 q 546 99 565 135 q 492 38 526 63 q 410 -1 458 13 q 303 -15 361 -15 q 160 2 224 -15 q 39 65 97 19 l 108 172 q 204 117 156 133 q 300 100 253 100 q 393 115 360 100 q 414 179 414 138 q 321 251 414 251 l 218 242 l 203 354 l 208 363 l 315 356 z "},"и":{"ha":732,"x_min":88,"x_max":632,"o":"m 249 604 l 249 418 l 239 224 l 249 224 l 507 599 l 632 596 l 632 0 l 483 0 l 483 168 l 493 357 l 483 357 l 228 -7 l 99 0 l 99 449 l 88 592 l 249 604 z "},"й":{"ha":733,"x_min":88,"x_max":632,"o":"m 249 604 l 249 418 l 239 224 l 249 224 l 507 599 l 632 596 l 632 0 l 483 0 l 483 168 l 493 357 l 483 357 l 228 -7 l 99 0 l 99 449 l 88 592 l 249 604 m 293 944 q 371 838 303 838 q 425 853 403 838 q 440 935 440 886 l 569 951 q 554 851 569 893 q 512 781 539 808 q 447 740 485 753 q 364 726 408 726 q 228 778 282 726 q 163 921 174 829 l 293 944 z "},"к":{"ha":688,"x_min":85,"x_max":654,"o":"m 249 604 l 249 368 l 274 368 q 314 371 294 368 q 349 381 333 374 q 386 456 375 407 q 449 571 403 535 q 560 607 496 607 q 636 592 603 607 l 622 471 q 576 469 597 471 q 535 460 554 467 q 506 394 515 429 q 439 301 481 329 q 531 158 479 226 q 654 14 583 89 l 651 0 l 486 -6 q 325 256 390 107 l 249 256 l 249 0 l 96 0 l 96 444 l 85 592 l 249 604 z "},"л":{"ha":767,"x_min":26,"x_max":661,"o":"m 661 597 l 661 0 l 510 0 l 510 478 l 351 478 l 347 401 q 317 167 339 253 q 256 38 296 82 q 128 -14 211 -14 q 26 7 65 -14 l 58 128 q 114 118 86 118 q 176 177 153 118 q 208 369 199 236 l 215 461 l 201 597 l 661 597 z "},"м":{"ha":882,"x_min":63,"x_max":817,"o":"m 313 601 l 432 179 l 443 179 l 533 506 l 549 597 l 746 597 l 817 0 l 656 0 l 653 138 l 632 419 l 621 419 l 588 290 l 499 7 l 367 -1 l 278 271 l 240 419 l 229 419 l 208 161 l 208 0 l 63 0 l 75 139 l 122 460 l 108 592 l 313 601 z "},"н":{"ha":735,"x_min":86,"x_max":636,"o":"m 636 0 l 485 0 l 485 239 l 250 243 l 250 0 l 99 0 l 99 467 l 86 592 l 250 604 l 250 353 l 485 363 l 485 467 l 472 592 l 636 604 l 636 0 z "},"о":{"ha":733,"x_min":71,"x_max":663,"o":"m 367 613 q 488 590 433 613 q 581 527 543 568 q 641 428 619 486 q 663 299 663 371 q 640 172 663 229 q 579 72 618 114 q 485 8 540 31 q 367 -15 431 -15 q 245 7 300 -15 q 151 69 190 29 q 92 168 113 110 q 71 299 71 226 q 93 424 71 367 q 154 524 115 482 q 247 589 193 565 q 367 613 301 613 m 367 110 q 420 117 394 110 q 469 142 446 124 q 499 214 490 175 q 508 299 508 253 q 497 385 508 350 q 465 443 485 421 q 419 476 444 465 q 367 486 393 486 q 312 479 338 486 q 263 454 286 472 q 233 382 242 421 q 225 299 225 343 q 237 211 225 247 q 269 153 249 175 q 314 120 289 131 q 367 110 339 110 z "},"п":{"ha":728,"x_min":86,"x_max":628,"o":"m 628 597 l 628 0 l 476 0 l 476 478 l 250 478 l 250 0 l 99 0 l 99 458 l 86 597 l 628 597 z "},"р":{"ha":743,"x_min":53,"x_max":672,"o":"m 239 526 q 306 574 272 554 q 378 608 339 593 q 435 613 407 613 q 608 533 544 613 q 672 304 672 453 q 651 169 672 228 q 592 69 629 110 q 503 6 554 28 q 393 -15 451 -15 q 258 14 321 -15 l 258 -153 l 272 -307 l 106 -307 l 106 429 l 53 549 l 199 613 l 239 526 m 258 147 q 317 117 286 128 q 385 107 349 107 q 434 115 411 107 q 476 133 457 122 q 518 303 518 197 q 488 443 518 399 q 399 488 457 488 q 319 463 354 488 q 258 399 283 439 l 258 147 z "},"с":{"ha":657,"x_min":71,"x_max":600,"o":"m 489 422 q 445 457 468 442 q 394 485 422 472 q 376 487 386 486 q 357 488 367 488 q 261 454 303 488 q 233 385 242 422 q 225 301 225 349 q 267 159 225 207 q 378 111 310 111 q 533 172 460 111 l 600 61 q 490 3 549 21 q 365 -15 432 -15 q 241 7 296 -15 q 149 69 186 29 q 91 167 111 110 q 71 296 71 225 q 94 430 71 371 q 157 530 117 489 q 253 592 197 571 q 374 613 308 613 q 593 540 506 613 l 489 422 z "},"т":{"ha":575,"x_min":29,"x_max":546,"o":"m 242 594 l 342 594 l 546 603 l 540 467 l 357 479 l 357 0 l 208 0 l 208 479 l 29 467 l 38 603 l 242 594 z "},"у":{"ha":672,"x_min":36,"x_max":636,"o":"m 199 604 l 357 124 l 367 124 l 425 307 q 457 449 447 375 q 469 597 467 524 l 636 597 l 636 581 q 601 431 624 507 q 550 281 579 356 l 440 0 l 421 -72 q 337 -238 394 -178 q 169 -314 279 -299 l 133 -165 q 201 -156 172 -162 q 253 -143 231 -150 q 276 -99 267 -125 q 289 -40 286 -72 l 36 576 l 36 592 l 199 604 z "},"х":{"ha":686,"x_min":42,"x_max":644,"o":"m 346 385 l 354 385 l 394 447 q 428 517 414 478 q 449 597 442 557 l 619 597 l 619 581 q 568 475 601 528 q 493 372 535 422 l 435 304 l 644 15 l 644 0 l 465 0 l 339 228 l 331 228 l 274 135 q 242 69 254 104 q 222 0 229 35 l 42 0 l 42 15 q 93 107 64 64 q 158 194 122 150 l 250 308 l 58 576 l 58 592 l 231 604 l 346 385 z "},"ц":{"ha":738,"x_min":86,"x_max":696,"o":"m 250 604 l 250 118 l 460 118 l 460 463 l 449 592 l 613 604 l 613 118 l 683 124 l 696 113 l 696 47 l 685 -153 l 563 -153 l 551 0 l 99 0 l 99 465 l 86 592 l 250 604 z "},"ч":{"ha":694,"x_min":63,"x_max":596,"o":"m 226 604 l 226 400 q 319 285 226 285 q 443 356 400 285 l 443 457 l 432 592 l 596 604 l 596 0 l 443 0 l 443 217 q 392 188 419 201 q 336 165 365 174 q 288 161 311 161 q 126 223 179 161 q 74 392 74 285 l 74 457 l 63 592 l 226 604 z "},"ш":{"ha":1001,"x_min":86,"x_max":903,"o":"m 247 604 l 247 118 l 426 118 l 426 458 l 414 592 l 575 604 l 575 118 l 753 118 l 753 458 l 742 592 l 903 604 l 903 0 l 99 0 l 99 458 l 86 592 l 247 604 z "},"щ":{"ha":1029,"x_min":86,"x_max":988,"o":"m 247 604 l 247 118 l 426 118 l 426 458 l 414 592 l 575 604 l 575 118 l 753 118 l 753 458 l 742 592 l 903 604 l 903 118 l 975 124 l 988 113 l 988 47 l 976 -153 l 854 -153 l 843 0 l 99 0 l 99 458 l 86 592 l 247 604 z "},"ъ":{"ha":704,"x_min":18,"x_max":656,"o":"m 161 481 l 142 481 l 18 472 l 28 603 l 168 597 l 311 597 l 311 383 q 353 406 332 396 q 399 424 374 415 q 415 426 407 425 q 432 426 424 426 q 597 369 538 426 q 656 221 656 311 q 639 136 656 176 q 591 65 622 96 q 515 17 560 35 q 411 0 469 0 l 161 0 l 161 481 m 403 118 q 476 129 443 118 q 499 167 492 143 q 507 218 507 190 q 483 283 507 260 q 411 307 458 307 q 353 297 376 307 q 311 269 329 286 l 311 118 l 403 118 z "},"ы":{"ha":918,"x_min":86,"x_max":819,"o":"m 819 604 l 819 0 l 671 0 l 671 457 l 660 592 l 819 604 m 249 604 l 249 383 q 290 406 269 396 q 333 424 310 415 q 351 426 342 425 q 368 426 360 426 q 533 369 474 426 q 592 221 592 311 q 575 136 592 176 q 527 65 558 96 q 450 17 496 35 q 346 0 404 0 l 99 0 l 99 453 l 86 592 l 249 604 m 339 118 q 413 129 379 118 q 435 167 428 143 q 442 218 442 190 q 418 283 442 260 q 347 307 394 307 q 289 297 313 307 q 249 269 265 286 l 249 118 l 339 118 z "},"ь":{"ha":650,"x_min":86,"x_max":601,"o":"m 249 604 l 249 383 q 340 424 288 407 q 358 426 349 425 q 375 426 367 426 q 541 369 481 426 q 601 221 601 313 q 585 136 601 176 q 537 65 568 96 q 460 17 506 35 q 356 0 414 0 l 99 0 l 99 453 l 86 592 l 249 604 m 346 118 q 421 129 388 118 q 443 167 436 143 q 450 218 450 190 q 354 307 450 307 q 293 297 319 307 q 249 269 267 286 l 249 118 l 346 118 z "},"э":{"ha":656,"x_min":46,"x_max":583,"o":"m 69 551 q 172 597 118 582 q 290 613 225 613 q 405 592 351 613 q 498 533 458 572 q 560 435 538 493 q 583 299 583 376 q 562 172 583 229 q 501 72 540 114 q 408 8 463 31 q 285 -15 353 -15 q 153 3 210 -15 q 46 63 97 21 l 114 174 q 281 107 193 107 q 388 136 347 107 q 429 251 418 178 l 239 235 l 225 353 l 231 361 l 343 354 l 428 354 q 382 456 417 421 q 296 490 347 490 q 251 486 269 490 q 198 459 225 475 q 143 424 171 443 l 69 551 z "},"ю":{"ha":961,"x_min":86,"x_max":890,"o":"m 614 613 q 820 528 750 613 q 890 299 890 443 q 872 172 890 229 q 817 72 853 114 q 729 8 781 31 q 614 -15 678 -15 q 426 52 493 -15 q 343 238 358 119 l 249 242 l 249 0 l 99 0 l 99 465 l 86 592 l 249 604 l 249 358 l 344 365 q 431 544 361 476 q 614 613 501 613 m 614 110 q 707 138 671 110 q 732 208 724 167 q 740 299 740 250 q 706 444 740 401 q 614 486 672 486 q 521 457 558 486 q 494 384 503 425 q 486 299 486 343 q 521 153 486 196 q 614 110 556 110 z "},"я":{"ha":675,"x_min":40,"x_max":575,"o":"m 575 0 l 425 0 l 425 213 q 324 185 375 193 q 259 45 306 101 q 139 -11 213 -11 q 85 -8 110 -11 q 40 3 61 -4 l 67 125 q 93 118 79 121 q 119 115 107 115 q 161 121 143 115 q 185 153 174 136 q 206 194 196 171 q 108 265 143 217 q 74 381 74 314 q 90 463 74 424 q 137 533 106 503 q 214 580 168 563 q 319 597 260 597 l 575 597 l 575 0 m 328 478 q 288 476 307 478 q 253 467 268 474 q 224 382 224 439 q 319 296 224 296 q 425 324 382 296 l 425 478 l 328 478 z "},"Ё":{"ha":771,"x_min":108,"x_max":689,"o":"m 678 875 l 661 735 l 396 747 l 281 747 l 281 511 l 375 511 l 604 524 l 590 383 l 281 390 l 281 128 l 399 128 l 689 143 l 682 0 l 122 0 l 122 719 l 108 875 l 678 875 m 628 1189 l 628 1017 l 456 1022 l 463 1178 l 628 1189 m 326 1190 l 326 1017 l 154 1022 l 160 1175 l 326 1190 z "},"ё":{"ha":694,"x_min":71,"x_max":624,"o":"m 343 250 l 225 254 q 267 146 226 183 q 374 108 307 108 q 468 122 424 108 q 557 167 513 136 l 617 57 q 369 -15 510 -15 q 149 68 226 -15 q 71 299 71 151 q 92 427 71 369 q 153 526 114 485 q 247 590 193 568 q 365 613 300 613 q 474 592 426 613 q 556 533 522 571 q 606 441 589 494 q 624 321 624 388 l 624 264 l 343 250 m 471 371 q 440 458 471 425 q 356 490 408 490 q 254 457 293 490 q 225 356 225 415 l 471 371 m 571 906 l 571 744 l 408 750 l 414 896 l 571 906 m 306 907 l 306 744 l 143 751 l 149 893 l 306 907 z "},"ą":{"ha":700,"x_min":69,"x_max":665,"o":"m 81 528 q 357 613 200 613 q 528 551 471 613 q 586 376 586 489 l 586 158 l 654 54 q 608 37 631 47 q 567 13 586 26 q 551 -51 551 -12 q 578 -113 551 -90 q 658 -136 606 -136 l 665 -147 l 621 -258 q 542 -245 578 -258 q 481 -209 507 -232 q 442 -156 456 -186 q 428 -92 428 -126 q 488 42 428 -14 l 469 67 q 407 22 440 42 q 338 -11 374 3 q 276 -15 313 -15 q 124 31 179 -15 q 69 161 69 78 q 120 284 69 236 q 265 344 171 332 l 435 368 l 439 382 l 439 403 q 412 467 439 444 q 340 489 385 489 q 303 488 321 489 q 272 483 286 486 q 217 453 244 469 q 165 414 190 436 l 81 528 m 435 257 l 306 249 q 238 231 267 246 q 222 176 222 207 q 243 124 222 143 q 306 106 264 106 q 435 171 388 106 l 435 257 z "},"ę":{"ha":694,"x_min":71,"x_max":626,"o":"m 343 250 l 225 254 q 267 146 226 183 q 374 108 307 108 q 468 122 424 108 q 557 167 513 136 l 617 57 q 526 10 574 28 q 507 -60 507 -19 q 534 -119 507 -97 q 619 -140 561 -140 l 626 -153 l 582 -262 q 436 -215 488 -262 q 385 -100 385 -168 q 404 -14 385 -49 q 387 -15 396 -14 q 369 -15 378 -15 q 149 68 226 -15 q 71 299 71 151 q 92 427 71 369 q 153 526 114 485 q 247 590 193 568 q 365 613 300 613 q 474 592 426 613 q 556 533 522 571 q 606 441 589 494 q 624 321 624 388 l 624 264 l 343 250 m 471 371 q 440 458 471 425 q 356 490 408 490 q 254 457 293 490 q 225 356 225 415 l 471 371 z "},"Ş":{"ha":774,"x_min":71,"x_max":697,"o":"m 575 669 q 517 717 550 696 q 444 757 483 738 q 419 761 433 760 q 393 763 406 763 q 276 736 325 763 q 258 699 264 721 q 251 653 251 676 q 289 565 251 597 q 414 519 326 532 q 697 246 697 478 q 624 66 697 135 q 429 -15 551 -3 l 429 -76 q 532 -228 532 -110 q 465 -378 532 -315 q 257 -456 397 -440 l 244 -444 l 265 -317 q 335 -307 306 -314 q 389 -287 364 -300 q 401 -235 401 -265 q 340 -175 401 -175 q 317 -178 329 -175 q 294 -183 304 -181 l 278 -161 l 308 -15 q 183 14 240 -8 q 71 78 126 36 l 157 214 q 238 157 199 179 q 318 119 278 135 q 348 115 333 117 q 378 114 363 114 q 508 142 460 114 q 537 187 528 161 q 546 240 546 213 q 508 331 546 297 q 378 376 471 365 q 172 461 243 393 q 101 640 101 529 q 122 742 101 696 q 181 822 143 789 q 270 874 218 856 q 386 893 322 893 q 545 869 472 893 q 676 799 618 844 l 575 669 z "},"Ï":{"ha":404,"x_min":-12,"x_max":418,"o":"m 281 881 l 281 0 l 122 0 l 122 715 l 108 868 l 281 881 m 418 1189 l 418 1017 l 249 1022 l 257 1179 l 418 1189 m 156 1192 l 156 1017 l -12 1022 l -7 1175 l 156 1192 z "},"İ":{"ha":404,"x_min":108,"x_max":292,"o":"m 281 881 l 281 0 l 122 0 l 122 715 l 108 868 l 281 881 m 292 1194 l 292 1013 l 113 1018 l 118 1179 l 292 1194 z "},"Ā":{"ha":853,"x_min":46,"x_max":806,"o":"m 521 883 l 806 21 l 806 0 l 626 0 l 604 133 l 579 214 l 269 219 l 246 139 l 235 0 l 46 0 l 46 21 l 297 743 l 308 868 l 521 883 m 306 340 l 540 350 l 433 711 l 415 711 l 306 340 m 469 1167 l 654 1190 l 667 1179 l 650 1038 l 186 1026 l 174 1036 l 197 1157 l 469 1167 z "},"Ē":{"ha":771,"x_min":108,"x_max":689,"o":"m 678 875 l 661 735 l 396 747 l 281 747 l 281 511 l 375 511 l 604 524 l 590 383 l 281 390 l 281 128 l 399 128 l 689 143 l 682 0 l 122 0 l 122 719 l 108 875 l 678 875 m 451 1167 l 636 1190 l 649 1179 l 632 1038 l 168 1026 l 156 1036 l 179 1157 l 451 1167 z "},"Ą":{"ha":853,"x_min":46,"x_max":821,"o":"m 521 883 l 806 21 l 806 0 q 711 -18 758 0 q 692 -87 692 -49 q 717 -147 692 -122 q 813 -171 742 -171 l 821 -185 l 774 -306 q 610 -252 668 -306 q 553 -114 553 -199 q 569 -33 553 -72 q 619 39 585 7 l 604 133 l 579 214 l 269 219 l 246 139 l 235 0 l 46 0 l 46 21 l 297 743 l 308 868 l 521 883 m 306 340 l 540 350 l 433 711 l 415 711 l 306 340 z "},"Ę":{"ha":776,"x_min":108,"x_max":697,"o":"m 678 875 l 661 735 l 396 747 l 281 747 l 281 511 l 375 511 l 604 524 l 590 385 l 281 392 l 281 128 l 399 128 l 689 143 l 682 0 l 669 0 q 627 -6 649 -1 q 588 -19 606 -11 q 568 -89 568 -50 q 593 -147 568 -122 q 689 -172 618 -172 l 697 -185 l 650 -306 q 486 -252 544 -306 q 428 -115 428 -199 q 436 -54 428 -83 q 463 0 444 -25 l 122 0 l 122 719 l 108 875 l 678 875 z "},"Å":{"ha":853,"x_min":46,"x_max":806,"o":"m 521 883 l 806 21 l 806 0 l 626 0 l 604 133 l 579 214 l 269 219 l 246 139 l 235 0 l 46 0 l 46 21 l 297 743 l 308 868 l 521 883 m 306 340 l 540 350 l 433 711 l 415 711 l 306 340 m 424 1329 q 501 1315 467 1329 q 560 1277 536 1301 q 596 1221 583 1253 q 608 1151 608 1189 q 595 1085 608 1117 q 558 1030 582 1054 q 499 991 533 1006 q 424 976 465 976 q 288 1026 336 976 q 239 1151 239 1076 q 252 1218 239 1186 q 290 1275 265 1250 q 348 1315 314 1300 q 424 1329 382 1329 m 424 1217 q 374 1204 392 1217 q 361 1153 361 1183 q 378 1106 361 1124 q 424 1088 396 1088 q 451 1091 438 1088 q 474 1100 464 1094 q 486 1153 486 1118 q 469 1199 486 1182 q 424 1217 451 1217 z "},"ã":{"ha":700,"x_min":69,"x_max":651,"o":"m 81 528 q 357 613 200 613 q 528 551 471 613 q 586 376 586 489 l 586 158 l 651 56 l 532 -21 l 469 67 q 407 22 440 42 q 338 -11 374 3 q 276 -15 313 -15 q 124 31 179 -15 q 69 161 69 78 q 120 284 69 236 q 265 344 171 332 l 435 368 l 439 382 l 439 403 q 412 467 439 444 q 340 489 385 489 q 303 488 321 489 q 272 483 286 486 q 217 453 244 469 q 165 414 190 436 l 81 528 m 435 257 l 306 249 q 238 231 267 246 q 222 176 222 207 q 243 124 222 143 q 306 106 264 106 q 435 171 388 106 l 435 257 m 132 850 q 180 892 156 874 q 231 925 204 911 q 261 929 244 929 q 313 921 290 929 q 357 901 336 913 q 399 877 378 889 q 449 860 421 865 q 522 901 486 872 l 578 807 q 476 732 533 760 q 462 729 469 731 q 446 728 454 728 q 394 737 417 728 q 350 757 371 746 q 308 780 329 768 q 258 797 286 792 q 188 756 219 783 l 132 850 z "},"ĩ":{"ha":333,"x_min":-31,"x_max":369,"o":"m 243 604 l 243 0 l 90 0 l 90 461 l 78 592 l 243 604 m -31 847 q 19 890 -7 871 q 75 919 46 908 q 104 924 88 924 q 151 915 133 924 q 185 895 169 907 q 214 872 200 883 q 249 854 228 860 q 318 894 282 867 l 369 804 q 263 732 319 757 q 248 729 256 731 q 232 728 240 728 q 185 737 204 728 q 152 757 167 746 q 124 780 138 768 q 89 797 110 792 q 22 760 56 789 l -31 847 z "},"ı":{"ha":333,"x_min":78,"x_max":243,"o":"m 243 604 l 243 0 l 90 0 l 90 461 l 78 592 l 243 604 z "},"Æ":{"ha":1207,"x_min":29,"x_max":1125,"o":"m 1114 875 l 1097 735 l 850 747 l 735 747 l 735 511 l 831 511 l 1039 524 l 1026 385 l 735 392 l 735 128 l 854 128 l 1125 143 l 1117 0 l 578 0 l 578 222 l 296 228 l 260 150 l 225 0 l 29 0 l 29 21 l 385 719 l 418 882 l 597 875 l 1114 875 m 350 346 l 578 356 l 578 742 l 533 742 l 350 346 z "},"Œ":{"ha":1228,"x_min":85,"x_max":1146,"o":"m 422 893 q 532 869 485 893 q 613 807 579 846 l 613 875 l 1135 875 l 1118 735 l 871 747 l 756 747 l 756 511 l 851 511 l 1060 524 l 1047 385 l 756 392 l 756 128 l 875 128 l 1146 143 l 1138 0 l 613 0 l 613 71 q 530 5 578 28 q 422 -18 482 -18 q 173 97 261 -18 q 85 438 85 211 q 108 626 85 542 q 176 769 132 710 q 283 860 221 828 q 422 893 344 893 m 303 715 q 258 594 272 663 q 244 438 244 525 q 293 190 244 265 q 425 115 342 115 q 492 126 461 115 q 547 160 524 138 q 592 278 578 211 q 606 438 606 346 q 558 686 606 613 q 425 760 510 760 q 303 715 351 760 z "},"æ":{"ha":1053,"x_min":69,"x_max":982,"o":"m 81 528 q 353 613 200 613 q 458 592 413 613 q 529 538 503 571 q 616 593 567 574 q 724 613 665 613 q 833 592 785 613 q 914 533 881 571 q 965 441 947 494 q 982 321 982 388 l 982 264 l 704 250 l 583 256 q 626 144 586 179 q 732 108 667 108 q 826 122 782 108 q 915 167 871 136 l 975 57 q 728 -15 868 -15 q 497 82 578 -15 q 338 -11 422 19 q 276 -15 308 -15 q 124 31 179 -15 q 69 160 69 76 q 122 286 69 235 q 276 349 174 338 l 435 365 l 439 381 l 439 403 q 412 466 439 443 q 340 489 385 489 q 304 488 321 489 q 272 483 288 486 q 217 453 244 469 q 165 414 190 436 l 81 528 m 304 106 q 435 169 386 106 l 435 256 l 313 247 q 270 241 290 246 q 238 229 250 236 q 222 178 222 206 q 304 106 222 106 m 829 371 q 798 458 829 425 q 714 490 767 490 q 613 457 651 490 q 593 413 600 439 q 583 357 586 388 l 829 371 z "},"œ":{"ha":1121,"x_min":71,"x_max":1050,"o":"m 771 250 l 651 254 q 694 146 654 183 q 801 108 733 108 q 895 122 851 108 q 983 167 939 136 l 1043 57 q 796 -15 938 -15 q 576 76 651 -15 q 484 8 538 32 q 367 -15 431 -15 q 245 7 300 -15 q 151 69 190 29 q 92 168 113 110 q 71 299 71 226 q 93 424 71 367 q 154 524 115 482 q 247 589 193 565 q 367 613 301 613 q 490 588 435 613 q 581 521 544 564 q 793 613 660 613 q 902 592 854 613 q 983 533 950 571 q 1033 441 1015 494 q 1050 321 1050 388 l 1050 264 l 771 250 m 367 110 q 420 117 394 110 q 469 142 446 124 q 499 214 490 175 q 508 299 508 253 q 497 385 508 350 q 465 443 485 421 q 419 476 444 465 q 367 486 393 486 q 312 479 338 486 q 263 454 286 472 q 233 382 242 421 q 225 299 225 343 q 237 211 225 247 q 269 153 249 175 q 314 120 289 131 q 367 110 339 110 m 899 371 q 867 458 897 425 q 783 490 836 490 q 681 457 719 490 q 651 356 651 415 l 899 371 z "},"Ґ":{"ha":732,"x_min":108,"x_max":674,"o":"m 517 875 l 551 1042 l 663 1050 l 674 1039 l 654 731 l 397 746 l 281 746 l 281 0 l 122 0 l 122 719 l 108 875 l 517 875 z "},"Ћ":{"ha":985,"x_min":39,"x_max":893,"o":"m 276 875 l 460 875 l 704 883 l 696 732 l 488 743 l 446 743 l 446 529 q 574 582 508 565 q 594 584 583 583 q 617 585 606 585 q 826 511 758 585 q 893 300 893 438 l 893 0 l 735 0 l 735 292 q 592 454 735 454 q 446 400 507 454 l 446 0 l 289 0 l 289 743 l 242 743 l 39 732 l 50 882 l 276 875 z "},"Ђ":{"ha":985,"x_min":39,"x_max":893,"o":"m 272 875 l 457 875 l 704 883 l 696 732 l 488 743 l 446 743 l 446 529 q 509 560 476 546 q 574 582 542 574 q 594 584 583 583 q 617 585 606 585 q 824 511 756 585 q 893 300 893 438 l 893 153 q 874 31 893 88 q 817 -71 856 -26 q 720 -146 778 -115 q 583 -187 663 -176 l 549 -37 q 628 -19 589 -31 q 699 6 668 -7 q 726 70 718 32 q 735 153 735 108 l 735 292 q 592 454 735 454 q 511 440 547 454 q 446 400 475 425 l 446 0 l 289 0 l 289 743 l 246 743 l 39 732 l 50 882 l 272 875 z "},"Ѓ":{"ha":738,"x_min":108,"x_max":675,"o":"m 371 875 l 675 881 l 654 731 l 401 746 l 281 746 l 281 0 l 122 0 l 122 719 l 108 875 l 371 875 m 358 1147 l 454 1292 l 472 1292 l 582 1185 l 379 996 l 281 1063 l 358 1147 z "},"Ѕ":{"ha":774,"x_min":71,"x_max":697,"o":"m 575 669 q 517 717 550 696 q 444 757 483 738 q 419 761 433 760 q 393 763 406 763 q 276 736 325 763 q 258 699 264 721 q 251 653 251 676 q 289 565 251 597 q 414 519 326 532 q 697 246 697 478 q 674 136 697 185 q 608 53 650 88 q 506 0 565 18 q 374 -18 446 -18 q 210 4 282 -18 q 71 78 139 26 l 157 214 q 238 157 199 179 q 318 119 278 135 q 348 115 333 117 q 378 114 363 114 q 508 142 460 114 q 537 187 528 161 q 546 240 546 213 q 508 331 546 297 q 378 376 471 365 q 172 461 243 393 q 101 640 101 529 q 122 742 101 696 q 181 822 143 789 q 270 874 218 856 q 386 893 322 893 q 545 869 472 893 q 676 799 618 844 l 575 669 z "},"І":{"ha":404,"x_min":108,"x_max":281,"o":"m 281 881 l 281 0 l 122 0 l 122 715 l 108 868 l 281 881 z "},"Ї":{"ha":404,"x_min":-11,"x_max":419,"o":"m 281 881 l 281 0 l 122 0 l 122 715 l 108 868 l 281 881 m 419 1189 l 419 1017 l 250 1022 l 258 1179 l 419 1189 m 157 1192 l 157 1017 l -11 1022 l -6 1175 l 157 1192 z "},"Ј":{"ha":404,"x_min":-58,"x_max":281,"o":"m 281 881 l 281 89 q 208 -159 281 -67 q -8 -290 135 -251 l -58 -149 q 22 -127 -18 -140 q 82 -103 61 -114 q 116 -37 104 -78 q 128 64 128 3 l 128 96 l 122 217 l 122 719 l 107 868 l 281 881 z "},"Ќ":{"ha":868,"x_min":108,"x_max":800,"o":"m 281 881 l 281 518 l 331 518 q 369 520 350 518 q 410 529 389 522 q 447 584 433 550 q 469 667 461 618 q 542 833 488 782 q 690 885 597 885 q 778 872 740 885 l 763 738 q 705 735 733 738 q 653 726 676 733 q 625 673 638 706 q 604 590 613 640 q 573 502 594 539 q 519 443 551 465 q 577 331 547 385 q 641 226 607 278 q 714 124 675 175 q 800 21 753 74 l 800 0 l 614 -7 q 492 178 544 81 q 397 385 439 276 l 281 389 l 281 0 l 122 0 l 122 719 l 108 868 l 281 881 m 407 1147 l 503 1292 l 521 1292 l 631 1185 l 428 996 l 329 1063 l 407 1147 z "},"Ў":{"ha":788,"x_min":43,"x_max":744,"o":"m 231 881 l 281 707 l 411 381 l 425 381 l 535 692 l 569 875 l 744 875 l 744 854 l 679 667 l 504 263 l 472 153 q 397 27 449 72 q 263 -18 346 -18 q 206 -12 235 -18 q 156 3 176 -7 l 176 133 q 246 121 214 121 q 310 132 279 121 q 343 215 329 163 l 43 849 l 43 869 l 231 881 m 324 1219 q 351 1138 328 1168 q 414 1108 375 1108 q 469 1125 450 1108 q 483 1206 483 1151 l 622 1224 q 561 1048 622 1106 q 404 990 500 990 q 256 1045 317 990 q 185 1193 196 1100 l 324 1219 z "},"Є":{"ha":815,"x_min":85,"x_max":744,"o":"m 619 660 q 488 756 564 715 q 440 760 468 760 q 372 748 408 760 q 307 714 336 736 q 267 621 282 671 q 246 508 251 571 l 356 508 l 526 522 l 538 510 l 521 375 l 343 389 l 244 389 q 310 183 253 249 q 454 117 368 117 q 565 142 513 117 q 657 213 617 167 l 744 107 q 610 13 686 43 q 446 -18 533 -18 q 288 15 356 -18 q 174 106 219 47 q 107 249 129 165 q 85 438 85 333 q 111 628 85 543 q 186 772 138 713 q 303 862 235 831 q 453 893 371 893 q 603 868 535 893 q 721 797 672 843 l 619 660 z "},"Љ":{"ha":1271,"x_min":14,"x_max":1204,"o":"m 782 875 l 782 535 q 834 562 807 550 q 889 582 861 574 q 906 584 896 583 q 924 585 915 585 q 1129 513 1054 585 q 1204 299 1204 440 q 1183 174 1204 229 q 1122 81 1161 119 q 1029 21 1083 42 q 910 0 975 0 l 625 0 l 625 744 l 403 744 l 396 572 q 370 273 389 389 q 308 85 351 157 q 233 13 279 36 q 121 -11 188 -11 q 14 10 57 -11 l 46 142 q 106 132 75 132 q 153 141 132 132 q 186 178 175 150 q 224 330 210 236 q 246 575 239 424 l 253 719 l 243 875 l 782 875 m 896 128 q 1000 151 956 128 q 1035 214 1024 178 q 1046 294 1046 250 q 1012 414 1046 372 q 908 456 978 456 q 842 445 872 456 q 782 415 813 435 l 782 128 l 896 128 z "},"Њ":{"ha":1242,"x_min":108,"x_max":1176,"o":"m 281 881 l 281 508 l 596 518 l 596 719 l 581 868 l 753 881 l 753 535 q 806 562 779 550 q 861 582 833 574 q 877 584 868 583 q 894 585 886 585 q 1101 513 1025 585 q 1176 299 1176 440 q 1155 174 1176 229 q 1094 81 1133 119 q 1001 21 1056 42 q 881 0 946 0 l 596 0 l 596 378 l 281 383 l 281 0 l 122 0 l 122 719 l 108 868 l 281 881 m 868 128 q 922 134 894 128 q 972 151 949 140 q 1015 294 1015 203 q 983 414 1015 372 q 881 456 950 456 q 815 445 844 456 q 753 415 785 435 l 753 128 l 868 128 z "},"Џ":{"ha":888,"x_min":108,"x_max":764,"o":"m 281 881 l 281 129 l 607 129 l 607 719 l 592 868 l 764 881 l 764 0 l 518 0 l 507 -207 l 379 -207 l 368 0 l 122 0 l 122 719 l 108 868 l 281 881 z "},"ґ":{"ha":581,"x_min":83,"x_max":543,"o":"m 392 597 l 418 751 l 543 757 l 528 465 l 353 479 l 247 479 l 247 0 l 94 0 l 94 458 l 83 597 l 392 597 z "},"ђ":{"ha":729,"x_min":8,"x_max":639,"o":"m 251 919 l 251 796 l 426 822 l 438 813 l 422 690 l 251 676 l 251 536 q 301 574 275 556 q 356 606 328 592 q 414 613 386 613 q 517 596 474 613 q 587 549 560 579 q 626 475 614 518 q 639 381 639 432 l 639 42 q 576 -170 639 -89 q 388 -292 514 -251 l 326 -156 q 394 -139 365 -149 q 444 -118 422 -129 q 477 -63 465 -94 q 489 0 489 -32 l 489 31 l 485 104 l 485 376 q 393 482 485 482 q 317 460 356 482 q 251 394 279 438 l 251 0 l 99 0 l 99 665 l 19 660 l 8 671 l 29 778 l 96 782 l 86 907 l 251 919 z "},"ħ":{"ha":729,"x_min":8,"x_max":639,"o":"m 251 919 l 251 796 l 426 822 l 438 813 l 422 692 l 251 679 l 251 536 q 301 574 275 556 q 356 606 328 592 q 414 613 386 613 q 517 596 474 613 q 587 549 560 579 q 626 475 614 518 q 639 381 639 432 l 639 0 l 485 0 l 485 376 q 393 482 485 482 q 317 460 356 482 q 251 394 279 438 l 251 0 l 99 0 l 99 668 l 19 663 l 8 672 l 29 778 l 96 782 l 86 907 l 251 919 z "},"ћ":{"ha":729,"x_min":8,"x_max":639,"o":"m 251 919 l 251 796 l 426 822 l 438 813 l 422 692 l 251 679 l 251 536 q 301 574 275 556 q 356 606 328 592 q 414 613 386 613 q 517 596 474 613 q 587 549 560 579 q 626 475 614 518 q 639 381 639 432 l 639 0 l 485 0 l 485 376 q 393 482 485 482 q 317 460 356 482 q 251 394 279 438 l 251 0 l 99 0 l 99 668 l 19 663 l 8 672 l 29 778 l 96 782 l 86 907 l 251 919 z "},"ѓ":{"ha":569,"x_min":83,"x_max":529,"o":"m 385 597 l 529 603 l 518 465 l 342 479 l 247 479 l 247 0 l 94 0 l 94 457 l 83 597 l 385 597 m 299 846 l 396 1018 l 414 1018 l 515 924 l 338 724 l 242 771 l 299 846 z "},"є":{"ha":657,"x_min":71,"x_max":600,"o":"m 493 424 q 394 486 451 463 q 357 490 375 490 q 260 457 301 490 q 225 353 231 413 l 315 353 l 429 361 l 436 353 l 424 233 l 228 249 q 278 142 239 178 q 376 107 318 107 q 458 122 421 107 q 533 168 496 138 l 600 61 q 490 3 549 21 q 365 -15 432 -15 q 241 7 296 -15 q 149 69 186 29 q 91 167 111 110 q 71 296 71 225 q 94 430 71 371 q 157 530 117 489 q 253 592 197 571 q 374 613 308 613 q 593 540 506 613 l 493 424 z "},"ѕ":{"ha":642,"x_min":60,"x_max":572,"o":"m 132 176 q 196 134 163 151 q 261 106 229 117 q 284 103 272 104 q 308 103 296 103 q 371 108 344 103 q 417 122 397 113 q 433 169 433 140 q 429 194 433 183 q 411 215 425 206 q 373 230 397 224 q 310 240 349 236 q 83 425 83 265 q 145 560 83 507 q 329 613 207 613 q 457 596 399 613 q 565 550 515 579 l 492 433 q 381 490 440 469 q 329 494 357 494 q 238 478 275 494 q 227 459 231 469 q 224 438 224 449 q 247 389 224 406 q 333 365 271 372 q 510 307 449 351 q 572 176 572 263 q 506 36 572 88 q 315 -15 440 -15 q 178 0 239 -15 q 60 51 117 15 l 132 176 z "},"і":{"ha":333,"x_min":78,"x_max":250,"o":"m 243 604 l 243 0 l 90 0 l 90 461 l 78 592 l 243 604 m 250 910 l 250 744 l 79 751 l 86 896 l 250 910 z "},"ї":{"ha":333,"x_min":-28,"x_max":365,"o":"m 243 604 l 243 0 l 90 0 l 90 461 l 78 592 l 243 604 m 365 904 l 365 743 l 208 749 l 214 894 l 365 904 m 129 906 l 129 743 l -28 750 l -22 892 l 129 906 z "},"ј":{"ha":338,"x_min":-67,"x_max":254,"o":"m 247 604 l 247 31 q 186 -180 247 -99 q -6 -303 125 -261 l -67 -165 q 1 -149 -26 -158 q 53 -128 29 -139 q 86 -74 74 -104 q 99 -11 99 -43 l 99 19 l 94 93 l 94 461 l 82 592 l 247 604 m 254 910 l 254 744 l 83 751 l 90 896 l 254 910 z "},"ќ":{"ha":688,"x_min":85,"x_max":654,"o":"m 249 604 l 249 368 l 274 368 q 314 371 294 368 q 349 381 333 374 q 386 456 375 407 q 449 571 403 535 q 560 607 496 607 q 636 592 603 607 l 622 471 q 576 469 597 471 q 535 460 554 467 q 506 394 515 429 q 439 301 481 329 q 531 158 479 226 q 654 14 583 89 l 651 0 l 486 -6 q 325 256 390 107 l 249 256 l 249 0 l 96 0 l 96 444 l 85 592 l 249 604 m 331 846 l 428 1018 l 446 1018 l 547 924 l 369 724 l 274 771 l 331 846 z "},"ў":{"ha":672,"x_min":36,"x_max":636,"o":"m 199 604 l 357 124 l 367 124 l 425 307 q 457 449 447 375 q 469 597 467 524 l 636 597 l 636 581 q 601 431 624 507 q 550 281 579 356 l 440 0 l 421 -72 q 337 -238 394 -178 q 169 -314 279 -299 l 133 -165 q 201 -156 172 -162 q 253 -143 231 -150 q 276 -99 267 -125 q 289 -40 286 -72 l 36 576 l 36 592 l 199 604 m 275 944 q 353 838 285 838 q 407 853 385 838 q 422 935 422 886 l 551 951 q 536 851 551 893 q 494 781 521 808 q 428 740 467 753 q 346 726 390 726 q 210 778 264 726 q 144 921 156 829 l 275 944 z "},"џ":{"ha":718,"x_min":86,"x_max":619,"o":"m 250 604 l 250 118 l 468 118 l 468 464 l 456 592 l 619 604 l 619 0 l 425 0 l 418 -153 l 300 -153 l 292 0 l 99 0 l 99 465 l 86 592 l 250 604 z "},"љ":{"ha":1033,"x_min":26,"x_max":985,"o":"m 649 597 l 649 383 q 729 424 686 410 q 746 426 738 425 q 763 426 754 426 q 926 370 867 426 q 985 221 985 314 q 969 136 985 176 q 924 65 954 96 q 850 17 894 35 q 747 0 806 0 l 497 0 l 497 478 l 350 478 l 346 401 q 316 167 336 253 q 256 38 296 82 q 128 -14 211 -14 q 26 7 65 -14 l 58 128 q 114 118 86 118 q 176 177 153 118 q 208 369 199 236 l 215 461 l 201 597 l 649 597 m 740 118 q 804 129 771 118 q 827 167 819 143 q 835 218 835 190 q 811 283 835 261 q 744 306 788 306 q 690 297 713 306 q 649 269 667 288 l 649 118 l 740 118 z "},"њ":{"ha":1004,"x_min":86,"x_max":956,"o":"m 250 604 l 250 354 l 468 363 l 468 467 l 457 592 l 619 604 l 619 383 q 700 424 657 410 q 717 426 708 425 q 733 426 725 426 q 897 370 838 426 q 956 221 956 314 q 940 136 956 176 q 895 65 925 96 q 821 17 865 35 q 718 0 776 0 l 468 0 l 468 239 l 250 243 l 250 0 l 99 0 l 99 467 l 86 592 l 250 604 m 711 118 q 775 129 742 118 q 798 167 790 143 q 806 218 806 190 q 782 283 806 261 q 715 306 758 306 q 660 296 683 306 q 619 268 638 286 l 619 118 l 711 118 z "},"Ø":{"ha":897,"x_min":85,"x_max":813,"o":"m 449 893 q 561 878 507 893 l 606 1001 l 769 956 l 696 797 q 782 649 751 739 q 813 438 813 560 q 787 244 813 329 q 713 101 761 160 q 599 13 665 43 q 449 -18 532 -18 q 385 -13 415 -18 q 326 0 354 -8 l 261 -142 l 131 -92 l 204 74 q 115 221 146 131 q 85 438 85 311 q 110 626 85 542 q 184 770 136 711 q 299 861 232 829 q 449 893 367 893 m 313 713 q 263 592 281 660 q 246 438 246 525 q 278 235 246 311 l 510 749 q 446 760 479 760 q 313 713 368 760 m 653 438 q 621 635 653 560 l 385 126 q 451 115 418 115 q 522 127 488 115 q 583 161 557 139 q 634 281 615 214 q 653 438 653 349 z "},"Ħ":{"ha":897,"x_min":21,"x_max":876,"o":"m 281 881 l 281 718 l 615 733 l 601 868 l 775 881 l 775 746 l 865 756 l 876 744 l 868 613 l 775 610 l 775 0 l 617 0 l 617 350 l 281 356 l 281 0 l 122 0 l 122 592 l 32 589 l 21 600 l 44 708 l 122 711 l 122 719 l 108 868 l 281 881 m 617 490 l 617 606 l 281 596 l 281 481 l 617 490 z "},"Ç":{"ha":815,"x_min":85,"x_max":744,"o":"m 619 658 q 558 710 592 686 q 486 754 524 735 q 440 758 469 758 q 373 747 408 758 q 310 713 338 735 q 261 594 278 660 q 244 438 244 528 q 260 294 244 354 q 304 194 276 233 q 370 135 332 154 q 454 117 408 117 q 565 142 513 117 q 657 214 617 167 l 744 107 q 622 18 692 49 q 474 -17 553 -12 l 474 -76 q 578 -229 578 -112 q 511 -378 578 -317 q 301 -457 444 -440 l 290 -446 l 311 -317 q 380 -308 351 -315 q 435 -287 408 -300 q 444 -264 440 -276 q 447 -236 447 -251 q 385 -175 447 -175 q 340 -185 363 -175 l 324 -162 l 356 -8 q 151 139 218 22 q 85 438 85 256 q 111 628 85 543 q 186 772 138 713 q 303 862 235 831 q 453 893 371 893 q 603 868 535 893 q 721 797 672 843 l 619 658 z "},"Đ":{"ha":878,"x_min":49,"x_max":799,"o":"m 418 875 q 576 847 506 875 q 697 764 647 819 q 772 627 746 708 q 799 438 799 546 q 772 255 799 336 q 697 117 746 174 q 577 31 647 61 q 418 0 507 0 l 142 0 l 142 365 l 58 364 l 49 375 l 72 485 l 142 488 l 142 724 l 128 875 l 418 875 m 415 131 q 503 142 461 131 q 572 176 544 153 q 621 285 604 221 q 638 438 638 350 q 621 578 638 519 q 574 673 604 636 q 503 727 544 710 q 414 744 463 744 l 300 744 l 300 496 l 481 514 l 492 503 l 478 372 l 300 368 l 300 131 l 415 131 z "},"Ţ":{"ha":736,"x_min":39,"x_max":696,"o":"m 275 875 l 461 875 l 696 883 l 689 731 l 493 743 l 444 743 l 444 79 q 500 22 481 60 q 519 -64 519 -15 q 451 -217 519 -151 q 243 -297 383 -282 l 231 -286 l 251 -156 q 320 -146 292 -153 q 372 -126 349 -139 q 388 -68 388 -103 q 328 -6 388 -6 q 283 -14 304 -6 l 267 8 l 286 106 l 286 743 l 239 743 l 39 732 l 50 882 l 275 875 z "},"į":{"ha":333,"x_min":32,"x_max":274,"o":"m 243 604 l 243 0 q 169 -24 199 -4 q 154 -83 154 -47 q 180 -140 154 -118 q 267 -162 206 -162 l 274 -175 l 228 -287 q 144 -273 181 -287 q 82 -235 107 -258 q 44 -179 57 -211 q 32 -111 32 -147 q 90 28 32 -22 l 90 461 l 78 592 l 243 604 m 250 910 l 250 744 l 79 751 l 86 896 l 250 910 z "},"Ð":{"ha":878,"x_min":49,"x_max":799,"o":"m 418 875 q 576 847 506 875 q 697 764 647 819 q 772 627 746 708 q 799 438 799 546 q 772 255 799 336 q 697 117 746 174 q 577 31 647 61 q 418 0 507 0 l 142 0 l 142 365 l 58 364 l 49 375 l 72 485 l 142 488 l 142 724 l 128 875 l 418 875 m 415 131 q 503 142 461 131 q 572 176 544 153 q 621 285 604 221 q 638 438 638 350 q 621 578 638 519 q 574 673 604 636 q 503 727 544 710 q 414 744 463 744 l 300 744 l 300 496 l 481 514 l 492 503 l 478 372 l 300 368 l 300 131 l 415 131 z "},"Þ":{"ha":781,"x_min":108,"x_max":715,"o":"m 281 881 l 281 722 q 406 740 336 740 q 529 722 472 740 q 627 665 586 703 q 692 572 668 628 q 715 442 715 515 q 692 313 715 371 q 629 213 669 254 q 534 149 589 171 q 414 126 479 126 q 281 150 333 126 l 281 0 l 122 0 l 122 718 l 108 868 l 281 881 m 281 279 q 338 263 308 268 q 400 257 368 257 q 519 290 475 257 q 547 357 538 318 q 556 440 556 396 q 512 571 556 529 q 394 613 468 613 q 333 608 361 613 q 281 597 306 604 l 281 279 z "},"þ":{"ha":743,"x_min":92,"x_max":671,"o":"m 257 888 l 257 540 q 314 580 285 564 q 376 608 343 596 q 432 613 406 613 q 606 533 542 613 q 671 304 671 453 q 649 169 671 228 q 590 69 628 110 q 501 6 551 28 q 392 -15 450 -15 q 257 14 319 -15 l 257 -153 l 271 -307 l 104 -307 l 104 742 l 92 876 l 257 888 m 257 147 q 316 117 285 128 q 383 107 347 107 q 433 115 410 107 q 475 133 456 122 q 517 303 517 197 q 485 443 517 399 q 397 488 454 488 q 317 463 353 488 q 257 399 281 439 l 257 147 z "},"ø":{"ha":733,"x_min":71,"x_max":663,"o":"m 367 613 q 456 600 414 613 l 497 692 l 639 651 l 574 535 q 640 433 617 493 q 663 299 663 374 q 640 172 663 229 q 579 72 618 114 q 485 8 540 31 q 367 -15 431 -15 q 319 -12 342 -15 q 274 -3 296 -8 l 219 -101 l 104 -58 l 165 56 q 71 299 71 139 q 93 424 71 367 q 154 524 115 482 q 247 589 193 565 q 367 613 301 613 m 225 299 q 242 197 225 236 l 394 483 q 381 485 388 485 q 367 486 374 486 q 312 479 338 486 q 263 454 286 472 q 233 382 242 421 q 225 299 225 343 m 367 110 q 420 117 394 110 q 469 142 446 124 q 499 214 490 175 q 508 299 508 253 q 505 349 508 326 q 494 392 501 372 l 338 113 q 352 110 344 110 q 367 110 360 110 z "},"ſ":{"ha":382,"x_min":42,"x_max":417,"o":"m 125 599 l 125 688 q 143 783 125 738 q 196 863 161 828 q 281 919 231 899 q 396 940 331 940 l 417 797 q 346 791 381 797 q 288 774 311 785 q 272 717 272 747 l 272 676 l 282 15 l 251 -251 l 125 -244 l 125 464 l 42 485 l 42 586 l 125 599 z "},"ß":{"ha":863,"x_min":42,"x_max":796,"o":"m 125 599 l 125 671 q 142 779 125 729 q 192 865 160 829 q 272 920 225 900 q 381 940 319 940 q 480 923 436 940 q 553 876 524 906 q 599 804 583 846 q 614 714 614 763 q 589 603 614 651 q 517 518 564 554 q 507 494 510 507 q 504 468 504 481 q 524 419 504 438 q 590 394 543 401 q 743 329 690 379 q 796 192 796 279 q 734 41 796 97 q 558 -15 672 -15 q 444 -1 497 -15 q 340 47 390 13 l 407 181 q 463 141 436 157 q 514 114 490 125 q 558 110 532 110 q 599 115 578 110 q 636 126 621 119 q 654 182 654 149 q 633 240 654 218 q 563 265 611 261 q 412 322 461 274 q 363 446 363 371 q 444 610 363 550 q 467 706 467 647 q 443 781 467 754 q 371 807 419 807 q 290 785 324 807 q 276 747 281 768 q 272 706 272 725 l 272 668 l 282 15 l 251 -251 l 125 -244 l 125 464 l 42 485 l 42 586 l 125 599 z "},"ẞ":{"ha":874,"x_min":115,"x_max":799,"o":"m 382 472 l 540 722 q 418 764 494 764 q 353 754 385 764 q 301 726 322 744 q 274 531 274 657 l 274 0 l 115 0 l 115 540 q 135 685 115 619 q 193 797 154 750 q 289 868 232 843 q 421 893 346 893 q 555 875 494 893 q 661 821 615 857 l 739 789 l 743 771 l 569 533 q 738 447 678 522 q 799 251 799 372 q 780 147 799 196 q 728 62 761 99 q 649 4 694 25 q 549 -17 603 -17 q 432 0 486 -17 q 329 54 378 17 l 408 179 q 500 114 456 133 q 540 110 517 110 q 614 131 588 113 q 637 185 629 153 q 644 253 644 217 q 510 408 644 408 q 460 405 485 408 q 414 394 436 401 l 382 472 z "},"ĸ":{"ha":701,"x_min":86,"x_max":663,"o":"m 251 603 l 251 350 q 290 370 271 358 q 329 396 310 382 q 443 601 396 481 l 618 594 l 622 581 q 533 443 578 506 q 431 322 488 381 q 478 245 454 282 q 529 172 501 208 q 590 97 557 136 q 663 15 622 58 l 660 0 l 483 -7 q 435 55 457 25 q 393 115 413 85 q 356 179 374 146 q 319 251 338 213 q 285 233 303 240 q 251 219 267 225 l 251 0 l 99 0 l 99 456 l 86 592 l 251 603 z "},"ç":{"ha":657,"x_min":71,"x_max":600,"o":"m 489 422 q 445 457 468 442 q 394 485 422 472 q 376 487 385 486 q 357 488 367 488 q 261 454 303 488 q 233 385 242 422 q 225 301 225 349 q 267 159 225 207 q 378 111 310 111 q 533 172 460 111 l 600 61 q 403 -14 515 -6 l 403 -60 q 476 -112 450 -75 q 503 -207 503 -149 q 440 -344 503 -285 q 244 -419 378 -403 l 235 -408 l 254 -287 q 323 -278 294 -285 q 375 -261 351 -272 q 386 -214 386 -242 q 372 -171 386 -186 q 328 -156 357 -156 q 304 -158 317 -156 q 282 -164 292 -161 l 265 -143 l 299 -10 q 131 90 190 10 q 71 296 71 171 q 94 430 71 371 q 157 530 117 489 q 253 592 197 571 q 374 613 308 613 q 593 540 506 613 l 489 422 z "},"Ł":{"ha":740,"x_min":32,"x_max":681,"o":"m 285 881 l 285 503 l 461 546 l 472 535 l 481 401 l 285 371 l 285 126 l 374 126 l 667 146 l 681 131 l 667 0 l 126 0 l 126 338 l 44 319 l 32 329 l 51 446 l 126 464 l 126 724 l 111 868 l 285 881 z "},"Ș":{"ha":774,"x_min":71,"x_max":697,"o":"m 575 669 q 517 717 550 696 q 444 757 483 738 q 419 761 433 760 q 393 763 406 763 q 276 736 325 763 q 258 699 264 721 q 251 653 251 676 q 289 565 251 597 q 414 519 326 532 q 697 246 697 478 q 674 136 697 185 q 608 53 650 88 q 506 0 565 18 q 374 -18 446 -18 q 210 4 282 -18 q 71 78 139 26 l 157 214 q 238 157 199 179 q 318 119 278 135 q 348 115 333 117 q 378 114 363 114 q 508 142 460 114 q 537 187 528 161 q 546 240 546 213 q 508 331 546 297 q 378 376 471 365 q 172 461 243 393 q 101 640 101 529 q 122 742 101 696 q 181 822 143 789 q 270 874 218 856 q 386 893 322 893 q 545 869 472 893 q 676 799 618 844 l 575 669 m 456 -97 l 464 -124 l 386 -394 l 275 -369 l 297 -219 l 297 -104 l 456 -97 z "},"Ț":{"ha":736,"x_min":39,"x_max":696,"o":"m 275 875 l 461 875 l 696 883 l 689 731 l 493 743 l 444 743 l 444 0 l 286 0 l 286 743 l 239 743 l 39 732 l 50 882 l 275 875 m 443 -97 l 451 -124 l 374 -394 l 263 -369 l 285 -219 l 285 -104 l 443 -97 z "},"ł":{"ha":396,"x_min":10,"x_max":388,"o":"m 107 486 l 107 769 l 96 904 l 261 915 l 261 525 l 375 554 l 388 543 l 372 414 l 261 399 l 261 325 l 256 243 l 256 192 q 271 142 256 158 q 313 125 286 125 q 350 131 333 125 l 365 6 q 269 -10 322 -10 q 146 42 185 -10 q 107 194 107 94 l 107 367 l 22 349 l 10 360 l 31 467 l 107 486 z "},"Á":{"ha":853,"x_min":46,"x_max":806,"o":"m 521 883 l 806 21 l 806 0 l 626 0 l 604 133 l 579 214 l 269 219 l 246 139 l 235 0 l 46 0 l 46 21 l 297 743 l 308 868 l 521 883 m 306 340 l 540 350 l 433 711 l 415 711 l 306 340 m 417 1147 l 513 1292 l 531 1292 l 640 1185 l 438 996 l 339 1063 l 417 1147 z "},"Ă":{"ha":853,"x_min":46,"x_max":806,"o":"m 521 883 l 806 21 l 806 0 l 626 0 l 604 133 l 579 214 l 269 219 l 246 139 l 235 0 l 46 0 l 46 21 l 297 743 l 308 868 l 521 883 m 306 340 l 540 350 l 433 711 l 415 711 l 306 340 m 340 1219 q 368 1138 344 1168 q 431 1108 392 1108 q 486 1125 467 1108 q 500 1206 500 1151 l 639 1224 q 578 1048 639 1106 q 421 990 517 990 q 273 1045 333 990 q 201 1193 213 1100 l 340 1219 z "},"Â":{"ha":853,"x_min":46,"x_max":806,"o":"m 521 883 l 806 21 l 806 0 l 626 0 l 604 133 l 579 214 l 269 219 l 246 139 l 235 0 l 46 0 l 46 21 l 297 743 l 308 868 l 521 883 m 306 340 l 540 350 l 433 711 l 415 711 l 306 340 m 435 1246 l 540 1163 l 657 1090 l 657 1069 l 550 981 l 413 1096 l 275 985 l 179 1058 l 179 1078 l 293 1156 l 401 1246 l 435 1246 z "},"À":{"ha":853,"x_min":46,"x_max":806,"o":"m 521 883 l 806 21 l 806 0 l 626 0 l 604 133 l 579 214 l 269 219 l 246 139 l 235 0 l 46 0 l 46 21 l 297 743 l 308 868 l 521 883 m 306 340 l 540 350 l 433 711 l 415 711 l 306 340 m 314 1292 l 333 1292 l 429 1147 l 507 1063 l 408 996 l 206 1185 l 314 1292 z "},"Ä":{"ha":853,"x_min":46,"x_max":806,"o":"m 521 883 l 806 21 l 806 0 l 626 0 l 604 133 l 579 214 l 269 219 l 246 139 l 235 0 l 46 0 l 46 21 l 297 743 l 308 868 l 521 883 m 306 340 l 540 350 l 433 711 l 415 711 l 306 340 m 656 1189 l 656 1017 l 483 1022 l 490 1178 l 656 1189 m 354 1190 l 354 1017 l 182 1022 l 188 1175 l 354 1190 z "},"Ã":{"ha":853,"x_min":46,"x_max":806,"o":"m 521 883 l 806 21 l 806 0 l 626 0 l 604 133 l 579 214 l 269 219 l 246 139 l 235 0 l 46 0 l 46 21 l 297 743 l 308 868 l 521 883 m 306 340 l 540 350 l 433 711 l 415 711 l 306 340 m 192 1135 q 248 1179 219 1158 q 306 1214 276 1200 q 322 1216 313 1215 q 338 1217 331 1217 q 399 1205 374 1217 q 444 1178 424 1193 q 485 1152 465 1164 q 531 1140 506 1140 q 608 1182 567 1154 l 665 1088 q 549 1008 617 1039 q 533 1006 542 1007 q 517 1006 525 1006 q 456 1017 481 1006 q 410 1044 431 1029 q 369 1070 389 1058 q 325 1082 350 1082 q 250 1043 285 1067 l 192 1135 z "},"Ũ":{"ha":896,"x_min":108,"x_max":772,"o":"m 281 881 l 281 354 q 325 169 281 228 q 447 111 369 111 q 571 147 522 111 q 615 344 615 213 l 615 718 l 601 868 l 772 881 l 772 353 q 690 82 772 182 q 447 -18 607 -18 q 207 74 292 -18 q 122 347 122 167 l 122 714 l 108 868 l 281 881 m 206 1135 q 262 1179 233 1158 q 319 1214 290 1200 q 335 1216 326 1215 q 351 1217 344 1217 q 413 1205 388 1217 q 458 1178 438 1193 q 499 1152 479 1164 q 544 1140 519 1140 q 622 1182 581 1154 l 679 1088 q 563 1008 631 1039 q 547 1006 556 1007 q 531 1006 539 1006 q 469 1017 494 1006 q 424 1044 444 1029 q 383 1070 403 1058 q 339 1082 364 1082 q 264 1043 299 1067 l 206 1135 z "},"Ȁ":{"ha":853,"x_min":46,"x_max":806,"o":"m 521 883 l 806 21 l 806 0 l 626 0 l 604 133 l 579 214 l 269 219 l 246 139 l 235 0 l 46 0 l 46 21 l 297 743 l 308 868 l 521 883 m 306 340 l 540 350 l 433 711 l 415 711 l 306 340 m 475 1288 l 493 1288 l 542 1151 l 597 1043 l 500 993 l 354 1204 l 475 1288 m 192 1256 l 210 1256 l 381 1044 l 294 979 l 206 1060 l 86 1147 l 192 1256 z "},"Ȃ":{"ha":853,"x_min":46,"x_max":806,"o":"m 521 883 l 806 21 l 806 0 l 626 0 l 604 133 l 579 214 l 269 219 l 246 139 l 235 0 l 46 0 l 46 21 l 297 743 l 308 868 l 521 883 m 306 340 l 540 350 l 433 711 l 415 711 l 306 340 m 435 1246 l 540 1163 l 657 1090 l 657 1069 l 550 981 l 413 1096 l 275 985 l 179 1058 l 179 1078 l 293 1156 l 401 1246 l 435 1246 z "},"Ȅ":{"ha":771,"x_min":75,"x_max":689,"o":"m 678 875 l 661 735 l 396 747 l 281 747 l 281 511 l 375 511 l 604 524 l 590 383 l 281 390 l 281 128 l 399 128 l 689 143 l 682 0 l 122 0 l 122 719 l 108 875 l 678 875 m 464 1288 l 482 1288 l 531 1151 l 586 1043 l 489 993 l 343 1204 l 464 1288 m 181 1256 l 199 1256 l 369 1044 l 283 979 l 194 1060 l 75 1147 l 181 1256 z "},"Ȇ":{"ha":771,"x_min":108,"x_max":689,"o":"m 678 875 l 661 735 l 396 747 l 281 747 l 281 511 l 375 511 l 604 524 l 590 383 l 281 390 l 281 128 l 399 128 l 689 143 l 682 0 l 122 0 l 122 719 l 108 875 l 678 875 m 415 1246 l 521 1163 l 638 1090 l 638 1069 l 531 981 l 393 1096 l 256 985 l 160 1058 l 160 1078 l 274 1156 l 382 1246 l 415 1246 z "},"Ȉ":{"ha":404,"x_min":-124,"x_max":388,"o":"m 281 881 l 281 0 l 122 0 l 122 715 l 108 868 l 281 881 m 265 1288 l 283 1288 l 332 1151 l 388 1043 l 290 993 l 144 1204 l 265 1288 m -18 1256 l 0 1256 l 171 1044 l 85 979 l -4 1060 l -124 1147 l -18 1256 z "},"ȉ":{"ha":333,"x_min":-104,"x_max":336,"o":"m 243 604 l 243 0 l 90 0 l 90 461 l 78 592 l 243 604 m 250 1026 l 269 1024 l 301 879 l 336 758 l 242 728 l 132 961 l 250 1026 m -1 1015 l 19 1013 l 157 772 l 74 721 l 21 793 l -104 928 l -1 1015 z "},"ȋ":{"ha":333,"x_min":-28,"x_max":360,"o":"m 243 604 l 243 0 l 90 0 l 90 461 l 78 592 l 243 604 m 188 979 l 274 892 l 360 819 l 360 800 l 263 713 l 160 824 l 50 718 l -28 792 l -28 811 l 67 890 l 153 979 l 188 979 z "},"î":{"ha":333,"x_min":-28,"x_max":360,"o":"m 243 604 l 243 0 l 90 0 l 90 461 l 78 592 l 243 604 m 188 979 l 274 892 l 360 819 l 360 800 l 263 713 l 160 824 l 50 718 l -28 792 l -28 811 l 67 890 l 153 979 l 188 979 z "},"í":{"ha":333,"x_min":78,"x_max":353,"o":"m 243 604 l 243 0 l 90 0 l 90 461 l 78 592 l 243 604 m 136 846 l 233 1018 l 251 1018 l 353 924 l 175 724 l 79 771 l 136 846 z "},"Ć":{"ha":815,"x_min":85,"x_max":744,"o":"m 619 658 q 558 710 592 686 q 486 754 524 735 q 440 758 469 758 q 373 747 408 758 q 310 713 338 735 q 261 594 278 660 q 244 438 244 528 q 260 294 244 354 q 304 194 276 233 q 370 135 332 154 q 454 117 408 117 q 565 142 513 117 q 657 214 617 167 l 744 107 q 610 13 686 43 q 446 -18 533 -18 q 288 15 356 -18 q 174 106 219 47 q 107 249 129 165 q 85 438 85 333 q 111 628 85 543 q 186 772 138 713 q 303 862 235 831 q 453 893 371 893 q 603 868 535 893 q 721 797 672 843 l 619 658 m 415 1147 l 511 1292 l 529 1292 l 639 1185 l 436 996 l 338 1063 l 415 1147 z "},"Č":{"ha":815,"x_min":85,"x_max":744,"o":"m 619 658 q 558 710 592 686 q 486 754 524 735 q 440 758 469 758 q 373 747 408 758 q 310 713 338 735 q 261 594 278 660 q 244 438 244 528 q 260 294 244 354 q 304 194 276 233 q 370 135 332 154 q 454 117 408 117 q 565 142 513 117 q 657 214 617 167 l 744 107 q 610 13 686 43 q 446 -18 533 -18 q 288 15 356 -18 q 174 106 219 47 q 107 249 129 165 q 85 438 85 333 q 111 628 85 543 q 186 772 138 713 q 303 862 235 831 q 453 893 371 893 q 603 868 535 893 q 721 797 672 843 l 619 658 m 454 1124 l 590 1233 l 686 1161 l 686 1140 l 574 1064 l 465 972 l 433 972 l 328 1057 l 208 1129 l 208 1150 l 315 1236 l 454 1124 z "},"Ĉ":{"ha":815,"x_min":85,"x_max":744,"o":"m 619 658 q 558 710 592 686 q 486 754 524 735 q 440 758 469 758 q 373 747 408 758 q 310 713 338 735 q 261 594 278 660 q 244 438 244 528 q 260 294 244 354 q 304 194 276 233 q 370 135 332 154 q 454 117 408 117 q 565 142 513 117 q 657 214 617 167 l 744 107 q 610 13 686 43 q 446 -18 533 -18 q 288 15 356 -18 q 174 106 219 47 q 107 249 129 165 q 85 438 85 333 q 111 628 85 543 q 186 772 138 713 q 303 862 235 831 q 453 893 371 893 q 603 868 535 893 q 721 797 672 843 l 619 658 m 472 1246 l 578 1163 l 694 1090 l 694 1069 l 588 981 l 450 1096 l 313 985 l 217 1058 l 217 1078 l 331 1156 l 439 1246 l 472 1246 z "},"Ċ":{"ha":815,"x_min":85,"x_max":744,"o":"m 619 658 q 558 710 592 686 q 486 754 524 735 q 440 758 469 758 q 373 747 408 758 q 310 713 338 735 q 261 594 278 660 q 244 438 244 528 q 260 294 244 354 q 304 194 276 233 q 370 135 332 154 q 454 117 408 117 q 565 142 513 117 q 657 214 617 167 l 744 107 q 610 13 686 43 q 446 -18 533 -18 q 288 15 356 -18 q 174 106 219 47 q 107 249 129 165 q 85 438 85 333 q 111 628 85 543 q 186 772 138 713 q 303 862 235 831 q 453 893 371 893 q 603 868 535 893 q 721 797 672 843 l 619 658 m 538 1194 l 538 1013 l 358 1018 l 364 1179 l 538 1194 z "},"Ď":{"ha":860,"x_min":108,"x_max":779,"o":"m 399 875 q 678 765 576 875 q 779 438 779 654 q 753 255 779 336 q 677 117 726 174 q 558 31 628 61 q 399 0 488 0 l 122 0 l 122 724 l 108 875 l 399 875 m 396 131 q 483 142 442 131 q 553 176 525 153 q 601 285 585 221 q 618 438 618 350 q 601 578 618 519 q 555 673 585 636 q 484 727 525 710 q 394 744 443 744 l 281 744 l 281 131 l 396 131 m 419 1124 l 556 1233 l 651 1161 l 651 1140 l 539 1064 l 431 972 l 399 972 l 293 1057 l 174 1129 l 174 1150 l 281 1236 l 419 1124 z "},"É":{"ha":771,"x_min":108,"x_max":689,"o":"m 678 875 l 661 735 l 396 747 l 281 747 l 281 511 l 375 511 l 604 524 l 590 383 l 281 390 l 281 128 l 399 128 l 689 143 l 682 0 l 122 0 l 122 719 l 108 875 l 678 875 m 364 1147 l 460 1292 l 478 1292 l 588 1185 l 385 996 l 286 1063 l 364 1147 z "},"Ĕ":{"ha":771,"x_min":108,"x_max":689,"o":"m 678 875 l 661 735 l 396 747 l 281 747 l 281 511 l 375 511 l 604 524 l 590 383 l 281 390 l 281 128 l 399 128 l 689 143 l 682 0 l 122 0 l 122 719 l 108 875 l 678 875 m 315 1219 q 343 1138 319 1168 q 406 1108 367 1108 q 461 1125 442 1108 q 475 1206 475 1151 l 614 1224 q 553 1048 614 1106 q 396 990 492 990 q 248 1045 308 990 q 176 1193 188 1100 l 315 1219 z "},"Ě":{"ha":771,"x_min":108,"x_max":689,"o":"m 678 875 l 661 735 l 396 747 l 281 747 l 281 511 l 375 511 l 604 524 l 590 383 l 281 390 l 281 128 l 399 128 l 689 143 l 682 0 l 122 0 l 122 719 l 108 875 l 678 875 m 407 1124 l 543 1233 l 639 1161 l 639 1140 l 526 1064 l 418 972 l 386 972 l 281 1057 l 161 1129 l 161 1150 l 268 1236 l 407 1124 z "},"Ê":{"ha":771,"x_min":108,"x_max":689,"o":"m 678 875 l 661 735 l 396 747 l 281 747 l 281 511 l 375 511 l 604 524 l 590 383 l 281 390 l 281 128 l 399 128 l 689 143 l 682 0 l 122 0 l 122 719 l 108 875 l 678 875 m 421 1246 l 526 1163 l 643 1090 l 643 1069 l 536 981 l 399 1096 l 261 985 l 165 1058 l 165 1078 l 279 1156 l 388 1246 l 421 1246 z "},"Ë":{"ha":771,"x_min":108,"x_max":689,"o":"m 678 875 l 661 735 l 396 747 l 281 747 l 281 511 l 375 511 l 604 524 l 590 383 l 281 390 l 281 128 l 399 128 l 689 143 l 682 0 l 122 0 l 122 719 l 108 875 l 678 875 m 638 1189 l 638 1017 l 465 1022 l 472 1178 l 638 1189 m 336 1190 l 336 1017 l 164 1022 l 169 1175 l 336 1190 z "},"Ė":{"ha":771,"x_min":108,"x_max":689,"o":"m 678 875 l 661 735 l 396 747 l 281 747 l 281 511 l 375 511 l 604 524 l 590 383 l 281 390 l 281 128 l 399 128 l 689 143 l 682 0 l 122 0 l 122 719 l 108 875 l 678 875 m 492 1194 l 492 1013 l 313 1018 l 318 1179 l 492 1194 z "},"È":{"ha":771,"x_min":108,"x_max":689,"o":"m 678 875 l 661 735 l 396 747 l 281 747 l 281 511 l 375 511 l 604 524 l 590 383 l 281 390 l 281 128 l 399 128 l 689 143 l 682 0 l 122 0 l 122 719 l 108 875 l 678 875 m 332 1292 l 351 1292 l 447 1147 l 525 1063 l 426 996 l 224 1185 l 332 1292 z "},"Ğ":{"ha":829,"x_min":85,"x_max":754,"o":"m 629 661 q 565 713 599 690 q 496 756 532 736 q 474 760 486 758 q 447 761 463 761 q 374 749 411 761 q 310 715 338 738 q 261 594 278 661 q 244 438 244 528 q 302 192 244 269 q 451 115 360 115 q 518 124 485 115 q 583 150 551 132 l 583 364 l 418 356 l 433 488 l 750 488 l 754 465 l 733 335 l 733 0 l 704 -7 l 617 29 q 438 -18 539 -18 q 281 15 347 -18 q 172 106 215 47 q 106 249 128 165 q 85 438 85 333 q 112 627 85 543 q 189 770 139 711 q 308 861 239 829 q 460 893 376 893 q 729 801 622 893 l 629 661 m 371 1219 q 399 1138 375 1168 q 461 1108 422 1108 q 517 1125 497 1108 q 531 1206 531 1151 l 669 1224 q 608 1048 669 1106 q 451 990 547 990 q 303 1045 364 990 q 232 1193 243 1100 l 371 1219 z "},"Ĝ":{"ha":829,"x_min":85,"x_max":754,"o":"m 629 661 q 565 713 599 690 q 496 756 532 736 q 474 760 486 758 q 447 761 463 761 q 374 749 411 761 q 310 715 338 738 q 261 594 278 661 q 244 438 244 528 q 302 192 244 269 q 451 115 360 115 q 518 124 485 115 q 583 150 551 132 l 583 364 l 418 356 l 433 488 l 750 488 l 754 465 l 733 335 l 733 0 l 704 -7 l 617 29 q 438 -18 539 -18 q 281 15 347 -18 q 172 106 215 47 q 106 249 128 165 q 85 438 85 333 q 112 627 85 543 q 189 770 139 711 q 308 861 239 829 q 460 893 376 893 q 729 801 622 893 l 629 661 m 475 1246 l 581 1163 l 697 1090 l 697 1069 l 590 981 l 453 1096 l 315 985 l 219 1058 l 219 1078 l 333 1156 l 442 1246 l 475 1246 z "},"Ģ":{"ha":829,"x_min":85,"x_max":754,"o":"m 629 661 q 565 713 599 690 q 496 756 532 736 q 474 760 486 758 q 447 761 463 761 q 374 749 411 761 q 310 715 338 738 q 261 594 278 661 q 244 438 244 528 q 302 192 244 269 q 451 115 360 115 q 518 124 485 115 q 583 150 551 132 l 583 364 l 418 356 l 433 488 l 750 488 l 754 465 l 733 335 l 733 0 l 704 -7 l 617 29 q 438 -18 539 -18 q 281 15 347 -18 q 172 106 215 47 q 106 249 128 165 q 85 438 85 333 q 112 627 85 543 q 189 770 139 711 q 308 861 239 829 q 460 893 376 893 q 729 801 622 893 l 629 661 m 521 -97 l 529 -124 l 451 -394 l 340 -369 l 363 -219 l 363 -104 l 521 -97 z "},"Ġ":{"ha":829,"x_min":85,"x_max":754,"o":"m 629 661 q 565 713 599 690 q 496 756 532 736 q 474 760 486 758 q 447 761 463 761 q 374 749 411 761 q 310 715 338 738 q 261 594 278 661 q 244 438 244 528 q 302 192 244 269 q 451 115 360 115 q 518 124 485 115 q 583 150 551 132 l 583 364 l 418 356 l 433 488 l 750 488 l 754 465 l 733 335 l 733 0 l 704 -7 l 617 29 q 438 -18 539 -18 q 281 15 347 -18 q 172 106 215 47 q 106 249 128 165 q 85 438 85 333 q 112 627 85 543 q 189 770 139 711 q 308 861 239 829 q 460 893 376 893 q 729 801 622 893 l 629 661 m 543 1194 l 543 1013 l 364 1018 l 369 1179 l 543 1194 z "},"Ĥ":{"ha":897,"x_min":108,"x_max":775,"o":"m 281 881 l 281 507 l 617 518 l 617 719 l 601 868 l 775 881 l 775 0 l 617 0 l 617 374 l 281 381 l 281 0 l 122 0 l 122 719 l 108 868 l 281 881 m 467 1246 l 572 1163 l 689 1090 l 689 1069 l 582 981 l 444 1096 l 307 985 l 211 1058 l 211 1078 l 325 1156 l 433 1246 l 467 1246 z "},"Í":{"ha":404,"x_min":107,"x_max":408,"o":"m 281 881 l 281 0 l 122 0 l 122 715 l 108 868 l 281 881 m 185 1147 l 281 1292 l 299 1292 l 408 1185 l 206 996 l 107 1063 l 185 1147 z "},"Ĭ":{"ha":404,"x_min":-15,"x_max":422,"o":"m 281 881 l 281 0 l 122 0 l 122 715 l 108 868 l 281 881 m 124 1219 q 151 1138 128 1168 q 214 1108 175 1108 q 269 1125 250 1108 q 283 1206 283 1151 l 422 1224 q 361 1048 422 1106 q 204 990 300 990 q 56 1045 117 990 q -15 1193 -4 1100 l 124 1219 z "},"Î":{"ha":404,"x_min":-36,"x_max":442,"o":"m 281 881 l 281 0 l 122 0 l 122 715 l 108 868 l 281 881 m 219 1246 l 325 1163 l 442 1090 l 442 1069 l 335 981 l 197 1096 l 60 985 l -36 1058 l -36 1078 l 78 1156 l 186 1246 l 219 1246 z "},"Ì":{"ha":404,"x_min":7,"x_max":308,"o":"m 281 881 l 281 0 l 122 0 l 122 715 l 108 868 l 281 881 m 115 1292 l 135 1292 l 231 1147 l 308 1063 l 210 996 l 7 1185 l 115 1292 z "},"Į":{"ha":404,"x_min":42,"x_max":314,"o":"m 281 881 l 281 0 q 240 -5 261 0 q 200 -19 219 -10 q 181 -87 181 -50 q 208 -147 181 -122 q 306 -172 235 -172 l 314 -185 l 267 -306 q 100 -252 158 -306 q 42 -115 42 -199 q 61 -25 42 -68 q 122 51 81 18 l 122 719 l 107 868 l 281 881 z "},"Ĩ":{"ha":404,"x_min":-12,"x_max":419,"o":"m 281 881 l 281 0 l 122 0 l 122 715 l 108 868 l 281 881 m -12 1135 q 44 1179 15 1158 q 100 1214 72 1200 q 115 1216 107 1215 q 131 1217 122 1217 q 181 1208 161 1217 q 215 1186 200 1199 q 247 1162 231 1174 q 286 1144 263 1150 q 363 1181 321 1154 l 419 1088 q 365 1043 394 1063 q 304 1008 336 1024 q 290 1006 297 1007 q 274 1006 282 1006 q 222 1015 242 1006 q 187 1036 203 1024 q 155 1060 171 1049 q 117 1078 139 1072 q 46 1043 82 1068 l -12 1135 z "},"Ȋ":{"ha":404,"x_min":-36,"x_max":442,"o":"m 281 881 l 281 0 l 122 0 l 122 715 l 108 868 l 281 881 m 219 1246 l 325 1163 l 442 1090 l 442 1069 l 335 981 l 197 1096 l 60 985 l -36 1058 l -36 1078 l 78 1156 l 186 1246 l 219 1246 z "},"Ĵ":{"ha":404,"x_min":-58,"x_max":442,"o":"m 281 881 l 281 89 q 208 -159 281 -67 q -8 -290 135 -251 l -58 -149 q 22 -127 -18 -140 q 82 -103 61 -114 q 116 -37 104 -78 q 128 64 128 3 l 128 96 l 122 217 l 122 719 l 107 868 l 281 881 m 219 1246 l 325 1163 l 442 1090 l 442 1069 l 335 981 l 197 1096 l 60 985 l -36 1058 l -36 1078 l 78 1156 l 186 1246 l 219 1246 z "},"Ķ":{"ha":868,"x_min":108,"x_max":806,"o":"m 281 881 l 281 472 l 388 532 q 474 642 438 585 q 535 765 511 699 l 572 876 l 747 869 l 747 849 q 679 693 719 767 q 585 557 639 619 l 507 471 q 638 238 567 344 q 806 21 708 131 l 806 0 l 617 -8 q 492 181 547 85 q 393 385 438 276 l 281 315 l 281 0 l 122 0 l 122 719 l 108 868 l 281 881 m 521 -97 l 529 -124 l 451 -394 l 340 -369 l 363 -219 l 363 -104 l 521 -97 z "},"Ĺ":{"ha":736,"x_min":108,"x_max":678,"o":"m 281 881 l 281 126 l 369 126 l 663 146 l 678 131 l 664 0 l 122 0 l 122 724 l 108 868 l 281 881 m 249 1147 l 344 1292 l 363 1292 l 472 1185 l 269 996 l 171 1063 l 249 1147 z "},"Ľ":{"ha":736,"x_min":108,"x_max":678,"o":"m 281 881 l 281 126 l 369 126 l 663 146 l 678 131 l 664 0 l 122 0 l 122 724 l 108 868 l 281 881 m 658 882 l 667 856 l 589 585 l 478 610 l 500 760 l 500 875 l 658 882 z "},"Ļ":{"ha":736,"x_min":108,"x_max":678,"o":"m 281 881 l 281 126 l 369 126 l 663 146 l 678 131 l 664 0 l 122 0 l 122 724 l 108 868 l 281 881 m 453 -97 l 461 -124 l 383 -394 l 272 -369 l 294 -219 l 294 -104 l 453 -97 z "},"Ŀ":{"ha":736,"x_min":108,"x_max":678,"o":"m 281 881 l 281 126 l 369 126 l 663 146 l 678 131 l 664 0 l 122 0 l 122 724 l 108 868 l 281 881 m 653 558 l 653 376 l 474 382 l 479 543 l 653 558 z "},"Ń":{"ha":893,"x_min":108,"x_max":771,"o":"m 268 881 l 621 247 l 633 247 l 622 531 l 622 704 l 604 868 l 771 881 l 771 4 l 625 -8 l 272 619 l 260 619 l 271 276 l 271 0 l 122 0 l 122 715 l 108 868 l 268 881 m 433 1147 l 529 1292 l 547 1292 l 657 1185 l 454 996 l 356 1063 l 433 1147 z "},"Ň":{"ha":893,"x_min":108,"x_max":771,"o":"m 268 881 l 621 247 l 633 247 l 622 531 l 622 704 l 604 868 l 771 881 l 771 4 l 625 -8 l 272 619 l 260 619 l 271 276 l 271 0 l 122 0 l 122 715 l 108 868 l 268 881 m 453 1124 l 589 1233 l 685 1161 l 685 1140 l 572 1064 l 464 972 l 432 972 l 326 1057 l 207 1129 l 207 1150 l 314 1236 l 453 1124 z "},"Ņ":{"ha":893,"x_min":108,"x_max":771,"o":"m 268 881 l 621 247 l 633 247 l 622 531 l 622 704 l 604 868 l 771 881 l 771 4 l 625 -8 l 272 619 l 260 619 l 271 276 l 271 0 l 122 0 l 122 715 l 108 868 l 268 881 m 532 -97 l 540 -124 l 463 -394 l 351 -369 l 374 -219 l 374 -104 l 532 -97 z "},"Ñ":{"ha":893,"x_min":108,"x_max":771,"o":"m 268 881 l 621 247 l 633 247 l 622 531 l 622 704 l 604 868 l 771 881 l 771 4 l 625 -8 l 272 619 l 260 619 l 271 276 l 271 0 l 122 0 l 122 715 l 108 868 l 268 881 m 206 1135 q 262 1179 233 1158 q 319 1214 290 1200 q 335 1216 326 1215 q 351 1217 344 1217 q 413 1205 388 1217 q 458 1178 438 1193 q 499 1152 479 1164 q 544 1140 519 1140 q 622 1182 581 1154 l 679 1088 q 563 1008 631 1039 q 547 1006 556 1007 q 531 1006 539 1006 q 469 1017 494 1006 q 424 1044 444 1029 q 383 1070 403 1058 q 339 1082 364 1082 q 264 1043 299 1067 l 206 1135 z "},"Ó":{"ha":897,"x_min":85,"x_max":813,"o":"m 449 893 q 599 863 532 893 q 714 776 667 833 q 787 633 761 718 q 813 438 813 547 q 787 244 813 329 q 713 101 761 160 q 598 13 665 43 q 449 -18 531 -18 q 298 12 365 -18 q 183 99 231 42 q 110 242 136 157 q 85 438 85 326 q 111 626 85 542 q 185 769 138 710 q 300 860 233 828 q 449 893 367 893 m 313 713 q 263 591 281 660 q 244 438 244 522 q 260 290 244 351 q 303 190 275 229 q 368 133 331 151 q 451 115 406 115 q 522 126 488 115 q 583 160 557 138 q 635 281 617 213 q 653 438 653 350 q 638 585 653 524 q 594 685 622 646 q 529 742 567 724 q 446 760 492 760 q 374 748 408 760 q 313 713 340 736 m 451 1147 l 547 1292 l 565 1292 l 675 1185 l 472 996 l 374 1063 l 451 1147 z "},"Ŏ":{"ha":897,"x_min":85,"x_max":813,"o":"m 449 893 q 599 863 532 893 q 714 776 667 833 q 787 633 761 718 q 813 438 813 547 q 787 244 813 329 q 713 101 761 160 q 598 13 665 43 q 449 -18 531 -18 q 298 12 365 -18 q 183 99 231 42 q 110 242 136 157 q 85 438 85 326 q 111 626 85 542 q 185 769 138 710 q 300 860 233 828 q 449 893 367 893 m 313 713 q 263 591 281 660 q 244 438 244 522 q 260 290 244 351 q 303 190 275 229 q 368 133 331 151 q 451 115 406 115 q 522 126 488 115 q 583 160 557 138 q 635 281 617 213 q 653 438 653 350 q 638 585 653 524 q 594 685 622 646 q 529 742 567 724 q 446 760 492 760 q 374 748 408 760 q 313 713 340 736 m 372 1219 q 400 1138 376 1168 q 463 1108 424 1108 q 518 1125 499 1108 q 532 1206 532 1151 l 671 1224 q 610 1048 671 1106 q 453 990 549 990 q 305 1045 365 990 q 233 1193 244 1100 l 372 1219 z "},"Ô":{"ha":897,"x_min":85,"x_max":813,"o":"m 449 893 q 599 863 532 893 q 714 776 667 833 q 787 633 761 718 q 813 438 813 547 q 787 244 813 329 q 713 101 761 160 q 598 13 665 43 q 449 -18 531 -18 q 298 12 365 -18 q 183 99 231 42 q 110 242 136 157 q 85 438 85 326 q 111 626 85 542 q 185 769 138 710 q 300 860 233 828 q 449 893 367 893 m 313 713 q 263 591 281 660 q 244 438 244 522 q 260 290 244 351 q 303 190 275 229 q 368 133 331 151 q 451 115 406 115 q 522 126 488 115 q 583 160 557 138 q 635 281 617 213 q 653 438 653 350 q 638 585 653 524 q 594 685 622 646 q 529 742 567 724 q 446 760 492 760 q 374 748 408 760 q 313 713 340 736 m 468 1246 l 574 1163 l 690 1090 l 690 1069 l 583 981 l 446 1096 l 308 985 l 213 1058 l 213 1078 l 326 1156 l 435 1246 l 468 1246 z "},"Ö":{"ha":897,"x_min":85,"x_max":813,"o":"m 449 893 q 599 863 532 893 q 714 776 667 833 q 787 633 761 718 q 813 438 813 547 q 787 244 813 329 q 713 101 761 160 q 598 13 665 43 q 449 -18 531 -18 q 298 12 365 -18 q 183 99 231 42 q 110 242 136 157 q 85 438 85 326 q 111 626 85 542 q 185 769 138 710 q 300 860 233 828 q 449 893 367 893 m 313 713 q 263 591 281 660 q 244 438 244 522 q 260 290 244 351 q 303 190 275 229 q 368 133 331 151 q 451 115 406 115 q 522 126 488 115 q 583 160 557 138 q 635 281 617 213 q 653 438 653 350 q 638 585 653 524 q 594 685 622 646 q 529 742 567 724 q 446 760 492 760 q 374 748 408 760 q 313 713 340 736 m 688 1189 l 688 1017 l 515 1022 l 522 1178 l 688 1189 m 386 1190 l 386 1017 l 214 1022 l 219 1175 l 386 1190 z "},"Ò":{"ha":897,"x_min":85,"x_max":813,"o":"m 449 893 q 599 863 532 893 q 714 776 667 833 q 787 633 761 718 q 813 438 813 547 q 787 244 813 329 q 713 101 761 160 q 598 13 665 43 q 449 -18 531 -18 q 298 12 365 -18 q 183 99 231 42 q 110 242 136 157 q 85 438 85 326 q 111 626 85 542 q 185 769 138 710 q 300 860 233 828 q 449 893 367 893 m 313 713 q 263 591 281 660 q 244 438 244 522 q 260 290 244 351 q 303 190 275 229 q 368 133 331 151 q 451 115 406 115 q 522 126 488 115 q 583 160 557 138 q 635 281 617 213 q 653 438 653 350 q 638 585 653 524 q 594 685 622 646 q 529 742 567 724 q 446 760 492 760 q 374 748 408 760 q 313 713 340 736 m 371 1292 l 390 1292 l 486 1147 l 564 1063 l 465 996 l 263 1185 l 371 1292 z "},"Ő":{"ha":897,"x_min":85,"x_max":813,"o":"m 449 893 q 599 863 532 893 q 714 776 667 833 q 787 633 761 718 q 813 438 813 547 q 787 244 813 329 q 713 101 761 160 q 598 13 665 43 q 449 -18 531 -18 q 298 12 365 -18 q 183 99 231 42 q 110 242 136 157 q 85 438 85 326 q 111 626 85 542 q 185 769 138 710 q 300 860 233 828 q 449 893 367 893 m 313 713 q 263 591 281 660 q 244 438 244 522 q 260 290 244 351 q 303 190 275 229 q 368 133 331 151 q 451 115 406 115 q 522 126 488 115 q 583 160 557 138 q 635 281 617 213 q 653 438 653 350 q 638 585 653 524 q 594 685 622 646 q 529 742 567 724 q 446 760 492 760 q 374 748 408 760 q 313 713 340 736 m 342 1151 l 389 1288 l 408 1288 l 529 1204 l 382 993 l 286 1043 l 342 1151 m 672 1256 l 692 1256 l 796 1147 l 676 1058 l 588 979 l 501 1044 l 672 1256 z "},"Ō":{"ha":897,"x_min":85,"x_max":813,"o":"m 449 893 q 599 863 532 893 q 714 776 667 833 q 787 633 761 718 q 813 438 813 547 q 787 244 813 329 q 713 101 761 160 q 598 13 665 43 q 449 -18 531 -18 q 298 12 365 -18 q 183 99 231 42 q 110 242 136 157 q 85 438 85 326 q 111 626 85 542 q 185 769 138 710 q 300 860 233 828 q 449 893 367 893 m 313 713 q 263 591 281 660 q 244 438 244 522 q 260 290 244 351 q 303 190 275 229 q 368 133 331 151 q 451 115 406 115 q 522 126 488 115 q 583 160 557 138 q 635 281 617 213 q 653 438 653 350 q 638 585 653 524 q 594 685 622 646 q 529 742 567 724 q 446 760 492 760 q 374 748 408 760 q 313 713 340 736 m 503 1167 l 688 1190 l 700 1179 l 683 1038 l 219 1026 l 207 1036 l 231 1157 l 503 1167 z "},"Õ":{"ha":897,"x_min":85,"x_max":813,"o":"m 449 893 q 599 863 532 893 q 714 776 667 833 q 787 633 761 718 q 813 438 813 547 q 787 244 813 329 q 713 101 761 160 q 598 13 665 43 q 449 -18 531 -18 q 298 12 365 -18 q 183 99 231 42 q 110 242 136 157 q 85 438 85 326 q 111 626 85 542 q 185 769 138 710 q 300 860 233 828 q 449 893 367 893 m 313 713 q 263 591 281 660 q 244 438 244 522 q 260 290 244 351 q 303 190 275 229 q 368 133 331 151 q 451 115 406 115 q 522 126 488 115 q 583 160 557 138 q 635 281 617 213 q 653 438 653 350 q 638 585 653 524 q 594 685 622 646 q 529 742 567 724 q 446 760 492 760 q 374 748 408 760 q 313 713 340 736 m 225 1135 q 281 1179 253 1158 q 339 1214 310 1200 q 355 1216 346 1215 q 371 1217 364 1217 q 432 1205 407 1217 q 478 1178 457 1193 q 519 1152 499 1164 q 564 1140 539 1140 q 642 1182 600 1154 l 699 1088 q 582 1008 650 1039 q 567 1006 575 1007 q 550 1006 558 1006 q 489 1017 514 1006 q 443 1044 464 1029 q 403 1070 422 1058 q 358 1082 383 1082 q 283 1043 318 1067 l 225 1135 z "},"Ȍ":{"ha":897,"x_min":85,"x_max":813,"o":"m 449 893 q 599 863 532 893 q 714 776 667 833 q 787 633 761 718 q 813 438 813 547 q 787 244 813 329 q 713 101 761 160 q 598 13 665 43 q 449 -18 531 -18 q 298 12 365 -18 q 183 99 231 42 q 110 242 136 157 q 85 438 85 326 q 111 626 85 542 q 185 769 138 710 q 300 860 233 828 q 449 893 367 893 m 313 713 q 263 591 281 660 q 244 438 244 522 q 260 290 244 351 q 303 190 275 229 q 368 133 331 151 q 451 115 406 115 q 522 126 488 115 q 583 160 557 138 q 635 281 617 213 q 653 438 653 350 q 638 585 653 524 q 594 685 622 646 q 529 742 567 724 q 446 760 492 760 q 374 748 408 760 q 313 713 340 736 m 510 1288 l 528 1288 l 576 1151 l 632 1043 l 535 993 l 389 1204 l 510 1288 m 226 1256 l 244 1256 l 415 1044 l 329 979 l 240 1060 l 121 1147 l 226 1256 z "},"Ȏ":{"ha":897,"x_min":85,"x_max":813,"o":"m 449 893 q 599 863 532 893 q 714 776 667 833 q 787 633 761 718 q 813 438 813 547 q 787 244 813 329 q 713 101 761 160 q 598 13 665 43 q 449 -18 531 -18 q 298 12 365 -18 q 183 99 231 42 q 110 242 136 157 q 85 438 85 326 q 111 626 85 542 q 185 769 138 710 q 300 860 233 828 q 449 893 367 893 m 313 713 q 263 591 281 660 q 244 438 244 522 q 260 290 244 351 q 303 190 275 229 q 368 133 331 151 q 451 115 406 115 q 522 126 488 115 q 583 160 557 138 q 635 281 617 213 q 653 438 653 350 q 638 585 653 524 q 594 685 622 646 q 529 742 567 724 q 446 760 492 760 q 374 748 408 760 q 313 713 340 736 m 468 1246 l 574 1163 l 690 1090 l 690 1069 l 583 981 l 446 1096 l 308 985 l 213 1058 l 213 1078 l 326 1156 l 435 1246 l 468 1246 z "},"Ŕ":{"ha":811,"x_min":108,"x_max":754,"o":"m 411 875 q 539 857 481 875 q 640 803 597 839 q 706 713 682 767 q 729 589 729 660 q 681 419 729 488 q 554 321 633 350 q 642 172 594 244 q 754 21 690 99 l 754 0 l 578 -8 q 484 144 525 68 q 413 301 443 221 q 341 310 375 304 q 281 328 307 317 l 281 0 l 122 0 l 122 715 l 108 875 l 411 875 m 281 449 q 415 429 346 429 q 483 438 453 429 q 535 461 513 446 q 562 518 554 488 q 569 589 569 549 q 527 706 569 668 q 403 744 485 744 l 281 744 l 281 449 m 369 1147 l 465 1292 l 483 1292 l 593 1185 l 390 996 l 292 1063 l 369 1147 z "},"Ř":{"ha":811,"x_min":108,"x_max":754,"o":"m 411 875 q 539 857 481 875 q 640 803 597 839 q 706 713 682 767 q 729 589 729 660 q 681 419 729 488 q 554 321 633 350 q 642 172 594 244 q 754 21 690 99 l 754 0 l 578 -8 q 484 144 525 68 q 413 301 443 221 q 341 310 375 304 q 281 328 307 317 l 281 0 l 122 0 l 122 715 l 108 875 l 411 875 m 281 449 q 415 429 346 429 q 483 438 453 429 q 535 461 513 446 q 562 518 554 488 q 569 589 569 549 q 527 706 569 668 q 403 744 485 744 l 281 744 l 281 449 m 413 1124 l 549 1233 l 644 1161 l 644 1140 l 532 1064 l 424 972 l 392 972 l 286 1057 l 167 1129 l 167 1150 l 274 1236 l 413 1124 z "},"Ŗ":{"ha":811,"x_min":108,"x_max":754,"o":"m 411 875 q 539 857 481 875 q 640 803 597 839 q 706 713 682 767 q 729 589 729 660 q 681 419 729 488 q 554 321 633 350 q 642 172 594 244 q 754 21 690 99 l 754 0 l 578 -8 q 484 144 525 68 q 413 301 443 221 q 341 310 375 304 q 281 328 307 317 l 281 0 l 122 0 l 122 715 l 108 875 l 411 875 m 281 449 q 415 429 346 429 q 483 438 453 429 q 535 461 513 446 q 562 518 554 488 q 569 589 569 549 q 527 706 569 668 q 403 744 485 744 l 281 744 l 281 449 m 497 -97 l 506 -124 l 428 -394 l 317 -369 l 339 -219 l 339 -104 l 497 -97 z "},"Ȑ":{"ha":811,"x_min":74,"x_max":754,"o":"m 411 875 q 539 857 481 875 q 640 803 597 839 q 706 713 682 767 q 729 589 729 660 q 681 419 729 488 q 554 321 633 350 q 642 172 594 244 q 754 21 690 99 l 754 0 l 578 -8 q 484 144 525 68 q 413 301 443 221 q 341 310 375 304 q 281 328 307 317 l 281 0 l 122 0 l 122 715 l 108 875 l 411 875 m 281 449 q 415 429 346 429 q 483 438 453 429 q 535 461 513 446 q 562 518 554 488 q 569 589 569 549 q 527 706 569 668 q 403 744 485 744 l 281 744 l 281 449 m 463 1288 l 481 1288 l 529 1151 l 585 1043 l 488 993 l 342 1204 l 463 1288 m 179 1256 l 197 1256 l 368 1044 l 282 979 l 193 1060 l 74 1147 l 179 1256 z "},"Ȓ":{"ha":811,"x_min":108,"x_max":754,"o":"m 411 875 q 539 857 481 875 q 640 803 597 839 q 706 713 682 767 q 729 589 729 660 q 681 419 729 488 q 554 321 633 350 q 642 172 594 244 q 754 21 690 99 l 754 0 l 578 -8 q 484 144 525 68 q 413 301 443 221 q 341 310 375 304 q 281 328 307 317 l 281 0 l 122 0 l 122 715 l 108 875 l 411 875 m 281 449 q 415 429 346 429 q 483 438 453 429 q 535 461 513 446 q 562 518 554 488 q 569 589 569 549 q 527 706 569 668 q 403 744 485 744 l 281 744 l 281 449 m 425 1246 l 531 1163 l 647 1090 l 647 1069 l 540 981 l 403 1096 l 265 985 l 169 1058 l 169 1078 l 283 1156 l 392 1246 l 425 1246 z "},"Ś":{"ha":774,"x_min":71,"x_max":697,"o":"m 575 669 q 517 717 550 696 q 444 757 483 738 q 419 761 433 760 q 393 763 406 763 q 276 736 325 763 q 258 699 264 721 q 251 653 251 676 q 289 565 251 597 q 414 519 326 532 q 697 246 697 478 q 674 136 697 185 q 608 53 650 88 q 506 0 565 18 q 374 -18 446 -18 q 210 4 282 -18 q 71 78 139 26 l 157 214 q 238 157 199 179 q 318 119 278 135 q 348 115 333 117 q 378 114 363 114 q 508 142 460 114 q 537 187 528 161 q 546 240 546 213 q 508 331 546 297 q 378 376 471 365 q 172 461 243 393 q 101 640 101 529 q 122 742 101 696 q 181 822 143 789 q 270 874 218 856 q 386 893 322 893 q 545 869 472 893 q 676 799 618 844 l 575 669 m 374 1147 l 469 1292 l 488 1292 l 597 1185 l 394 996 l 296 1063 l 374 1147 z "},"Š":{"ha":774,"x_min":71,"x_max":697,"o":"m 575 669 q 517 717 550 696 q 444 757 483 738 q 419 761 433 760 q 393 763 406 763 q 276 736 325 763 q 258 699 264 721 q 251 653 251 676 q 289 565 251 597 q 414 519 326 532 q 697 246 697 478 q 674 136 697 185 q 608 53 650 88 q 506 0 565 18 q 374 -18 446 -18 q 210 4 282 -18 q 71 78 139 26 l 157 214 q 238 157 199 179 q 318 119 278 135 q 348 115 333 117 q 378 114 363 114 q 508 142 460 114 q 537 187 528 161 q 546 240 546 213 q 508 331 546 297 q 378 376 471 365 q 172 461 243 393 q 101 640 101 529 q 122 742 101 696 q 181 822 143 789 q 270 874 218 856 q 386 893 322 893 q 545 869 472 893 q 676 799 618 844 l 575 669 m 406 1124 l 542 1233 l 638 1161 l 638 1140 l 525 1064 l 417 972 l 385 972 l 279 1057 l 160 1129 l 160 1150 l 267 1236 l 406 1124 z "},"Ŝ":{"ha":774,"x_min":71,"x_max":697,"o":"m 575 669 q 517 717 550 696 q 444 757 483 738 q 419 761 433 760 q 393 763 406 763 q 276 736 325 763 q 258 699 264 721 q 251 653 251 676 q 289 565 251 597 q 414 519 326 532 q 697 246 697 478 q 674 136 697 185 q 608 53 650 88 q 506 0 565 18 q 374 -18 446 -18 q 210 4 282 -18 q 71 78 139 26 l 157 214 q 238 157 199 179 q 318 119 278 135 q 348 115 333 117 q 378 114 363 114 q 508 142 460 114 q 537 187 528 161 q 546 240 546 213 q 508 331 546 297 q 378 376 471 365 q 172 461 243 393 q 101 640 101 529 q 122 742 101 696 q 181 822 143 789 q 270 874 218 856 q 386 893 322 893 q 545 869 472 893 q 676 799 618 844 l 575 669 m 414 1246 l 519 1163 l 636 1090 l 636 1069 l 529 981 l 392 1096 l 254 985 l 158 1058 l 158 1078 l 272 1156 l 381 1246 l 414 1246 z "},"Ť":{"ha":736,"x_min":39,"x_max":696,"o":"m 275 875 l 461 875 l 696 883 l 689 731 l 493 743 l 444 743 l 444 0 l 286 0 l 286 743 l 239 743 l 39 732 l 50 882 l 275 875 m 369 1124 l 506 1233 l 601 1161 l 601 1140 l 489 1064 l 381 972 l 349 972 l 243 1057 l 124 1129 l 124 1150 l 231 1236 l 369 1124 z "},"Ú":{"ha":896,"x_min":108,"x_max":772,"o":"m 281 881 l 281 354 q 325 169 281 228 q 447 111 369 111 q 571 147 522 111 q 615 344 615 213 l 615 718 l 601 868 l 772 881 l 772 353 q 690 82 772 182 q 447 -18 607 -18 q 207 74 292 -18 q 122 347 122 167 l 122 714 l 108 868 l 281 881 m 426 1147 l 522 1292 l 540 1292 l 650 1185 l 447 996 l 349 1063 l 426 1147 z "},"Ŭ":{"ha":896,"x_min":108,"x_max":772,"o":"m 281 881 l 281 354 q 325 169 281 228 q 447 111 369 111 q 571 147 522 111 q 615 344 615 213 l 615 718 l 601 868 l 772 881 l 772 353 q 690 82 772 182 q 447 -18 607 -18 q 207 74 292 -18 q 122 347 122 167 l 122 714 l 108 868 l 281 881 m 363 1219 q 390 1138 367 1168 q 453 1108 414 1108 q 508 1125 489 1108 q 522 1206 522 1151 l 661 1224 q 600 1048 661 1106 q 443 990 539 990 q 295 1045 356 990 q 224 1193 235 1100 l 363 1219 z "},"Û":{"ha":896,"x_min":108,"x_max":772,"o":"m 281 881 l 281 354 q 325 169 281 228 q 447 111 369 111 q 571 147 522 111 q 615 344 615 213 l 615 718 l 601 868 l 772 881 l 772 353 q 690 82 772 182 q 447 -18 607 -18 q 207 74 292 -18 q 122 347 122 167 l 122 714 l 108 868 l 281 881 m 460 1246 l 565 1163 l 682 1090 l 682 1069 l 575 981 l 438 1096 l 300 985 l 204 1058 l 204 1078 l 318 1156 l 426 1246 l 460 1246 z "},"Ü":{"ha":896,"x_min":108,"x_max":772,"o":"m 281 881 l 281 354 q 325 169 281 228 q 447 111 369 111 q 571 147 522 111 q 615 344 615 213 l 615 718 l 601 868 l 772 881 l 772 353 q 690 82 772 182 q 447 -18 607 -18 q 207 74 292 -18 q 122 347 122 167 l 122 714 l 108 868 l 281 881 m 679 1189 l 679 1017 l 507 1022 l 514 1178 l 679 1189 m 378 1190 l 378 1017 l 206 1022 l 211 1175 l 378 1190 z "},"Ù":{"ha":896,"x_min":108,"x_max":772,"o":"m 281 881 l 281 354 q 325 169 281 228 q 447 111 369 111 q 571 147 522 111 q 615 344 615 213 l 615 718 l 601 868 l 772 881 l 772 353 q 690 82 772 182 q 447 -18 607 -18 q 207 74 292 -18 q 122 347 122 167 l 122 714 l 108 868 l 281 881 m 363 1292 l 382 1292 l 478 1147 l 556 1063 l 457 996 l 254 1185 l 363 1292 z "},"Ű":{"ha":896,"x_min":108,"x_max":772,"o":"m 281 881 l 281 354 q 325 169 281 228 q 447 111 369 111 q 571 147 522 111 q 615 344 615 213 l 615 718 l 601 868 l 772 881 l 772 353 q 690 82 772 182 q 447 -18 607 -18 q 207 74 292 -18 q 122 347 122 167 l 122 714 l 108 868 l 281 881 m 304 1151 l 351 1288 l 371 1288 l 492 1204 l 344 993 l 249 1043 l 304 1151 m 635 1256 l 654 1256 l 758 1147 l 639 1058 l 550 979 l 464 1044 l 635 1256 z "},"Ū":{"ha":896,"x_min":108,"x_max":772,"o":"m 281 881 l 281 354 q 325 169 281 228 q 447 111 369 111 q 571 147 522 111 q 615 344 615 213 l 615 718 l 601 868 l 772 881 l 772 353 q 690 82 772 182 q 447 -18 607 -18 q 207 74 292 -18 q 122 347 122 167 l 122 714 l 108 868 l 281 881 m 492 1167 l 676 1190 l 689 1179 l 672 1038 l 208 1026 l 196 1036 l 219 1157 l 492 1167 z "},"Ų":{"ha":896,"x_min":108,"x_max":772,"o":"m 281 881 l 281 354 q 325 169 281 228 q 447 111 369 111 q 571 147 522 111 q 615 344 615 213 l 615 718 l 601 868 l 772 881 l 772 353 q 706 101 772 197 q 508 -14 639 6 q 489 -86 489 -46 q 514 -147 489 -122 q 611 -172 539 -172 l 619 -185 l 571 -306 q 408 -252 467 -306 q 350 -115 350 -199 q 356 -62 350 -87 q 375 -12 361 -36 q 188 98 253 7 q 122 347 122 189 l 122 714 l 108 868 l 281 881 z "},"Ů":{"ha":896,"x_min":108,"x_max":772,"o":"m 281 881 l 281 354 q 325 169 281 228 q 447 111 369 111 q 571 147 522 111 q 615 344 615 213 l 615 718 l 601 868 l 772 881 l 772 353 q 690 82 772 182 q 447 -18 607 -18 q 207 74 292 -18 q 122 347 122 167 l 122 714 l 108 868 l 281 881 m 442 1329 q 519 1315 485 1329 q 578 1277 554 1301 q 614 1221 601 1253 q 626 1151 626 1189 q 613 1085 626 1117 q 576 1030 600 1054 q 517 991 551 1006 q 442 976 483 976 q 306 1026 354 976 q 257 1151 257 1076 q 270 1218 257 1186 q 308 1275 283 1250 q 366 1315 332 1300 q 442 1329 400 1329 m 442 1217 q 392 1204 410 1217 q 379 1153 379 1183 q 397 1106 379 1124 q 442 1088 414 1088 q 469 1091 456 1088 q 492 1100 482 1094 q 504 1153 504 1118 q 487 1199 504 1182 q 442 1217 469 1217 z "},"Ȕ":{"ha":896,"x_min":108,"x_max":772,"o":"m 281 881 l 281 354 q 325 169 281 228 q 447 111 369 111 q 571 147 522 111 q 615 344 615 213 l 615 718 l 601 868 l 772 881 l 772 353 q 690 82 772 182 q 447 -18 607 -18 q 207 74 292 -18 q 122 347 122 167 l 122 714 l 108 868 l 281 881 m 501 1288 l 519 1288 l 568 1151 l 624 1043 l 526 993 l 381 1204 l 501 1288 m 218 1256 l 236 1256 l 407 1044 l 321 979 l 232 1060 l 113 1147 l 218 1256 z "},"Ȗ":{"ha":896,"x_min":108,"x_max":772,"o":"m 281 881 l 281 354 q 325 169 281 228 q 447 111 369 111 q 571 147 522 111 q 615 344 615 213 l 615 718 l 601 868 l 772 881 l 772 353 q 690 82 772 182 q 447 -18 607 -18 q 207 74 292 -18 q 122 347 122 167 l 122 714 l 108 868 l 281 881 m 460 1246 l 565 1163 l 682 1090 l 682 1069 l 575 981 l 438 1096 l 300 985 l 204 1058 l 204 1078 l 318 1156 l 426 1246 l 460 1246 z "},"Ŵ":{"ha":1160,"x_min":43,"x_max":1117,"o":"m 231 881 l 250 689 l 319 371 l 351 168 l 368 168 l 471 681 l 497 867 l 671 875 l 785 371 l 819 168 l 835 168 l 931 681 l 940 875 l 1117 875 l 1117 853 l 1075 624 l 953 149 l 929 3 l 714 -6 l 593 597 l 578 597 l 501 188 l 482 4 l 247 -7 l 43 847 l 43 868 l 231 881 m 604 1246 l 710 1163 l 826 1090 l 826 1069 l 719 981 l 582 1096 l 444 985 l 349 1058 l 349 1078 l 463 1156 l 571 1246 l 604 1246 z "},"Ý":{"ha":799,"x_min":43,"x_max":754,"o":"m 229 881 l 279 710 l 411 390 l 426 390 l 539 681 l 578 875 l 754 875 l 754 854 l 689 669 l 490 243 l 490 0 l 333 0 l 333 244 l 43 849 l 43 868 l 229 881 m 382 1147 l 478 1292 l 496 1292 l 606 1185 l 403 996 l 304 1063 l 382 1147 z "},"Ŷ":{"ha":799,"x_min":43,"x_max":754,"o":"m 229 881 l 279 710 l 411 390 l 426 390 l 539 681 l 578 875 l 754 875 l 754 854 l 689 669 l 490 243 l 490 0 l 333 0 l 333 244 l 43 849 l 43 868 l 229 881 m 429 1246 l 535 1163 l 651 1090 l 651 1069 l 544 981 l 407 1096 l 269 985 l 174 1058 l 174 1078 l 288 1156 l 396 1246 l 429 1246 z "},"Ÿ":{"ha":799,"x_min":43,"x_max":754,"o":"m 229 881 l 279 710 l 411 390 l 426 390 l 539 681 l 578 875 l 754 875 l 754 854 l 689 669 l 490 243 l 490 0 l 333 0 l 333 244 l 43 849 l 43 868 l 229 881 m 650 1189 l 650 1017 l 478 1022 l 485 1178 l 650 1189 m 349 1190 l 349 1017 l 176 1022 l 182 1175 l 349 1190 z "},"Ź":{"ha":718,"x_min":58,"x_max":660,"o":"m 640 875 l 649 772 l 244 126 l 328 126 l 644 147 l 660 132 l 644 0 l 67 0 l 58 97 l 464 747 l 381 747 l 79 726 l 67 742 l 83 875 l 640 875 m 333 1147 l 429 1292 l 447 1292 l 557 1185 l 354 996 l 256 1063 l 333 1147 z "},"Ž":{"ha":718,"x_min":58,"x_max":660,"o":"m 640 875 l 649 772 l 244 126 l 328 126 l 644 147 l 660 132 l 644 0 l 67 0 l 58 97 l 464 747 l 381 747 l 79 726 l 67 742 l 83 875 l 640 875 m 364 1124 l 500 1233 l 596 1161 l 596 1140 l 483 1064 l 375 972 l 343 972 l 238 1057 l 118 1129 l 118 1150 l 225 1236 l 364 1124 z "},"Ż":{"ha":718,"x_min":58,"x_max":660,"o":"m 640 875 l 649 772 l 244 126 l 328 126 l 644 147 l 660 132 l 644 0 l 67 0 l 58 97 l 464 747 l 381 747 l 79 726 l 67 742 l 83 875 l 640 875 m 450 1194 l 450 1013 l 271 1018 l 276 1179 l 450 1194 z "},"á":{"ha":700,"x_min":69,"x_max":651,"o":"m 81 528 q 357 613 200 613 q 528 551 471 613 q 586 376 586 489 l 586 158 l 651 56 l 532 -21 l 469 67 q 407 22 440 42 q 338 -11 374 3 q 276 -15 313 -15 q 124 31 179 -15 q 69 161 69 78 q 120 284 69 236 q 265 344 171 332 l 435 368 l 439 382 l 439 403 q 412 467 439 444 q 340 489 385 489 q 303 488 321 489 q 272 483 286 486 q 217 453 244 469 q 165 414 190 436 l 81 528 m 435 257 l 306 249 q 238 231 267 246 q 222 176 222 207 q 243 124 222 143 q 306 106 264 106 q 435 171 388 106 l 435 257 m 304 846 l 401 1018 l 419 1018 l 521 924 l 343 724 l 247 771 l 304 846 z "},"ȍ":{"ha":733,"x_min":69,"x_max":663,"o":"m 367 613 q 488 590 433 613 q 581 527 543 568 q 641 428 619 486 q 663 299 663 371 q 640 172 663 229 q 579 72 618 114 q 485 8 540 31 q 367 -15 431 -15 q 245 7 300 -15 q 151 69 190 29 q 92 168 113 110 q 71 299 71 226 q 93 424 71 367 q 154 524 115 482 q 247 589 193 565 q 367 613 301 613 m 367 110 q 420 117 394 110 q 469 142 446 124 q 499 214 490 175 q 508 299 508 253 q 497 385 508 350 q 465 443 485 421 q 419 476 444 465 q 367 486 393 486 q 312 479 338 486 q 263 454 286 472 q 233 382 242 421 q 225 299 225 343 q 237 211 225 247 q 269 153 249 175 q 314 120 289 131 q 367 110 339 110 m 436 1007 l 454 1007 l 493 875 l 539 763 l 444 728 l 318 926 l 436 1007 m 169 985 l 188 985 l 346 768 l 260 721 l 188 792 l 69 885 l 169 985 z "},"ȏ":{"ha":733,"x_min":71,"x_max":663,"o":"m 367 613 q 488 590 433 613 q 581 527 543 568 q 641 428 619 486 q 663 299 663 371 q 640 172 663 229 q 579 72 618 114 q 485 8 540 31 q 367 -15 431 -15 q 245 7 300 -15 q 151 69 190 29 q 92 168 113 110 q 71 299 71 226 q 93 424 71 367 q 154 524 115 482 q 247 589 193 565 q 367 613 301 613 m 367 110 q 420 117 394 110 q 469 142 446 124 q 499 214 490 175 q 508 299 508 253 q 497 385 508 350 q 465 443 485 421 q 419 476 444 465 q 367 486 393 486 q 312 479 338 486 q 263 454 286 472 q 233 382 242 421 q 225 299 225 343 q 237 211 225 247 q 269 153 249 175 q 314 120 289 131 q 367 110 339 110 m 388 979 l 486 892 l 588 821 l 588 801 l 486 713 l 364 833 l 235 718 l 146 790 l 146 810 l 251 889 l 351 979 l 388 979 z "},"ȅ":{"ha":694,"x_min":61,"x_max":624,"o":"m 343 250 l 225 254 q 267 146 226 183 q 374 108 307 108 q 468 122 424 108 q 557 167 513 136 l 617 57 q 369 -15 510 -15 q 149 68 226 -15 q 71 299 71 151 q 92 427 71 369 q 153 526 114 485 q 247 590 193 568 q 365 613 300 613 q 474 592 426 613 q 556 533 522 571 q 606 441 589 494 q 624 321 624 388 l 624 264 l 343 250 m 471 371 q 440 458 471 425 q 356 490 408 490 q 254 457 293 490 q 225 356 225 415 l 471 371 m 428 1007 l 446 1007 l 485 875 l 531 763 l 436 728 l 310 926 l 428 1007 m 161 985 l 179 985 l 338 768 l 251 721 l 179 792 l 61 885 l 161 985 z "},"ȇ":{"ha":694,"x_min":71,"x_max":624,"o":"m 343 250 l 225 254 q 267 146 226 183 q 374 108 307 108 q 468 122 424 108 q 557 167 513 136 l 617 57 q 369 -15 510 -15 q 149 68 226 -15 q 71 299 71 151 q 92 427 71 369 q 153 526 114 485 q 247 590 193 568 q 365 613 300 613 q 474 592 426 613 q 556 533 522 571 q 606 441 589 494 q 624 321 624 388 l 624 264 l 343 250 m 471 371 q 440 458 471 425 q 356 490 408 490 q 254 457 293 490 q 225 356 225 415 l 471 371 m 381 979 l 479 892 l 581 821 l 581 801 l 479 713 l 357 833 l 228 718 l 139 790 l 139 810 l 244 889 l 344 979 l 381 979 z "},"ȁ":{"ha":700,"x_min":56,"x_max":651,"o":"m 81 528 q 357 613 200 613 q 528 551 471 613 q 586 376 586 489 l 586 158 l 651 56 l 532 -21 l 469 67 q 407 22 440 42 q 338 -11 374 3 q 276 -15 313 -15 q 124 31 179 -15 q 69 161 69 78 q 120 284 69 236 q 265 344 171 332 l 435 368 l 439 382 l 439 403 q 412 467 439 444 q 340 489 385 489 q 303 488 321 489 q 272 483 286 486 q 217 453 244 469 q 165 414 190 436 l 81 528 m 435 257 l 306 249 q 238 231 267 246 q 222 176 222 207 q 243 124 222 143 q 306 106 264 106 q 435 171 388 106 l 435 257 m 422 1007 l 440 1007 l 479 875 l 525 763 l 431 728 l 304 926 l 422 1007 m 156 985 l 174 985 l 332 768 l 246 721 l 174 792 l 56 885 l 156 985 z "},"ȃ":{"ha":700,"x_min":69,"x_max":651,"o":"m 81 528 q 357 613 200 613 q 528 551 471 613 q 586 376 586 489 l 586 158 l 651 56 l 532 -21 l 469 67 q 407 22 440 42 q 338 -11 374 3 q 276 -15 313 -15 q 124 31 179 -15 q 69 161 69 78 q 120 284 69 236 q 265 344 171 332 l 435 368 l 439 382 l 439 403 q 412 467 439 444 q 340 489 385 489 q 303 488 321 489 q 272 483 286 486 q 217 453 244 469 q 165 414 190 436 l 81 528 m 435 257 l 306 249 q 238 231 267 246 q 222 176 222 207 q 243 124 222 143 q 306 106 264 106 q 435 171 388 106 l 435 257 m 369 979 l 468 892 l 569 821 l 569 801 l 468 713 l 346 833 l 217 718 l 128 790 l 128 810 l 233 889 l 333 979 l 369 979 z "},"ȕ":{"ha":728,"x_min":57,"x_max":675,"o":"m 244 604 l 244 219 q 269 141 244 168 q 336 114 293 114 q 469 203 414 114 l 469 461 l 457 592 l 624 604 l 624 168 l 675 46 l 531 -15 l 490 72 q 376 -11 438 21 q 317 -15 347 -15 q 147 48 204 -15 q 90 215 90 111 l 90 461 l 78 592 l 244 604 m 424 1007 l 442 1007 l 481 875 l 526 763 l 432 728 l 306 926 l 424 1007 m 157 985 l 175 985 l 333 768 l 247 721 l 175 792 l 57 885 l 157 985 z "},"ȗ":{"ha":728,"x_min":78,"x_max":675,"o":"m 244 604 l 244 219 q 269 141 244 168 q 336 114 293 114 q 469 203 414 114 l 469 461 l 457 592 l 624 604 l 624 168 l 675 46 l 531 -15 l 490 72 q 376 -11 438 21 q 317 -15 347 -15 q 147 48 204 -15 q 90 215 90 111 l 90 461 l 78 592 l 244 604 m 378 979 l 476 892 l 578 821 l 578 801 l 476 713 l 354 833 l 225 718 l 136 790 l 136 810 l 242 889 l 342 979 l 378 979 z "},"ȑ":{"ha":558,"x_min":18,"x_max":522,"o":"m 200 613 l 239 524 q 361 608 294 572 q 413 613 383 613 q 469 606 440 613 q 522 585 497 600 l 471 433 q 423 458 447 449 q 369 467 399 467 q 308 447 335 467 q 260 390 282 426 l 260 0 l 106 0 l 106 432 l 56 551 l 200 613 m 385 1007 l 403 1007 l 442 875 l 488 763 l 393 728 l 267 926 l 385 1007 m 118 985 l 136 985 l 294 768 l 208 721 l 136 792 l 18 885 l 118 985 z "},"ȓ":{"ha":558,"x_min":56,"x_max":524,"o":"m 200 613 l 239 524 q 361 608 294 572 q 413 613 383 613 q 469 606 440 613 q 522 585 497 600 l 471 433 q 423 458 447 449 q 369 467 399 467 q 308 447 335 467 q 260 390 282 426 l 260 0 l 106 0 l 106 432 l 56 551 l 200 613 m 324 979 l 422 892 l 524 821 l 524 801 l 422 713 l 300 833 l 171 718 l 82 790 l 82 810 l 188 889 l 288 979 l 324 979 z "},"ĭ":{"ha":333,"x_min":-35,"x_max":372,"o":"m 243 604 l 243 0 l 90 0 l 90 461 l 78 592 l 243 604 m 96 944 q 174 838 106 838 q 228 853 206 838 q 243 935 243 886 l 372 951 q 357 851 372 893 q 315 781 342 808 q 249 740 288 753 q 167 726 211 726 q 31 778 85 726 q -35 921 -24 829 l 96 944 z "},"ă":{"ha":700,"x_min":69,"x_max":651,"o":"m 81 528 q 357 613 200 613 q 528 551 471 613 q 586 376 586 489 l 586 158 l 651 56 l 532 -21 l 469 67 q 407 22 440 42 q 338 -11 374 3 q 276 -15 313 -15 q 124 31 179 -15 q 69 161 69 78 q 120 284 69 236 q 265 344 171 332 l 435 368 l 439 382 l 439 403 q 412 467 439 444 q 340 489 385 489 q 303 488 321 489 q 272 483 286 486 q 217 453 244 469 q 165 414 190 436 l 81 528 m 435 257 l 306 249 q 238 231 267 246 q 222 176 222 207 q 243 124 222 143 q 306 106 264 106 q 435 171 388 106 l 435 257 m 271 944 q 349 838 281 838 q 403 853 381 838 q 418 935 418 886 l 547 951 q 532 851 547 893 q 490 781 517 808 q 424 740 463 753 q 342 726 386 726 q 206 778 260 726 q 140 921 151 829 l 271 944 z "},"â":{"ha":700,"x_min":69,"x_max":651,"o":"m 81 528 q 357 613 200 613 q 528 551 471 613 q 586 376 586 489 l 586 158 l 651 56 l 532 -21 l 469 67 q 407 22 440 42 q 338 -11 374 3 q 276 -15 313 -15 q 124 31 179 -15 q 69 161 69 78 q 120 284 69 236 q 265 344 171 332 l 435 368 l 439 382 l 439 403 q 412 467 439 444 q 340 489 385 489 q 303 488 321 489 q 272 483 286 486 q 217 453 244 469 q 165 414 190 436 l 81 528 m 435 257 l 306 249 q 238 231 267 246 q 222 176 222 207 q 243 124 222 143 q 306 106 264 106 q 435 171 388 106 l 435 257 m 369 979 l 468 892 l 569 821 l 569 801 l 468 713 l 346 833 l 217 718 l 128 790 l 128 810 l 233 889 l 333 979 l 369 979 z "},"ä":{"ha":700,"x_min":69,"x_max":651,"o":"m 81 528 q 357 613 200 613 q 528 551 471 613 q 586 376 586 489 l 586 158 l 651 56 l 532 -21 l 469 67 q 407 22 440 42 q 338 -11 374 3 q 276 -15 313 -15 q 124 31 179 -15 q 69 161 69 78 q 120 284 69 236 q 265 344 171 332 l 435 368 l 439 382 l 439 403 q 412 467 439 444 q 340 489 385 489 q 303 488 321 489 q 272 483 286 486 q 217 453 244 469 q 165 414 190 436 l 81 528 m 435 257 l 306 249 q 238 231 267 246 q 222 176 222 207 q 243 124 222 143 q 306 106 264 106 q 435 171 388 106 l 435 257 m 563 906 l 563 744 l 400 750 l 406 896 l 563 906 m 297 907 l 297 744 l 135 751 l 140 893 l 297 907 z "},"à":{"ha":700,"x_min":69,"x_max":651,"o":"m 81 528 q 357 613 200 613 q 528 551 471 613 q 586 376 586 489 l 586 158 l 651 56 l 532 -21 l 469 67 q 407 22 440 42 q 338 -11 374 3 q 276 -15 313 -15 q 124 31 179 -15 q 69 161 69 78 q 120 284 69 236 q 265 344 171 332 l 435 368 l 439 382 l 439 403 q 412 467 439 444 q 340 489 385 489 q 303 488 321 489 q 272 483 286 486 q 217 453 244 469 q 165 414 190 436 l 81 528 m 435 257 l 306 249 q 238 231 267 246 q 222 176 222 207 q 243 124 222 143 q 306 106 264 106 q 435 171 388 106 l 435 257 m 278 1018 l 349 894 l 435 771 l 340 724 l 151 924 l 258 1018 l 278 1018 z "},"ā":{"ha":700,"x_min":69,"x_max":651,"o":"m 81 528 q 357 613 200 613 q 528 551 471 613 q 586 376 586 489 l 586 158 l 651 56 l 532 -21 l 469 67 q 407 22 440 42 q 338 -11 374 3 q 276 -15 313 -15 q 124 31 179 -15 q 69 161 69 78 q 120 284 69 236 q 265 344 171 332 l 435 368 l 439 382 l 439 403 q 412 467 439 444 q 340 489 385 489 q 303 488 321 489 q 272 483 286 486 q 217 453 244 469 q 165 414 190 436 l 81 528 m 435 257 l 306 249 q 238 231 267 246 q 222 176 222 207 q 243 124 222 143 q 306 106 264 106 q 435 171 388 106 l 435 257 m 369 885 l 543 904 l 554 893 l 539 763 l 157 751 l 144 763 l 168 875 l 369 885 z "},"å":{"ha":700,"x_min":69,"x_max":651,"o":"m 81 528 q 357 613 200 613 q 528 551 471 613 q 586 376 586 489 l 586 158 l 651 56 l 532 -21 l 469 67 q 407 22 440 42 q 338 -11 374 3 q 276 -15 313 -15 q 124 31 179 -15 q 69 161 69 78 q 120 284 69 236 q 265 344 171 332 l 435 368 l 439 382 l 439 403 q 412 467 439 444 q 340 489 385 489 q 303 488 321 489 q 272 483 286 486 q 217 453 244 469 q 165 414 190 436 l 81 528 m 435 257 l 306 249 q 238 231 267 246 q 222 176 222 207 q 243 124 222 143 q 306 106 264 106 q 435 171 388 106 l 435 257 m 351 1035 q 424 1021 393 1035 q 477 984 456 1007 q 510 931 499 961 q 521 869 521 901 q 509 808 521 838 q 475 756 497 779 q 422 719 453 733 q 351 706 390 706 q 274 719 306 706 q 221 756 242 733 q 190 808 200 779 q 181 869 181 838 q 192 931 181 901 q 226 984 204 961 q 280 1021 249 1007 q 351 1035 311 1035 m 351 928 q 303 915 321 928 q 295 894 297 907 q 293 869 293 882 q 308 826 293 843 q 351 810 324 810 q 396 821 376 810 q 407 869 407 840 q 392 912 407 896 q 351 928 376 928 z "},"ć":{"ha":657,"x_min":71,"x_max":600,"o":"m 489 422 q 445 457 468 442 q 394 485 422 472 q 376 487 386 486 q 357 488 367 488 q 261 454 303 488 q 233 385 242 422 q 225 301 225 349 q 267 159 225 207 q 378 111 310 111 q 533 172 460 111 l 600 61 q 490 3 549 21 q 365 -15 432 -15 q 241 7 296 -15 q 149 69 186 29 q 91 167 111 110 q 71 296 71 225 q 94 430 71 371 q 157 530 117 489 q 253 592 197 571 q 374 613 308 613 q 593 540 506 613 l 489 422 m 339 846 l 436 1018 l 454 1018 l 556 924 l 378 724 l 282 771 l 339 846 z "},"č":{"ha":657,"x_min":71,"x_max":600,"o":"m 489 422 q 445 457 468 442 q 394 485 422 472 q 376 487 386 486 q 357 488 367 488 q 261 454 303 488 q 233 385 242 422 q 225 301 225 349 q 267 159 225 207 q 378 111 310 111 q 533 172 460 111 l 600 61 q 490 3 549 21 q 365 -15 432 -15 q 241 7 296 -15 q 149 69 186 29 q 91 167 111 110 q 71 296 71 225 q 94 430 71 371 q 157 530 117 489 q 253 592 197 571 q 374 613 308 613 q 593 540 506 613 l 489 422 m 374 861 l 497 976 l 588 904 l 588 885 l 482 804 l 386 715 l 351 715 l 258 796 l 146 872 l 146 893 l 246 981 l 374 861 z "},"ĉ":{"ha":657,"x_min":71,"x_max":600,"o":"m 489 422 q 445 457 468 442 q 394 485 422 472 q 376 487 386 486 q 357 488 367 488 q 261 454 303 488 q 233 385 242 422 q 225 301 225 349 q 267 159 225 207 q 378 111 310 111 q 533 172 460 111 l 600 61 q 490 3 549 21 q 365 -15 432 -15 q 241 7 296 -15 q 149 69 186 29 q 91 167 111 110 q 71 296 71 225 q 94 430 71 371 q 157 530 117 489 q 253 592 197 571 q 374 613 308 613 q 593 540 506 613 l 489 422 m 396 979 l 494 892 l 596 821 l 596 801 l 494 713 l 372 833 l 243 718 l 154 790 l 154 810 l 260 889 l 360 979 l 396 979 z "},"ċ":{"ha":657,"x_min":71,"x_max":600,"o":"m 489 422 q 445 457 468 442 q 394 485 422 472 q 376 487 386 486 q 357 488 367 488 q 261 454 303 488 q 233 385 242 422 q 225 301 225 349 q 267 159 225 207 q 378 111 310 111 q 533 172 460 111 l 600 61 q 490 3 549 21 q 365 -15 432 -15 q 241 7 296 -15 q 149 69 186 29 q 91 167 111 110 q 71 296 71 225 q 94 430 71 371 q 157 530 117 489 q 253 592 197 571 q 374 613 308 613 q 593 540 506 613 l 489 422 m 461 910 l 461 744 l 290 751 l 296 896 l 461 910 z "},"ď":{"ha":900,"x_min":71,"x_max":915,"o":"m 638 917 l 638 163 l 690 47 l 554 -17 l 514 58 q 456 19 488 39 q 392 -11 425 0 q 331 -15 363 -15 q 139 66 207 -15 q 71 294 71 147 q 91 430 71 371 q 148 529 111 489 q 235 591 185 569 q 347 613 286 613 q 426 603 392 613 q 485 579 461 594 l 485 768 l 474 904 l 638 917 m 485 447 q 361 489 432 489 q 260 453 303 489 q 233 383 242 424 q 225 293 225 342 q 350 110 225 110 q 424 128 389 110 q 485 186 458 147 l 485 447 m 907 896 l 915 868 l 839 628 l 735 653 l 757 790 l 757 888 l 907 896 z "},"đ":{"ha":735,"x_min":71,"x_max":739,"o":"m 638 919 l 638 811 l 726 822 l 739 811 l 724 693 l 638 689 l 638 163 l 690 47 l 554 -17 l 514 58 q 456 19 488 39 q 392 -11 425 0 q 331 -15 363 -15 q 139 66 207 -15 q 71 294 71 147 q 91 430 71 371 q 148 529 111 489 q 235 591 185 569 q 347 613 286 613 q 426 603 392 613 q 485 579 461 594 l 485 683 l 329 674 l 317 685 l 340 789 l 483 796 l 474 907 l 638 919 m 485 447 q 361 489 432 489 q 260 453 303 489 q 233 383 242 424 q 225 293 225 342 q 350 110 225 110 q 424 128 389 110 q 485 186 458 147 l 485 447 z "},"é":{"ha":694,"x_min":71,"x_max":624,"o":"m 343 250 l 225 254 q 267 146 226 183 q 374 108 307 108 q 468 122 424 108 q 557 167 513 136 l 617 57 q 369 -15 510 -15 q 149 68 226 -15 q 71 299 71 151 q 92 427 71 369 q 153 526 114 485 q 247 590 193 568 q 365 613 300 613 q 474 592 426 613 q 556 533 522 571 q 606 441 589 494 q 624 321 624 388 l 624 264 l 343 250 m 471 371 q 440 458 471 425 q 356 490 408 490 q 254 457 293 490 q 225 356 225 415 l 471 371 m 347 846 l 444 1018 l 463 1018 l 564 924 l 386 724 l 290 771 l 347 846 z "},"ĕ":{"ha":694,"x_min":71,"x_max":624,"o":"m 343 250 l 225 254 q 267 146 226 183 q 374 108 307 108 q 468 122 424 108 q 557 167 513 136 l 617 57 q 369 -15 510 -15 q 149 68 226 -15 q 71 299 71 151 q 92 427 71 369 q 153 526 114 485 q 247 590 193 568 q 365 613 300 613 q 474 592 426 613 q 556 533 522 571 q 606 441 589 494 q 624 321 624 388 l 624 264 l 343 250 m 471 371 q 440 458 471 425 q 356 490 408 490 q 254 457 293 490 q 225 356 225 415 l 471 371 m 288 944 q 365 838 297 838 q 419 853 397 838 q 435 935 435 886 l 564 951 q 549 851 564 893 q 506 781 533 808 q 441 740 479 753 q 358 726 403 726 q 222 778 276 726 q 157 921 168 829 l 288 944 z "},"ě":{"ha":694,"x_min":71,"x_max":624,"o":"m 343 250 l 225 254 q 267 146 226 183 q 374 108 307 108 q 468 122 424 108 q 557 167 513 136 l 617 57 q 369 -15 510 -15 q 149 68 226 -15 q 71 299 71 151 q 92 427 71 369 q 153 526 114 485 q 247 590 193 568 q 365 613 300 613 q 474 592 426 613 q 556 533 522 571 q 606 441 589 494 q 624 321 624 388 l 624 264 l 343 250 m 471 371 q 440 458 471 425 q 356 490 408 490 q 254 457 293 490 q 225 356 225 415 l 471 371 m 365 861 l 489 976 l 579 904 l 579 885 l 474 804 l 378 715 l 343 715 l 250 796 l 138 872 l 138 893 l 238 981 l 365 861 z "},"ê":{"ha":694,"x_min":71,"x_max":624,"o":"m 343 250 l 225 254 q 267 146 226 183 q 374 108 307 108 q 468 122 424 108 q 557 167 513 136 l 617 57 q 369 -15 510 -15 q 149 68 226 -15 q 71 299 71 151 q 92 427 71 369 q 153 526 114 485 q 247 590 193 568 q 365 613 300 613 q 474 592 426 613 q 556 533 522 571 q 606 441 589 494 q 624 321 624 388 l 624 264 l 343 250 m 471 371 q 440 458 471 425 q 356 490 408 490 q 254 457 293 490 q 225 356 225 415 l 471 371 m 381 979 l 479 892 l 581 821 l 581 801 l 479 713 l 357 833 l 228 718 l 139 790 l 139 810 l 244 889 l 344 979 l 381 979 z "},"ë":{"ha":694,"x_min":71,"x_max":624,"o":"m 343 250 l 225 254 q 267 146 226 183 q 374 108 307 108 q 468 122 424 108 q 557 167 513 136 l 617 57 q 369 -15 510 -15 q 149 68 226 -15 q 71 299 71 151 q 92 427 71 369 q 153 526 114 485 q 247 590 193 568 q 365 613 300 613 q 474 592 426 613 q 556 533 522 571 q 606 441 589 494 q 624 321 624 388 l 624 264 l 343 250 m 471 371 q 440 458 471 425 q 356 490 408 490 q 254 457 293 490 q 225 356 225 415 l 471 371 m 575 906 l 575 744 l 413 750 l 418 896 l 575 906 m 310 907 l 310 744 l 147 751 l 153 893 l 310 907 z "},"ė":{"ha":694,"x_min":71,"x_max":624,"o":"m 343 250 l 225 254 q 267 146 226 183 q 374 108 307 108 q 468 122 424 108 q 557 167 513 136 l 617 57 q 369 -15 510 -15 q 149 68 226 -15 q 71 299 71 151 q 92 427 71 369 q 153 526 114 485 q 247 590 193 568 q 365 613 300 613 q 474 592 426 613 q 556 533 522 571 q 606 441 589 494 q 624 321 624 388 l 624 264 l 343 250 m 471 371 q 440 458 471 425 q 356 490 408 490 q 254 457 293 490 q 225 356 225 415 l 471 371 m 447 910 l 447 744 l 276 751 l 282 896 l 447 910 z "},"è":{"ha":694,"x_min":71,"x_max":624,"o":"m 343 250 l 225 254 q 267 146 226 183 q 374 108 307 108 q 468 122 424 108 q 557 167 513 136 l 617 57 q 369 -15 510 -15 q 149 68 226 -15 q 71 299 71 151 q 92 427 71 369 q 153 526 114 485 q 247 590 193 568 q 365 613 300 613 q 474 592 426 613 q 556 533 522 571 q 606 441 589 494 q 624 321 624 388 l 624 264 l 343 250 m 471 371 q 440 458 471 425 q 356 490 408 490 q 254 457 293 490 q 225 356 225 415 l 471 371 m 306 1018 l 376 894 l 463 771 l 368 724 l 179 924 l 286 1018 l 306 1018 z "},"ē":{"ha":694,"x_min":71,"x_max":624,"o":"m 343 250 l 225 254 q 267 146 226 183 q 374 108 307 108 q 468 122 424 108 q 557 167 513 136 l 617 57 q 369 -15 510 -15 q 149 68 226 -15 q 71 299 71 151 q 92 427 71 369 q 153 526 114 485 q 247 590 193 568 q 365 613 300 613 q 474 592 426 613 q 556 533 522 571 q 606 441 589 494 q 624 321 624 388 l 624 264 l 343 250 m 471 371 q 440 458 471 425 q 356 490 408 490 q 254 457 293 490 q 225 356 225 415 l 471 371 m 385 885 l 558 904 l 569 893 l 554 763 l 172 751 l 160 763 l 183 875 l 385 885 z "},"ğ":{"ha":697,"x_min":49,"x_max":663,"o":"m 335 613 q 418 600 381 613 l 653 619 l 663 606 l 643 494 l 547 501 q 582 393 582 447 q 565 308 582 347 q 515 238 547 268 q 436 191 482 208 q 335 174 390 174 q 257 182 292 174 q 247 158 250 171 q 244 135 244 146 q 258 93 244 108 q 301 78 271 78 l 408 78 q 578 28 521 78 q 635 -107 635 -21 q 612 -203 635 -158 q 546 -283 589 -249 q 442 -336 503 -317 q 306 -356 381 -356 q 116 -298 183 -356 q 49 -146 49 -240 q 57 -83 49 -115 q 132 18 88 -26 q 106 106 106 56 q 110 151 106 128 q 164 225 129 190 q 89 393 89 285 q 106 478 89 439 q 156 548 124 518 q 234 595 189 578 q 335 613 279 613 m 225 -33 q 190 -128 190 -67 q 225 -203 190 -176 q 319 -231 260 -231 q 460 -203 401 -231 q 484 -167 476 -187 q 492 -124 492 -146 q 394 -43 492 -43 l 267 -43 l 225 -33 m 254 474 q 229 393 229 442 q 256 321 229 349 q 335 293 283 293 q 417 313 382 293 q 442 393 442 342 q 415 465 442 438 q 335 493 388 493 q 292 488 314 493 q 254 474 271 483 m 267 944 q 344 838 276 838 q 399 853 376 838 q 414 935 414 886 l 543 951 q 528 851 543 893 q 485 781 513 808 q 420 740 458 753 q 338 726 382 726 q 201 778 256 726 q 136 921 147 829 l 267 944 z "},"ĝ":{"ha":697,"x_min":49,"x_max":663,"o":"m 335 613 q 418 600 381 613 l 653 619 l 663 606 l 643 494 l 547 501 q 582 393 582 447 q 565 308 582 347 q 515 238 547 268 q 436 191 482 208 q 335 174 390 174 q 257 182 292 174 q 247 158 250 171 q 244 135 244 146 q 258 93 244 108 q 301 78 271 78 l 408 78 q 578 28 521 78 q 635 -107 635 -21 q 612 -203 635 -158 q 546 -283 589 -249 q 442 -336 503 -317 q 306 -356 381 -356 q 116 -298 183 -356 q 49 -146 49 -240 q 57 -83 49 -115 q 132 18 88 -26 q 106 106 106 56 q 110 151 106 128 q 164 225 129 190 q 89 393 89 285 q 106 478 89 439 q 156 548 124 518 q 234 595 189 578 q 335 613 279 613 m 225 -33 q 190 -128 190 -67 q 225 -203 190 -176 q 319 -231 260 -231 q 460 -203 401 -231 q 484 -167 476 -187 q 492 -124 492 -146 q 394 -43 492 -43 l 267 -43 l 225 -33 m 254 474 q 229 393 229 442 q 256 321 229 349 q 335 293 283 293 q 417 313 382 293 q 442 393 442 342 q 415 465 442 438 q 335 493 388 493 q 292 488 314 493 q 254 474 271 483 m 367 979 l 465 892 l 567 821 l 567 801 l 465 713 l 343 833 l 214 718 l 125 790 l 125 810 l 231 889 l 331 979 l 367 979 z "},"ģ":{"ha":697,"x_min":49,"x_max":663,"o":"m 335 613 q 418 600 381 613 l 653 619 l 663 606 l 643 494 l 547 501 q 582 393 582 447 q 565 308 582 347 q 515 238 547 268 q 436 191 482 208 q 335 174 390 174 q 257 182 292 174 q 247 158 250 171 q 244 135 244 146 q 258 93 244 108 q 301 78 271 78 l 408 78 q 578 28 521 78 q 635 -107 635 -21 q 612 -203 635 -158 q 546 -283 589 -249 q 442 -336 503 -317 q 306 -356 381 -356 q 116 -298 183 -356 q 49 -146 49 -240 q 57 -83 49 -115 q 132 18 88 -26 q 106 106 106 56 q 110 151 106 128 q 164 225 129 190 q 89 393 89 285 q 106 478 89 439 q 156 548 124 518 q 234 595 189 578 q 335 613 279 613 m 225 -33 q 190 -128 190 -67 q 225 -203 190 -176 q 319 -231 260 -231 q 460 -203 401 -231 q 484 -167 476 -187 q 492 -124 492 -146 q 394 -43 492 -43 l 267 -43 l 225 -33 m 254 474 q 229 393 229 442 q 256 321 229 349 q 335 293 283 293 q 417 313 382 293 q 442 393 442 342 q 415 465 442 438 q 335 493 388 493 q 292 488 314 493 q 254 474 271 483 m 276 710 l 268 737 l 344 978 l 449 953 l 426 815 l 426 718 l 276 710 z "},"ġ":{"ha":697,"x_min":49,"x_max":663,"o":"m 335 613 q 418 600 381 613 l 653 619 l 663 606 l 643 494 l 547 501 q 582 393 582 447 q 565 308 582 347 q 515 238 547 268 q 436 191 482 208 q 335 174 390 174 q 257 182 292 174 q 247 158 250 171 q 244 135 244 146 q 258 93 244 108 q 301 78 271 78 l 408 78 q 578 28 521 78 q 635 -107 635 -21 q 612 -203 635 -158 q 546 -283 589 -249 q 442 -336 503 -317 q 306 -356 381 -356 q 116 -298 183 -356 q 49 -146 49 -240 q 57 -83 49 -115 q 132 18 88 -26 q 106 106 106 56 q 110 151 106 128 q 164 225 129 190 q 89 393 89 285 q 106 478 89 439 q 156 548 124 518 q 234 595 189 578 q 335 613 279 613 m 225 -33 q 190 -128 190 -67 q 225 -203 190 -176 q 319 -231 260 -231 q 460 -203 401 -231 q 484 -167 476 -187 q 492 -124 492 -146 q 394 -43 492 -43 l 267 -43 l 225 -33 m 254 474 q 229 393 229 442 q 256 321 229 349 q 335 293 283 293 q 417 313 382 293 q 442 393 442 342 q 415 465 442 438 q 335 493 388 493 q 292 488 314 493 q 254 474 271 483 m 432 910 l 432 744 l 261 751 l 267 896 l 432 910 z "},"ĥ":{"ha":729,"x_min":-40,"x_max":639,"o":"m 251 915 l 251 536 q 301 574 275 556 q 356 606 328 592 q 414 613 386 613 q 517 596 474 613 q 587 549 560 579 q 626 475 614 518 q 639 381 639 432 l 639 0 l 485 0 l 485 376 q 393 482 485 482 q 317 460 356 482 q 251 394 279 438 l 251 0 l 99 0 l 99 769 l 86 904 l 251 915 m 201 1246 l 300 1158 l 401 1088 l 401 1068 l 300 979 l 178 1100 l 49 985 l -40 1057 l -40 1076 l 65 1156 l 165 1246 l 201 1246 z "},"ï":{"ha":333,"x_min":-28,"x_max":365,"o":"m 243 604 l 243 0 l 90 0 l 90 461 l 78 592 l 243 604 m 365 906 l 365 744 l 208 750 l 214 896 l 365 906 m 129 907 l 129 744 l -28 751 l -22 893 l 129 907 z "},"ì":{"ha":333,"x_min":-26,"x_max":257,"o":"m 243 604 l 243 0 l 90 0 l 90 461 l 78 592 l 243 604 m 100 1018 l 171 894 l 257 771 l 163 724 l -26 924 l 81 1018 l 100 1018 z "},"ī":{"ha":333,"x_min":3,"x_max":336,"o":"m 243 604 l 243 0 l 90 0 l 90 461 l 78 592 l 243 604 m 172 885 l 324 907 l 336 896 l 321 763 l 15 756 l 3 765 l 26 876 l 172 885 z "},"ȷ":{"ha":338,"x_min":-67,"x_max":247,"o":"m 247 604 l 247 31 q 186 -180 247 -99 q -6 -303 125 -261 l -67 -165 q 1 -149 -26 -158 q 53 -128 29 -139 q 86 -74 74 -104 q 99 -11 99 -43 l 99 19 l 94 93 l 94 461 l 82 592 l 247 604 z "},"ĵ":{"ha":338,"x_min":-67,"x_max":363,"o":"m 247 604 l 247 31 q 186 -180 247 -99 q -6 -303 125 -261 l -67 -165 q 1 -149 -26 -158 q 53 -128 29 -139 q 86 -74 74 -104 q 99 -11 99 -43 l 99 19 l 94 93 l 94 461 l 82 592 l 247 604 m 190 979 l 276 892 l 363 819 l 363 800 l 265 713 l 163 824 l 53 718 l -25 792 l -25 811 l 69 890 l 156 979 l 190 979 z "},"ķ":{"ha":707,"x_min":86,"x_max":669,"o":"m 251 915 l 251 363 q 290 381 271 369 q 329 407 310 392 q 395 494 365 450 q 449 601 425 539 l 625 594 l 628 581 q 535 447 582 506 q 429 333 488 388 q 478 254 453 293 q 532 177 503 215 q 595 99 561 139 q 669 15 629 58 l 665 0 l 490 -7 q 397 120 438 57 q 318 261 356 183 q 283 245 300 253 q 251 232 267 238 l 251 0 l 99 0 l 99 769 l 86 904 l 251 915 m 442 -97 l 450 -125 l 374 -365 l 269 -340 l 292 -203 l 292 -106 l 442 -97 z "},"ĺ":{"ha":389,"x_min":92,"x_max":388,"o":"m 257 325 l 253 243 l 253 192 q 310 125 253 125 q 346 131 329 125 l 361 6 q 265 -10 319 -10 q 142 42 181 -10 q 104 194 104 94 l 104 769 l 92 904 l 257 915 l 257 325 m 171 1124 l 268 1296 l 286 1296 l 388 1201 l 210 1001 l 114 1049 l 171 1124 z "},"ľ":{"ha":532,"x_min":92,"x_max":546,"o":"m 257 325 l 253 243 l 253 192 q 310 125 253 125 q 346 131 329 125 l 361 6 q 265 -10 319 -10 q 142 42 181 -10 q 104 194 104 94 l 104 769 l 92 904 l 257 915 l 257 325 m 538 896 l 546 868 l 469 628 l 365 653 l 388 790 l 388 888 l 538 896 z "},"ļ":{"ha":389,"x_min":92,"x_max":361,"o":"m 257 325 l 253 243 l 253 192 q 310 125 253 125 q 346 131 329 125 l 361 6 q 265 -10 319 -10 q 142 42 181 -10 q 104 194 104 94 l 104 769 l 92 904 l 257 915 l 257 325 m 301 -97 l 310 -125 l 233 -365 l 129 -340 l 151 -203 l 151 -106 l 301 -97 z "},"ŀ":{"ha":540,"x_min":92,"x_max":528,"o":"m 257 325 l 253 243 l 253 192 q 310 125 253 125 q 346 131 329 125 l 361 6 q 265 -10 319 -10 q 142 42 181 -10 q 104 194 104 94 l 104 769 l 92 904 l 257 915 l 257 325 m 528 553 l 528 388 l 357 394 l 363 539 l 528 553 z "},"ń":{"ha":740,"x_min":53,"x_max":650,"o":"m 199 613 l 239 525 q 364 607 294 575 q 393 611 378 610 q 424 613 408 613 q 593 549 536 613 q 650 381 650 485 l 650 0 l 494 0 l 494 376 q 470 455 494 428 q 403 482 446 482 q 325 460 363 482 q 260 394 288 438 l 260 0 l 106 0 l 106 429 l 53 549 l 199 613 m 367 846 l 464 1018 l 482 1018 l 583 924 l 406 724 l 310 771 l 367 846 z "},"ŉ":{"ha":842,"x_min":-7,"x_max":751,"o":"m 300 613 l 340 525 q 465 607 396 575 q 494 611 479 610 q 525 613 510 613 q 694 549 638 613 q 751 381 751 485 l 751 0 l 596 0 l 596 376 q 572 455 596 428 q 504 482 547 482 q 426 460 464 482 q 361 394 389 438 l 361 0 l 207 0 l 207 429 l 154 549 l 300 613 m 165 896 l 174 868 l 97 628 l -7 653 l 15 790 l 15 888 l 165 896 z "},"ň":{"ha":740,"x_min":53,"x_max":650,"o":"m 199 613 l 239 525 q 364 607 294 575 q 393 611 378 610 q 424 613 408 613 q 593 549 536 613 q 650 381 650 485 l 650 0 l 494 0 l 494 376 q 470 455 494 428 q 403 482 446 482 q 325 460 363 482 q 260 394 288 438 l 260 0 l 106 0 l 106 429 l 53 549 l 199 613 m 390 861 l 514 976 l 604 904 l 604 885 l 499 804 l 403 715 l 368 715 l 275 796 l 163 872 l 163 893 l 263 981 l 390 861 z "},"ņ":{"ha":740,"x_min":53,"x_max":650,"o":"m 199 613 l 239 525 q 364 607 294 575 q 393 611 378 610 q 424 613 408 613 q 593 549 536 613 q 650 381 650 485 l 650 0 l 494 0 l 494 376 q 470 455 494 428 q 403 482 446 482 q 325 460 363 482 q 260 394 288 438 l 260 0 l 106 0 l 106 429 l 53 549 l 199 613 m 451 -97 l 460 -125 l 383 -365 l 279 -340 l 301 -203 l 301 -106 l 451 -97 z "},"ñ":{"ha":740,"x_min":53,"x_max":650,"o":"m 199 613 l 239 525 q 364 607 294 575 q 393 611 378 610 q 424 613 408 613 q 593 549 536 613 q 650 381 650 485 l 650 0 l 494 0 l 494 376 q 470 455 494 428 q 403 482 446 482 q 325 460 363 482 q 260 394 288 438 l 260 0 l 106 0 l 106 429 l 53 549 l 199 613 m 158 850 q 206 892 182 874 q 257 925 231 911 q 288 929 271 929 q 340 921 317 929 q 383 901 363 913 q 426 877 404 889 q 475 860 447 865 q 549 901 513 872 l 604 807 q 503 732 560 760 q 488 729 496 731 q 472 728 481 728 q 420 737 443 728 q 376 757 397 746 q 334 780 356 768 q 285 797 313 792 q 214 756 246 783 l 158 850 z "},"ó":{"ha":733,"x_min":71,"x_max":663,"o":"m 367 613 q 488 590 433 613 q 581 527 543 568 q 641 428 619 486 q 663 299 663 371 q 640 172 663 229 q 579 72 618 114 q 485 8 540 31 q 367 -15 431 -15 q 245 7 300 -15 q 151 69 190 29 q 92 168 113 110 q 71 299 71 226 q 93 424 71 367 q 154 524 115 482 q 247 589 193 565 q 367 613 301 613 m 367 110 q 420 117 394 110 q 469 142 446 124 q 499 214 490 175 q 508 299 508 253 q 497 385 508 350 q 465 443 485 421 q 419 476 444 465 q 367 486 393 486 q 312 479 338 486 q 263 454 286 472 q 233 382 242 421 q 225 299 225 343 q 237 211 225 247 q 269 153 249 175 q 314 120 289 131 q 367 110 339 110 m 349 846 l 446 1018 l 464 1018 l 565 924 l 388 724 l 292 771 l 349 846 z "},"ŏ":{"ha":733,"x_min":71,"x_max":663,"o":"m 367 613 q 488 590 433 613 q 581 527 543 568 q 641 428 619 486 q 663 299 663 371 q 640 172 663 229 q 579 72 618 114 q 485 8 540 31 q 367 -15 431 -15 q 245 7 300 -15 q 151 69 190 29 q 92 168 113 110 q 71 299 71 226 q 93 424 71 367 q 154 524 115 482 q 247 589 193 565 q 367 613 301 613 m 367 110 q 420 117 394 110 q 469 142 446 124 q 499 214 490 175 q 508 299 508 253 q 497 385 508 350 q 465 443 485 421 q 419 476 444 465 q 367 486 393 486 q 312 479 338 486 q 263 454 286 472 q 233 382 242 421 q 225 299 225 343 q 237 211 225 247 q 269 153 249 175 q 314 120 289 131 q 367 110 339 110 m 293 944 q 371 838 303 838 q 425 853 403 838 q 440 935 440 886 l 569 951 q 554 851 569 893 q 512 781 539 808 q 447 740 485 753 q 364 726 408 726 q 228 778 282 726 q 163 921 174 829 l 293 944 z "},"ô":{"ha":733,"x_min":71,"x_max":663,"o":"m 367 613 q 488 590 433 613 q 581 527 543 568 q 641 428 619 486 q 663 299 663 371 q 640 172 663 229 q 579 72 618 114 q 485 8 540 31 q 367 -15 431 -15 q 245 7 300 -15 q 151 69 190 29 q 92 168 113 110 q 71 299 71 226 q 93 424 71 367 q 154 524 115 482 q 247 589 193 565 q 367 613 301 613 m 367 110 q 420 117 394 110 q 469 142 446 124 q 499 214 490 175 q 508 299 508 253 q 497 385 508 350 q 465 443 485 421 q 419 476 444 465 q 367 486 393 486 q 312 479 338 486 q 263 454 286 472 q 233 382 242 421 q 225 299 225 343 q 237 211 225 247 q 269 153 249 175 q 314 120 289 131 q 367 110 339 110 m 388 979 l 486 892 l 588 821 l 588 801 l 486 713 l 364 833 l 235 718 l 146 790 l 146 810 l 251 889 l 351 979 l 388 979 z "},"ö":{"ha":733,"x_min":71,"x_max":663,"o":"m 367 613 q 488 590 433 613 q 581 527 543 568 q 641 428 619 486 q 663 299 663 371 q 640 172 663 229 q 579 72 618 114 q 485 8 540 31 q 367 -15 431 -15 q 245 7 300 -15 q 151 69 190 29 q 92 168 113 110 q 71 299 71 226 q 93 424 71 367 q 154 524 115 482 q 247 589 193 565 q 367 613 301 613 m 367 110 q 420 117 394 110 q 469 142 446 124 q 499 214 490 175 q 508 299 508 253 q 497 385 508 350 q 465 443 485 421 q 419 476 444 465 q 367 486 393 486 q 312 479 338 486 q 263 454 286 472 q 233 382 242 421 q 225 299 225 343 q 237 211 225 247 q 269 153 249 175 q 314 120 289 131 q 367 110 339 110 m 581 906 l 581 744 l 418 750 l 424 896 l 581 906 m 315 907 l 315 744 l 153 751 l 158 893 l 315 907 z "},"ò":{"ha":733,"x_min":71,"x_max":663,"o":"m 367 613 q 488 590 433 613 q 581 527 543 568 q 641 428 619 486 q 663 299 663 371 q 640 172 663 229 q 579 72 618 114 q 485 8 540 31 q 367 -15 431 -15 q 245 7 300 -15 q 151 69 190 29 q 92 168 113 110 q 71 299 71 226 q 93 424 71 367 q 154 524 115 482 q 247 589 193 565 q 367 613 301 613 m 367 110 q 420 117 394 110 q 469 142 446 124 q 499 214 490 175 q 508 299 508 253 q 497 385 508 350 q 465 443 485 421 q 419 476 444 465 q 367 486 393 486 q 312 479 338 486 q 263 454 286 472 q 233 382 242 421 q 225 299 225 343 q 237 211 225 247 q 269 153 249 175 q 314 120 289 131 q 367 110 339 110 m 329 1018 l 400 894 l 486 771 l 392 724 l 203 924 l 310 1018 l 329 1018 z "},"ő":{"ha":733,"x_min":71,"x_max":679,"o":"m 367 613 q 488 590 433 613 q 581 527 543 568 q 641 428 619 486 q 663 299 663 371 q 640 172 663 229 q 579 72 618 114 q 485 8 540 31 q 367 -15 431 -15 q 245 7 300 -15 q 151 69 190 29 q 92 168 113 110 q 71 299 71 226 q 93 424 71 367 q 154 524 115 482 q 247 589 193 565 q 367 613 301 613 m 367 110 q 420 117 394 110 q 469 142 446 124 q 499 214 490 175 q 508 299 508 253 q 497 385 508 350 q 465 443 485 421 q 419 476 444 465 q 367 486 393 486 q 312 479 338 486 q 263 454 286 472 q 233 382 242 421 q 225 299 225 343 q 237 211 225 247 q 269 153 249 175 q 314 120 289 131 q 367 110 339 110 m 260 875 l 296 1007 l 314 1007 l 431 926 l 306 728 l 211 763 l 260 875 m 563 985 l 581 985 l 679 885 l 565 793 l 490 721 l 407 768 l 563 985 z "},"ō":{"ha":733,"x_min":71,"x_max":663,"o":"m 367 613 q 488 590 433 613 q 581 527 543 568 q 641 428 619 486 q 663 299 663 371 q 640 172 663 229 q 579 72 618 114 q 485 8 540 31 q 367 -15 431 -15 q 245 7 300 -15 q 151 69 190 29 q 92 168 113 110 q 71 299 71 226 q 93 424 71 367 q 154 524 115 482 q 247 589 193 565 q 367 613 301 613 m 367 110 q 420 117 394 110 q 469 142 446 124 q 499 214 490 175 q 508 299 508 253 q 497 385 508 350 q 465 443 485 421 q 419 476 444 465 q 367 486 393 486 q 312 479 338 486 q 263 454 286 472 q 233 382 242 421 q 225 299 225 343 q 237 211 225 247 q 269 153 249 175 q 314 120 289 131 q 367 110 339 110 m 386 885 l 560 904 l 571 893 l 556 763 l 174 751 l 161 763 l 185 875 l 386 885 z "},"õ":{"ha":733,"x_min":71,"x_max":663,"o":"m 367 613 q 488 590 433 613 q 581 527 543 568 q 641 428 619 486 q 663 299 663 371 q 640 172 663 229 q 579 72 618 114 q 485 8 540 31 q 367 -15 431 -15 q 245 7 300 -15 q 151 69 190 29 q 92 168 113 110 q 71 299 71 226 q 93 424 71 367 q 154 524 115 482 q 247 589 193 565 q 367 613 301 613 m 367 110 q 420 117 394 110 q 469 142 446 124 q 499 214 490 175 q 508 299 508 253 q 497 385 508 350 q 465 443 485 421 q 419 476 444 465 q 367 486 393 486 q 312 479 338 486 q 263 454 286 472 q 233 382 242 421 q 225 299 225 343 q 237 211 225 247 q 269 153 249 175 q 314 120 289 131 q 367 110 339 110 m 149 850 q 197 892 172 874 q 247 925 221 911 q 278 929 261 929 q 330 921 307 929 q 374 901 353 913 q 416 877 394 889 q 465 860 438 865 q 539 901 503 872 l 594 807 q 493 732 550 760 q 478 729 486 731 q 463 728 471 728 q 410 737 433 728 q 367 757 388 746 q 324 780 346 768 q 275 797 303 792 q 204 756 236 783 l 149 850 z "},"ŕ":{"ha":558,"x_min":56,"x_max":522,"o":"m 200 613 l 239 524 q 361 608 294 572 q 413 613 383 613 q 469 606 440 613 q 522 585 497 600 l 471 433 q 423 458 447 449 q 369 467 399 467 q 308 447 335 467 q 260 390 282 426 l 260 0 l 106 0 l 106 432 l 56 551 l 200 613 m 292 846 l 389 1018 l 407 1018 l 508 924 l 331 724 l 235 771 l 292 846 z "},"ř":{"ha":558,"x_min":56,"x_max":540,"o":"m 200 613 l 239 524 q 361 608 294 572 q 413 613 383 613 q 469 606 440 613 q 522 585 497 600 l 471 433 q 423 458 447 449 q 369 467 399 467 q 308 447 335 467 q 260 390 282 426 l 260 0 l 106 0 l 106 432 l 56 551 l 200 613 m 326 861 l 450 976 l 540 904 l 540 885 l 435 804 l 339 715 l 304 715 l 211 796 l 99 872 l 99 893 l 199 981 l 326 861 z "},"ŗ":{"ha":558,"x_min":56,"x_max":522,"o":"m 200 613 l 239 524 q 361 608 294 572 q 413 613 383 613 q 469 606 440 613 q 522 585 497 600 l 471 433 q 423 458 447 449 q 369 467 399 467 q 308 447 335 467 q 260 390 282 426 l 260 0 l 106 0 l 106 432 l 56 551 l 200 613 m 257 -97 l 265 -125 l 189 -365 l 85 -340 l 107 -203 l 107 -106 l 257 -97 z "},"ś":{"ha":642,"x_min":60,"x_max":572,"o":"m 132 176 q 196 134 163 151 q 261 106 229 117 q 284 103 272 104 q 308 103 296 103 q 371 108 344 103 q 417 122 397 113 q 433 169 433 140 q 429 194 433 183 q 411 215 425 206 q 373 230 397 224 q 310 240 349 236 q 83 425 83 265 q 145 560 83 507 q 329 613 207 613 q 457 596 399 613 q 565 550 515 579 l 492 433 q 381 490 440 469 q 329 494 357 494 q 238 478 275 494 q 227 459 231 469 q 224 438 224 449 q 247 389 224 406 q 333 365 271 372 q 510 307 449 351 q 572 176 572 263 q 506 36 572 88 q 315 -15 440 -15 q 178 0 239 -15 q 60 51 117 15 l 132 176 m 311 846 l 408 1018 l 426 1018 l 528 924 l 350 724 l 254 771 l 311 846 z "},"š":{"ha":642,"x_min":60,"x_max":572,"o":"m 132 176 q 196 134 163 151 q 261 106 229 117 q 284 103 272 104 q 308 103 296 103 q 371 108 344 103 q 417 122 397 113 q 433 169 433 140 q 429 194 433 183 q 411 215 425 206 q 373 230 397 224 q 310 240 349 236 q 83 425 83 265 q 145 560 83 507 q 329 613 207 613 q 457 596 399 613 q 565 550 515 579 l 492 433 q 381 490 440 469 q 329 494 357 494 q 238 478 275 494 q 227 459 231 469 q 224 438 224 449 q 247 389 224 406 q 333 365 271 372 q 510 307 449 351 q 572 176 572 263 q 506 36 572 88 q 315 -15 440 -15 q 178 0 239 -15 q 60 51 117 15 l 132 176 m 339 861 l 463 976 l 553 904 l 553 885 l 447 804 l 351 715 l 317 715 l 224 796 l 111 872 l 111 893 l 211 981 l 339 861 z "},"ş":{"ha":642,"x_min":60,"x_max":572,"o":"m 132 176 q 261 107 190 129 q 308 103 282 103 q 371 108 344 103 q 417 122 397 113 q 433 169 433 140 q 429 194 433 183 q 411 214 425 206 q 373 229 397 222 q 310 240 349 236 q 83 425 83 264 q 145 560 83 507 q 329 613 207 613 q 457 596 399 613 q 565 550 515 579 l 492 433 q 379 490 442 468 q 329 494 356 494 q 238 478 275 494 q 227 459 231 469 q 224 438 224 449 q 247 389 224 406 q 333 365 271 372 q 510 307 449 351 q 572 176 572 263 q 518 47 572 96 q 363 -12 464 -3 l 363 -60 q 436 -112 410 -75 q 463 -207 463 -149 q 400 -344 463 -285 q 204 -419 338 -403 l 194 -408 l 214 -287 q 283 -278 254 -285 q 335 -261 311 -272 q 346 -214 346 -242 q 331 -171 346 -186 q 288 -156 317 -156 q 264 -158 276 -156 q 242 -164 251 -161 l 225 -143 l 257 -12 q 152 7 200 -8 q 60 51 104 22 l 132 176 z "},"ŝ":{"ha":642,"x_min":60,"x_max":572,"o":"m 132 176 q 196 134 163 151 q 261 106 229 117 q 284 103 272 104 q 308 103 296 103 q 371 108 344 103 q 417 122 397 113 q 433 169 433 140 q 429 194 433 183 q 411 215 425 206 q 373 230 397 224 q 310 240 349 236 q 83 425 83 265 q 145 560 83 507 q 329 613 207 613 q 457 596 399 613 q 565 550 515 579 l 492 433 q 381 490 440 469 q 329 494 357 494 q 238 478 275 494 q 227 459 231 469 q 224 438 224 449 q 247 389 224 406 q 333 365 271 372 q 510 307 449 351 q 572 176 572 263 q 506 36 572 88 q 315 -15 440 -15 q 178 0 239 -15 q 60 51 117 15 l 132 176 m 351 979 l 450 892 l 551 821 l 551 801 l 450 713 l 328 833 l 199 718 l 110 790 l 110 810 l 215 889 l 315 979 l 351 979 z "},"ș":{"ha":642,"x_min":60,"x_max":572,"o":"m 132 176 q 196 134 163 151 q 261 106 229 117 q 284 103 272 104 q 308 103 296 103 q 371 108 344 103 q 417 122 397 113 q 433 169 433 140 q 429 194 433 183 q 411 215 425 206 q 373 230 397 224 q 310 240 349 236 q 83 425 83 265 q 145 560 83 507 q 329 613 207 613 q 457 596 399 613 q 565 550 515 579 l 492 433 q 381 490 440 469 q 329 494 357 494 q 238 478 275 494 q 227 459 231 469 q 224 438 224 449 q 247 389 224 406 q 333 365 271 372 q 510 307 449 351 q 572 176 572 263 q 506 36 572 88 q 315 -15 440 -15 q 178 0 239 -15 q 60 51 117 15 l 132 176 m 399 -97 l 407 -125 l 331 -365 l 226 -340 l 249 -203 l 249 -106 l 399 -97 z "},"ť":{"ha":642,"x_min":49,"x_max":657,"o":"m 279 597 l 436 597 l 428 468 l 282 478 l 282 208 q 299 136 282 158 q 347 114 315 114 q 433 144 394 114 l 469 32 q 400 -4 438 7 q 318 -15 363 -15 q 174 44 218 -15 q 129 200 129 104 l 129 467 l 49 486 l 49 581 q 92 596 72 588 q 129 614 111 604 q 157 681 144 644 q 176 754 169 718 l 288 747 l 279 597 m 649 896 l 657 868 l 581 628 l 476 653 l 499 790 l 499 888 l 649 896 z "},"ț":{"ha":508,"x_min":49,"x_max":469,"o":"m 279 597 l 436 597 l 428 468 l 282 478 l 282 208 q 299 136 282 158 q 347 114 315 114 q 433 144 394 114 l 469 32 q 400 -4 438 7 q 318 -15 363 -15 q 174 44 218 -15 q 129 200 129 104 l 129 467 l 49 486 l 49 581 q 92 596 72 588 q 129 614 111 604 q 157 681 144 644 q 176 754 169 718 l 288 747 l 279 597 m 368 -97 l 376 -125 l 300 -365 l 196 -340 l 218 -203 l 218 -106 l 368 -97 z "},"ţ":{"ha":508,"x_min":49,"x_max":469,"o":"m 279 597 l 436 597 l 428 468 l 282 478 l 282 208 q 299 136 282 158 q 347 114 315 114 q 433 144 394 114 l 469 32 q 340 -14 415 -10 l 340 -60 q 415 -112 389 -75 q 440 -207 440 -149 q 378 -344 440 -285 q 183 -419 315 -403 l 172 -408 l 192 -287 q 261 -278 232 -285 q 314 -261 290 -272 q 325 -214 325 -242 q 310 -171 325 -186 q 265 -156 296 -156 q 242 -158 254 -156 q 219 -164 229 -161 l 204 -143 l 238 -1 q 154 72 179 19 q 129 200 129 125 l 129 467 l 49 486 l 49 581 q 92 596 72 588 q 129 614 111 604 q 157 681 144 644 q 176 754 169 718 l 288 747 l 279 597 z "},"ú":{"ha":728,"x_min":78,"x_max":675,"o":"m 244 604 l 244 219 q 269 141 244 168 q 336 114 293 114 q 469 203 414 114 l 469 461 l 457 592 l 624 604 l 624 168 l 675 46 l 531 -15 l 490 72 q 376 -11 438 21 q 317 -15 347 -15 q 147 48 204 -15 q 90 215 90 111 l 90 461 l 78 592 l 244 604 m 346 846 l 443 1018 l 461 1018 l 563 924 l 385 724 l 289 771 l 346 846 z "},"ŭ":{"ha":728,"x_min":78,"x_max":675,"o":"m 244 604 l 244 219 q 269 141 244 168 q 336 114 293 114 q 469 203 414 114 l 469 461 l 457 592 l 624 604 l 624 168 l 675 46 l 531 -15 l 490 72 q 376 -11 438 21 q 317 -15 347 -15 q 147 48 204 -15 q 90 215 90 111 l 90 461 l 78 592 l 244 604 m 283 944 q 361 838 293 838 q 415 853 393 838 q 431 935 431 886 l 560 951 q 544 851 560 893 q 502 781 529 808 q 437 740 475 753 q 354 726 399 726 q 218 778 272 726 q 153 921 164 829 l 283 944 z "},"û":{"ha":728,"x_min":78,"x_max":675,"o":"m 244 604 l 244 219 q 269 141 244 168 q 336 114 293 114 q 469 203 414 114 l 469 461 l 457 592 l 624 604 l 624 168 l 675 46 l 531 -15 l 490 72 q 376 -11 438 21 q 317 -15 347 -15 q 147 48 204 -15 q 90 215 90 111 l 90 461 l 78 592 l 244 604 m 378 979 l 476 892 l 578 821 l 578 801 l 476 713 l 354 833 l 225 718 l 136 790 l 136 810 l 242 889 l 342 979 l 378 979 z "},"ü":{"ha":728,"x_min":78,"x_max":675,"o":"m 244 604 l 244 219 q 269 141 244 168 q 336 114 293 114 q 469 203 414 114 l 469 461 l 457 592 l 624 604 l 624 168 l 675 46 l 531 -15 l 490 72 q 376 -11 438 21 q 317 -15 347 -15 q 147 48 204 -15 q 90 215 90 111 l 90 461 l 78 592 l 244 604 m 572 906 l 572 744 l 410 750 l 415 896 l 572 906 m 307 907 l 307 744 l 144 751 l 150 893 l 307 907 z "},"ű":{"ha":728,"x_min":78,"x_max":675,"o":"m 244 604 l 244 219 q 269 141 244 168 q 336 114 293 114 q 469 203 414 114 l 469 461 l 457 592 l 624 604 l 624 168 l 675 46 l 531 -15 l 490 72 q 376 -11 438 21 q 317 -15 347 -15 q 147 48 204 -15 q 90 215 90 111 l 90 461 l 78 592 l 244 604 m 238 875 l 274 1007 l 292 1007 l 408 926 l 283 728 l 189 763 l 238 875 m 540 985 l 558 985 l 657 885 l 543 793 l 468 721 l 385 768 l 540 985 z "},"ù":{"ha":728,"x_min":78,"x_max":675,"o":"m 244 604 l 244 219 q 269 141 244 168 q 336 114 293 114 q 469 203 414 114 l 469 461 l 457 592 l 624 604 l 624 168 l 675 46 l 531 -15 l 490 72 q 376 -11 438 21 q 317 -15 347 -15 q 147 48 204 -15 q 90 215 90 111 l 90 461 l 78 592 l 244 604 m 269 1018 l 340 894 l 426 771 l 332 724 l 143 924 l 250 1018 l 269 1018 z "},"ū":{"ha":728,"x_min":78,"x_max":675,"o":"m 244 604 l 244 219 q 269 141 244 168 q 336 114 293 114 q 469 203 414 114 l 469 461 l 457 592 l 624 604 l 624 168 l 675 46 l 531 -15 l 490 72 q 376 -11 438 21 q 317 -15 347 -15 q 147 48 204 -15 q 90 215 90 111 l 90 461 l 78 592 l 244 604 m 382 885 l 556 904 l 567 893 l 551 763 l 169 751 l 157 763 l 181 875 l 382 885 z "},"ų":{"ha":728,"x_min":78,"x_max":675,"o":"m 244 604 l 244 219 q 269 141 244 168 q 336 114 293 114 q 469 203 414 114 l 469 461 l 457 592 l 624 604 l 624 168 l 675 46 q 585 0 619 29 q 571 -33 575 -15 q 567 -68 567 -50 q 591 -128 567 -106 q 668 -150 615 -150 l 675 -161 l 631 -272 q 494 -225 543 -272 q 444 -108 444 -178 q 507 33 444 -24 l 490 72 q 376 -11 438 21 q 317 -15 347 -15 q 147 48 204 -15 q 90 215 90 111 l 90 461 l 78 592 l 244 604 z "},"ů":{"ha":728,"x_min":78,"x_max":675,"o":"m 244 604 l 244 219 q 269 141 244 168 q 336 114 293 114 q 469 203 414 114 l 469 461 l 457 592 l 624 604 l 624 168 l 675 46 l 531 -15 l 490 72 q 376 -11 438 21 q 317 -15 347 -15 q 147 48 204 -15 q 90 215 90 111 l 90 461 l 78 592 l 244 604 m 360 1035 q 433 1021 401 1035 q 485 984 464 1007 q 518 931 507 961 q 529 869 529 901 q 517 808 529 838 q 483 756 506 779 q 430 719 461 733 q 360 706 399 706 q 282 719 314 706 q 229 756 250 733 q 199 808 208 779 q 189 869 189 838 q 201 931 189 901 q 235 984 213 961 q 288 1021 257 1007 q 360 1035 319 1035 m 360 928 q 311 915 329 928 q 303 894 306 907 q 301 869 301 882 q 317 826 301 843 q 360 810 332 810 q 404 821 385 810 q 415 869 415 840 q 400 912 415 896 q 360 928 385 928 z "},"ũ":{"ha":728,"x_min":78,"x_max":675,"o":"m 244 604 l 244 219 q 269 141 244 168 q 336 114 293 114 q 469 203 414 114 l 469 461 l 457 592 l 624 604 l 624 168 l 675 46 l 531 -15 l 490 72 q 376 -11 438 21 q 317 -15 347 -15 q 147 48 204 -15 q 90 215 90 111 l 90 461 l 78 592 l 244 604 m 142 850 q 190 892 165 874 q 240 925 214 911 q 271 929 254 929 q 323 921 300 929 q 367 901 346 913 q 409 877 388 889 q 458 860 431 865 q 532 901 496 872 l 588 807 q 486 732 543 760 q 472 729 479 731 q 456 728 464 728 q 403 737 426 728 q 360 757 381 746 q 317 780 339 768 q 268 797 296 792 q 197 756 229 783 l 142 850 z "},"ŵ":{"ha":950,"x_min":36,"x_max":914,"o":"m 194 604 l 301 156 l 310 156 l 357 313 q 386 444 375 374 q 404 592 397 515 l 547 599 l 661 156 l 669 156 l 717 339 q 744 475 736 411 q 754 597 751 539 l 914 597 l 914 581 q 877 428 899 506 q 829 274 856 350 l 736 1 l 576 -6 l 486 351 l 478 351 l 382 1 l 214 -6 l 36 576 l 36 592 l 194 604 m 504 979 l 603 892 l 704 821 l 704 801 l 603 713 l 481 833 l 351 718 l 263 790 l 263 810 l 368 889 l 468 979 l 504 979 z "},"ý":{"ha":672,"x_min":36,"x_max":636,"o":"m 200 604 l 349 121 l 358 121 l 418 307 q 452 452 440 378 q 469 597 464 526 l 636 597 l 636 582 q 601 436 624 510 q 547 289 578 363 l 367 -149 l 356 -333 l 207 -326 l 197 -314 q 222 -172 203 -242 q 272 -36 240 -103 l 36 576 l 36 592 l 200 604 m 328 846 l 425 1018 l 443 1018 l 544 924 l 367 724 l 271 771 l 328 846 z "},"ŷ":{"ha":672,"x_min":36,"x_max":636,"o":"m 200 604 l 349 121 l 358 121 l 418 307 q 452 452 440 378 q 469 597 464 526 l 636 597 l 636 582 q 601 436 624 510 q 547 289 578 363 l 367 -149 l 356 -333 l 207 -326 l 197 -314 q 222 -172 203 -242 q 272 -36 240 -103 l 36 576 l 36 592 l 200 604 m 376 979 l 475 892 l 576 821 l 576 801 l 475 713 l 353 833 l 224 718 l 135 790 l 135 810 l 240 889 l 340 979 l 376 979 z "},"ÿ":{"ha":672,"x_min":36,"x_max":636,"o":"m 200 604 l 349 121 l 358 121 l 418 307 q 452 452 440 378 q 469 597 464 526 l 636 597 l 636 582 q 601 436 624 510 q 547 289 578 363 l 367 -149 l 356 -333 l 207 -326 l 197 -314 q 222 -172 203 -242 q 272 -36 240 -103 l 36 576 l 36 592 l 200 604 m 557 906 l 557 744 l 394 750 l 400 896 l 557 906 m 292 907 l 292 744 l 129 751 l 135 893 l 292 907 z "},"ź":{"ha":619,"x_min":60,"x_max":558,"o":"m 543 597 l 549 514 l 246 115 l 299 115 l 547 133 l 558 122 l 542 0 l 65 0 l 60 81 l 363 482 l 306 482 l 79 465 l 68 476 l 83 597 l 543 597 m 294 846 l 392 1018 l 410 1018 l 511 924 l 333 724 l 238 771 l 294 846 z "},"ž":{"ha":619,"x_min":60,"x_max":558,"o":"m 543 597 l 549 514 l 246 115 l 299 115 l 547 133 l 558 122 l 542 0 l 65 0 l 60 81 l 363 482 l 306 482 l 79 465 l 68 476 l 83 597 l 543 597 m 319 861 l 443 976 l 533 904 l 533 885 l 428 804 l 332 715 l 297 715 l 204 796 l 92 872 l 92 893 l 192 981 l 319 861 z "},"ż":{"ha":619,"x_min":60,"x_max":558,"o":"m 543 597 l 549 514 l 246 115 l 299 115 l 547 133 l 558 122 l 542 0 l 65 0 l 60 81 l 363 482 l 306 482 l 79 465 l 68 476 l 83 597 l 543 597 m 399 910 l 399 744 l 228 751 l 233 896 l 399 910 z "},"⁰":{"ha":535,"x_min":51,"x_max":483,"o":"m 267 1013 q 425 951 367 1013 q 483 781 483 889 q 468 687 483 729 q 424 614 453 644 q 356 566 396 583 q 268 549 317 549 q 109 610 167 549 q 51 781 51 672 q 67 874 51 832 q 110 947 82 917 q 178 995 139 978 q 267 1013 218 1013 m 265 904 q 199 885 225 904 q 183 838 188 864 q 178 781 178 811 q 269 657 178 657 q 336 675 308 657 q 352 724 347 697 q 357 781 357 750 q 265 904 357 904 z "},"⁵":{"ha":479,"x_min":35,"x_max":414,"o":"m 100 706 q 141 675 122 688 q 182 651 160 663 q 219 647 199 647 q 249 649 235 647 q 275 658 263 651 q 292 708 292 675 q 225 765 292 765 q 151 744 178 765 l 74 763 l 101 1006 l 240 1006 l 401 1011 l 388 897 l 251 908 l 197 908 l 190 843 q 253 851 219 851 q 372 813 329 851 q 414 704 414 774 q 360 592 414 635 q 219 549 307 549 q 35 615 110 549 l 100 706 z "},"⁶":{"ha":475,"x_min":53,"x_max":422,"o":"m 382 904 q 297 898 338 903 q 219 885 257 893 q 174 811 185 857 q 271 839 214 839 q 381 801 340 839 q 422 700 422 763 q 410 642 422 669 q 374 593 397 614 q 315 560 350 572 q 238 549 281 549 q 103 599 154 549 q 53 742 53 649 q 72 845 53 797 q 128 930 90 893 q 224 988 167 967 q 361 1014 282 1010 l 382 904 m 244 754 q 175 733 203 754 q 171 707 171 721 q 190 658 171 675 q 238 642 208 642 q 266 645 253 642 q 292 656 279 649 q 304 701 304 674 q 244 754 304 754 z "},"⁷":{"ha":460,"x_min":44,"x_max":407,"o":"m 175 1006 l 400 1006 l 407 932 l 351 850 q 297 758 319 804 q 265 656 275 711 l 265 556 l 129 556 q 166 724 133 647 q 244 868 199 800 l 271 908 l 196 908 l 44 896 l 60 1010 l 175 1006 z "},"⁸":{"ha":492,"x_min":51,"x_max":440,"o":"m 246 1013 q 367 978 322 1013 q 413 885 413 943 q 372 800 413 832 q 422 756 404 782 q 440 694 440 729 q 389 588 440 628 q 247 549 338 549 q 101 589 151 549 q 51 696 51 629 q 65 753 51 726 q 106 799 78 779 q 76 882 76 832 q 121 975 76 938 q 246 1013 165 1013 m 242 743 q 189 751 211 746 q 169 701 169 736 q 247 643 169 643 q 307 653 281 643 q 319 693 319 667 q 303 727 319 715 q 242 743 286 739 m 256 832 q 269 830 263 831 q 282 828 275 829 q 299 875 299 849 q 284 908 299 896 q 246 921 269 921 q 194 911 218 921 q 186 879 186 896 q 201 847 186 860 q 256 832 215 835 z "},"⁹":{"ha":475,"x_min":51,"x_max":421,"o":"m 92 653 q 177 660 136 656 q 253 676 218 665 q 285 707 272 689 q 300 749 297 725 q 203 719 260 719 q 93 758 135 719 q 51 863 51 796 q 64 920 51 893 q 101 968 76 947 q 159 1001 125 989 q 238 1013 193 1013 q 372 961 322 1013 q 421 810 421 910 q 401 704 421 753 q 340 621 381 656 q 241 566 300 586 q 103 546 182 546 l 92 653 m 231 804 q 299 825 271 804 q 303 854 303 838 q 285 901 303 882 q 238 919 267 919 q 182 906 207 919 q 168 858 168 885 q 184 819 168 833 q 231 804 200 804 z "},"⁽":{"ha":265,"x_min":32,"x_max":256,"o":"m 256 1010 q 178 908 203 964 q 154 779 154 853 q 177 657 154 714 q 256 547 200 600 l 165 492 q 65 617 97 543 q 32 779 32 692 q 67 940 32 865 q 171 1067 101 1014 l 256 1010 z "},"⁾":{"ha":265,"x_min":10,"x_max":232,"o":"m 10 547 q 87 650 63 594 q 111 778 111 706 q 88 900 111 843 q 10 1011 64 957 l 100 1067 q 199 940 167 1015 q 232 778 232 865 q 198 619 232 693 q 93 492 164 544 l 10 547 z "},"₀":{"ha":535,"x_min":51,"x_max":483,"o":"m 267 375 q 425 313 367 375 q 483 143 483 251 q 468 49 483 92 q 424 -24 453 7 q 356 -72 396 -54 q 268 -89 317 -89 q 109 -27 167 -89 q 51 143 51 35 q 67 237 51 194 q 110 310 82 279 q 178 358 139 340 q 267 375 218 375 m 265 267 q 199 247 225 267 q 183 200 188 226 q 178 143 178 174 q 269 19 178 19 q 336 38 308 19 q 352 86 347 60 q 357 143 357 113 q 265 267 357 267 z "},"₁":{"ha":388,"x_min":44,"x_max":286,"o":"m 286 363 l 279 253 l 279 -82 l 154 -82 l 154 181 l 85 153 l 44 236 l 133 296 l 194 371 l 286 363 z "},"₂":{"ha":465,"x_min":44,"x_max":408,"o":"m 51 1 l 221 118 q 254 143 240 131 q 276 167 268 156 q 285 218 285 189 q 224 271 285 271 q 183 264 201 271 q 147 242 167 256 q 110 211 126 228 l 44 313 q 232 375 125 375 q 360 334 313 375 q 408 226 408 293 q 293 53 408 117 l 225 15 l 285 15 l 408 26 l 397 -90 l 247 -82 l 68 -82 l 51 1 z "},"₃":{"ha":482,"x_min":43,"x_max":429,"o":"m 222 188 l 239 188 q 256 190 247 188 q 271 194 265 192 q 282 232 282 208 q 225 276 282 276 q 210 276 218 276 q 196 274 203 275 q 119 232 156 258 l 61 321 q 235 375 138 375 q 362 340 318 375 q 406 247 406 306 q 371 161 406 189 q 429 63 429 133 q 375 -49 429 -10 q 226 -89 321 -89 q 131 -75 175 -89 q 43 -25 86 -61 l 106 63 q 147 35 126 47 q 188 15 167 24 q 231 11 206 11 q 289 21 263 11 q 303 61 303 36 q 256 106 303 106 l 240 106 l 169 99 l 156 190 l 222 188 z "},"₄":{"ha":510,"x_min":44,"x_max":468,"o":"m 335 354 q 290 240 315 290 q 228 142 264 189 l 183 83 l 290 83 l 319 196 l 407 204 l 407 85 l 468 90 l 463 -14 l 407 -14 l 407 -82 l 285 -82 l 285 -14 l 56 -14 l 44 67 l 131 185 q 176 272 158 222 q 208 375 194 321 l 335 354 z "},"₅":{"ha":479,"x_min":35,"x_max":414,"o":"m 100 68 q 141 38 122 50 q 182 14 160 25 q 219 10 199 10 q 249 12 235 10 q 275 21 263 14 q 292 71 292 38 q 225 128 292 128 q 151 107 178 128 l 74 125 l 101 368 l 240 368 l 401 374 l 388 260 l 251 271 l 197 271 l 190 206 q 253 214 219 214 q 372 175 329 214 q 414 67 414 136 q 360 -46 414 -3 q 219 -89 307 -89 q 35 -22 110 -89 l 100 68 z "},"₆":{"ha":475,"x_min":53,"x_max":422,"o":"m 382 267 q 297 260 338 265 q 219 247 257 256 q 174 174 185 219 q 271 201 214 201 q 381 163 340 201 q 422 63 422 125 q 410 4 422 32 q 374 -44 397 -24 q 315 -77 350 -65 q 238 -89 281 -89 q 103 -39 154 -89 q 53 104 53 11 q 72 208 53 160 q 128 292 90 256 q 224 351 167 329 q 361 376 282 372 l 382 267 m 244 117 q 175 96 203 117 q 171 69 171 83 q 190 21 171 38 q 238 4 208 4 q 266 8 253 4 q 292 18 279 11 q 304 64 304 36 q 244 117 304 117 z "},"₇":{"ha":460,"x_min":44,"x_max":407,"o":"m 175 368 l 400 368 l 407 294 l 351 213 q 297 120 319 167 q 265 18 275 74 l 265 -82 l 129 -82 q 166 86 133 10 q 244 231 199 163 l 271 271 l 196 271 l 44 258 l 60 372 l 175 368 z "},"₈":{"ha":492,"x_min":51,"x_max":440,"o":"m 246 375 q 367 340 322 375 q 413 247 413 306 q 372 163 413 194 q 422 118 404 144 q 440 57 440 92 q 389 -49 440 -10 q 247 -89 338 -89 q 101 -49 151 -89 q 51 58 51 -8 q 65 115 51 89 q 106 161 78 142 q 76 244 76 194 q 121 338 76 300 q 246 375 165 375 m 242 106 q 189 114 211 108 q 169 64 169 99 q 247 6 169 6 q 307 15 281 6 q 319 56 319 29 q 303 90 319 78 q 242 106 286 101 m 256 194 q 269 192 263 193 q 282 190 275 192 q 299 238 299 211 q 284 271 299 258 q 246 283 269 283 q 194 274 218 283 q 186 242 186 258 q 201 210 186 222 q 256 194 215 197 z "},"₉":{"ha":475,"x_min":51,"x_max":421,"o":"m 92 15 q 177 23 136 18 q 253 39 218 28 q 285 69 272 51 q 300 111 297 88 q 203 82 260 82 q 93 120 135 82 q 51 225 51 158 q 64 283 51 256 q 101 331 76 310 q 159 363 125 351 q 238 375 193 375 q 372 324 322 375 q 421 172 421 272 q 401 67 421 115 q 340 -17 381 18 q 241 -72 300 -51 q 103 -92 182 -92 l 92 15 m 231 167 q 299 188 271 167 q 303 217 303 200 q 285 263 303 244 q 238 282 267 282 q 182 268 207 282 q 168 221 168 247 q 184 181 168 196 q 231 167 200 167 z "},"₍":{"ha":265,"x_min":32,"x_max":256,"o":"m 256 372 q 178 271 203 326 q 154 142 154 215 q 177 19 154 76 q 256 -90 200 -37 l 165 -146 q 65 -20 97 -94 q 32 142 32 54 q 67 302 32 228 q 171 429 101 376 l 256 372 z "},"₎":{"ha":265,"x_min":10,"x_max":232,"o":"m 10 -90 q 87 13 63 -43 q 111 140 111 68 q 88 263 111 206 q 10 374 64 319 l 100 429 q 199 303 167 378 q 232 140 232 228 q 198 -19 232 56 q 93 -146 164 -93 l 10 -90 z "}}}
